<svg width="100" height="100" viewBox="0 0 100 100" fill="none" xmlns="http://www.w3.org/2000/svg">
<g clip-path="url(#clip0_1041_4074)">
<path d="M75.2275 70.1802C75.5575 69.8356 75.9053 69.5087 76.2697 69.2007L78.1291 75.2912C75.5121 76.9429 73.7717 79.8589 73.7717 83.1824C73.7717 88.3338 77.9482 92.5091 83.0988 92.5091C88.2502 92.5091 92.4258 88.3338 92.4258 83.1824C92.4258 78.6343 88.975 74.655 84.6674 73.8302L92.7881 71.0546C96.2152 73.8964 98.5941 78.3818 98.5941 83.1824C98.5941 91.7402 91.6566 98.6775 83.0988 98.6775C76.1469 98.6775 69.874 93.9046 67.9102 87.599C68.3527 81.9935 71.3518 74.249 75.2275 70.1802Z" fill="#576574"/>
<path d="M78.508 95.9455C73.7687 92.7755 71.7332 86.7994 73.4285 81.3558C74.3646 78.349 75.7402 75.308 77.3807 72.8377L76.2705 69.2007C75.906 69.5089 75.5579 69.8358 75.2275 70.1802C71.3525 74.249 68.3535 81.9937 67.9111 87.599C69.874 93.9046 76.1477 98.6775 83.0996 98.6775C83.8228 98.6775 84.5332 98.6242 85.2305 98.5289C82.7982 98.1892 80.501 97.2783 78.5082 95.9455H78.508Z" fill="#3E4B5A"/>
<path d="M82.4736 65.8148C82.756 65.8002 83.0386 65.7925 83.3213 65.7917C87.2748 65.7917 91.0437 67.2673 93.9527 69.5058C94.4967 69.9238 94.3557 70.7814 93.7055 71.0035L83.373 74.5351L80.7012 66.5869L82.4736 65.8148Z" fill="#FECA57"/>
<path d="M86.7404 66.1588C85.6273 65.9224 84.483 65.7912 83.3209 65.7912C83.0363 65.7912 82.7541 65.801 82.4732 65.8146L80.7002 66.5869L83.3728 74.5351L88.9195 72.6392L86.7404 66.1588Z" fill="#F4B537"/>
<path d="M21.5533 55.2166L27.7842 60.3393C28.4751 60.9071 29.2836 61.314 30.1513 61.5307C31.0189 61.7474 31.9239 61.7683 32.8006 61.592L36.1551 66.5434L30.2729 66.9149C28.4509 67.0295 26.6534 66.447 25.2451 65.2854L15.5146 57.2584L21.5533 55.2166Z" fill="#576574"/>
<path d="M31.5348 65.2854L23.092 58.3211C22.5299 57.8572 22.6955 56.957 23.3857 56.7234L21.5533 55.2168L15.5146 57.2584L25.2451 65.2854C26.6534 66.447 28.4509 67.0295 30.2729 66.9148L34.1898 66.6668C33.2177 66.3978 32.313 65.9271 31.5348 65.2854Z" fill="#3E4B5A"/>
<path d="M66.4934 53.7147C64.3602 54.5584 56.4621 58.9399 52.1027 61.1623C50.199 62.1325 48.6689 63.7041 47.7502 65.6332L46.7768 67.6762L35.5234 54.6332C43.5961 43.6369 49.1152 46.3621 56.4371 48.0215C61.6564 49.2041 67.6043 53.2881 67.6043 53.2881C67.2365 53.3018 66.865 53.5682 66.4934 53.7147Z" fill="#FECA57"/>
<path d="M46.4313 52.242C48.7771 49.5307 50.9188 47.9872 52.9781 47.1883C47.2467 45.8379 42.2793 45.4313 35.5234 54.6332L46.7768 67.6772L47.7502 65.6332C48.4518 64.1617 49.5129 62.8907 50.8355 61.9375L46.4326 56.835C45.2951 55.5159 45.2914 53.559 46.4313 52.242Z" fill="#F4B537"/>
<path d="M17.0207 67.6871C22.4176 67.6871 27.1686 70.4472 29.9434 74.632L24.2846 77.3336C22.5748 75.2134 19.9572 73.8554 17.0213 73.8554C11.8699 73.8554 7.69453 78.031 7.69453 83.1824C7.69453 88.3338 11.8699 92.5091 17.0213 92.5091C21.7951 92.5091 25.7287 88.9218 26.2797 84.297L32.4953 83.9949C32.0727 92.175 25.3061 98.6775 17.0207 98.6775C8.46269 98.6775 1.52539 91.74 1.52539 83.1824C1.52539 74.6244 8.46289 67.6871 17.0207 67.6871Z" fill="#576574"/>
<path d="M6.89648 83.1824C6.89648 75.5384 12.433 69.1916 19.7146 67.922C18.8252 67.7658 17.9238 67.6872 17.0207 67.6871C8.46269 67.6871 1.52539 74.6246 1.52539 83.1824C1.52539 91.7402 8.46289 98.6775 17.0207 98.6775C17.9377 98.6775 18.8342 98.5935 19.7068 98.4412C12.4301 97.1693 6.89648 90.824 6.89648 83.1824Z" fill="#3E4B5A"/>
<path d="M4.68277 45.4468H7.8771C9.27398 45.4468 10.6193 45.9755 11.6421 46.9269L15.5142 50.5271L21.8031 55.6976L15.865 57.5798C13.8021 58.0894 11.2775 57.2104 9.92398 55.5716L3.54898 47.8546C2.7562 46.8948 3.43824 45.4468 4.68277 45.4468Z" fill="#FF6B6B"/>
<path d="M16.1008 55.5715L9.72559 47.8545C9.18379 47.1991 9.33184 46.3149 9.87657 45.8213C9.239 45.5736 8.56096 45.4465 7.87696 45.4465H4.68262C3.43887 45.4465 2.75606 46.8948 3.54883 47.8545L9.92325 55.5715C11.2773 57.2096 13.802 58.0893 15.8648 57.579L17.8316 56.9555C17.1627 56.5985 16.5621 56.1309 16.1008 55.5715Z" fill="#EE5253"/>
<path d="M42.2612 82.3865C41.7349 81.3017 41.4677 80.1359 41.4677 78.9228C41.4677 77.6792 41.7486 76.4859 42.3025 75.3775L42.3536 75.2751L38.9761 70.2908L15.5857 81.2699L15.5841 81.2705C13.7013 82.1693 14.3794 85.0669 16.5163 84.9662L35.3472 84.0712L35.2062 83.8005C35.1445 83.6822 35.1146 83.5498 35.1196 83.4164C35.1245 83.2831 35.164 83.1533 35.2343 83.0398C35.3778 82.8035 35.6196 82.6675 35.8982 82.6675H42.3968L42.2612 82.3865Z" fill="#E4EAF8"/>
<path d="M25.5368 81.2702L25.5376 81.2697L41.3777 73.8347L38.9769 70.2902L15.5857 81.2697L15.5841 81.2702C13.7013 82.1691 14.3794 85.0667 16.5163 84.9659L25.1544 84.5556C24.1527 83.74 24.1251 81.9441 25.5366 81.2704L25.5368 81.2702Z" fill="#C7D2E5"/>
<path d="M40.2 59.8104L46.7766 67.0912L44.2978 72.2943C43.2128 73.069 42.3338 74.0974 41.7373 75.2897L32.5166 61.6797L40.2 59.8104Z" fill="#C7D2E5"/>
<path d="M40.5184 65.0373C39.6463 63.751 40.3262 61.9895 41.8367 61.6225L40.2002 59.8112L32.5166 61.6797L41.7375 75.2905C42.334 74.0979 43.213 73.0694 44.298 72.2944L44.7672 71.3094L40.5184 65.0373Z" fill="#AABCD6"/>
<path d="M72.6831 56.0256C72.4741 56.111 72.2651 56.1995 72.0554 56.2864L70.4425 51.4295L66.1761 48.6327C64.9554 47.8331 64.6259 46.2127 65.4398 45.0133C66.2548 43.8147 67.9042 43.4913 69.1241 44.2907L74.1573 47.5897C74.6515 47.9119 75.022 48.3919 75.2085 48.9516L76.6841 53.395C75.7556 54.3905 74.4599 55.2938 72.6831 56.0256ZM80.6788 66.1893L85.9255 82.276C86.3849 83.6852 85.615 85.2004 84.206 85.6596C83.9373 85.7481 83.6564 85.7932 83.3735 85.7932C82.2427 85.7932 81.1915 85.0729 80.8222 83.9407L75.9921 69.1297C77.3456 67.9778 78.9585 67.0057 80.6788 66.1895V66.1893Z" fill="#576574"/>
<path d="M74.4471 51.4296L70.1799 48.6327C68.9592 47.8331 68.6297 46.2128 69.4445 45.0134C69.5268 44.8921 69.6191 44.7821 69.7176 44.6792L69.124 44.2909C67.9041 43.4905 66.2547 43.8147 65.4398 45.0134C64.6258 46.2126 64.9555 47.8331 66.1762 48.6327L70.4424 51.4296L72.0553 56.2866C72.265 56.1987 72.474 56.111 72.6832 56.0249C73.7855 55.5718 74.702 55.0513 75.4609 54.4845L74.4471 51.4296ZM84.8262 83.9407L80.4797 70.613C80.1805 69.6968 80.5063 68.6851 81.2961 68.1335L81.3098 68.1243L80.6789 66.1896C78.9582 67.0065 77.3455 67.9778 75.992 69.1306L80.8221 83.9407C81.1914 85.0737 82.2428 85.7933 83.3734 85.7933C83.6488 85.7933 83.9297 85.7505 84.2059 85.6604C84.6565 85.5134 85.0599 85.249 85.3746 84.8944C85.1279 84.6178 84.9413 84.2931 84.8262 83.9407Z" fill="#3E4B5A"/>
<path d="M51.6945 71.3592C50.8946 71.104 50.06 70.9742 49.2203 70.9744C47.457 70.9744 45.6305 71.3416 44.2979 72.2938L47.75 65.0473C48.6687 63.1185 50.1985 61.5469 52.102 60.5766C56.4621 58.3539 64.36 54.3631 66.4932 53.5194C69.4863 52.3358 72.7432 56.2201 72.7432 56.2201C67.3629 58.4746 61.5967 61.4553 57.5029 63.6024C54.3779 65.2418 52.3994 67.9846 51.6943 71.359L51.6945 71.3592Z" fill="#E4EAF8"/>
<path d="M50.2289 66.9684C51.1479 65.0395 52.6779 63.468 54.5814 62.4977C58.9408 60.275 66.8389 56.2842 68.9721 55.441C70.1461 54.9772 71.3592 55.2932 72.4022 55.8477C71.4912 54.9063 68.9064 52.5657 66.4932 53.52C64.36 54.3631 56.4619 58.3539 52.102 60.5766C50.1985 61.5469 48.6687 63.1185 47.75 65.0473L44.2979 72.2944C45.4002 71.5063 46.8408 71.1203 48.3039 71.0096L50.2289 66.9684Z" fill="#C7D2E5"/>
<path d="M51.9047 74.2629C51.7679 74.2022 51.6517 74.103 51.5704 73.9774C51.4891 73.8517 51.4462 73.7051 51.4469 73.5555C51.4469 72.766 51.5285 71.9748 51.6895 71.2035L51.7262 71.0311L51.5576 70.9775C50.7386 70.7164 49.8841 70.5837 49.0244 70.584C44.4264 70.584 40.6865 74.3246 40.6865 78.9221C40.6865 80.1955 40.9664 81.4184 41.5188 82.5568L41.5723 82.6666H44.5096C44.749 82.6666 44.9748 82.7787 45.1275 82.974C45.7 83.7098 46.4442 84.2938 47.295 84.6748C48.1458 85.0558 49.0771 85.2221 50.0072 85.1592C52.7812 84.9752 55.0533 82.7498 55.2914 79.9826C55.5012 77.5428 54.14 75.2439 51.9047 74.2629Z" fill="#576574"/>
<path d="M51.3715 82.9748C51.2191 82.7794 50.9932 82.6673 50.7535 82.6673H49.5832C47.7531 82.6673 47.2211 81.0912 47.0945 80.5638C46.986 80.0233 46.931 79.4734 46.9305 78.922C46.9305 75.6193 48.8607 72.7589 51.6523 71.4103C51.6652 71.3416 51.6752 71.272 51.6897 71.2033L51.7264 71.031L51.5584 70.9775C50.7392 70.7167 49.8845 70.5842 49.0248 70.5847C44.4271 70.5847 40.6865 74.3246 40.6865 78.922C40.6865 80.1955 40.9666 81.4183 41.5189 82.5568L41.5725 82.6666H44.5098C44.75 82.6666 44.975 82.7787 45.1277 82.9748C45.6608 83.6595 46.3432 84.2133 47.1229 84.5941C47.9026 84.9749 48.759 85.1726 49.6268 85.172C49.7533 85.172 49.8801 85.1681 50.0076 85.1599C51.0076 85.0935 51.9406 84.7609 52.7387 84.2343C52.2167 83.8926 51.7547 83.467 51.3715 82.9748Z" fill="#3E4B5A"/>
<path d="M54.3702 76.714H54.3694C54.9196 77.6564 55.1995 78.7755 55.0965 79.9665C54.8668 82.6398 52.6719 84.7868 49.994 84.9646C48.0789 85.0919 46.3579 84.2366 45.2811 82.855C45.0952 82.6161 44.8127 82.472 44.5092 82.472H35.5073C34.7207 82.472 34.2592 83.3562 34.7084 84.0017L41.0088 93.0509C41.0985 93.1797 41.218 93.2849 41.357 93.3576C41.4961 93.4303 41.6507 93.4682 41.8077 93.4683H66.5948C66.833 93.4684 67.063 93.3811 67.241 93.2228C67.419 93.0646 67.5328 92.8465 67.5606 92.6099C67.7788 90.7667 68.4114 86.2173 69.7778 81.5152L54.3702 76.714Z" fill="#FF6B6B"/>
<path d="M47.9394 93.4683C47.6203 93.4683 47.3222 93.3118 47.1406 93.0509L40.8402 84.0009C40.3908 83.3564 40.8523 82.472 41.638 82.4712H35.5072C34.7212 82.4712 34.2591 83.3554 34.7084 84.0009L41.0087 93.0509C41.0985 93.1796 41.218 93.2847 41.3571 93.3574C41.4961 93.43 41.6507 93.4681 41.8076 93.4683H66.5947H47.9394ZM52.6718 84.0452C55.9478 86.2882 60.8566 84.2816 61.2281 79.9665C61.2609 79.5857 61.2503 79.2111 61.2066 78.8443L54.3701 76.714C54.9195 77.6564 55.1994 78.7755 55.0972 79.9665C54.9515 81.6595 54.0167 83.1404 52.6718 84.045V84.0452Z" fill="#EE5253"/>
<path d="M94.2447 58.3067C94.4607 58.3067 94.6729 58.3151 94.8826 58.3274L93.584 54.3256C93.2013 53.1486 92.6976 52.0144 92.0811 50.9413L87.8818 50.5301C87.243 50.4676 86.6257 50.2652 86.074 49.9371C85.5223 49.609 85.0496 49.1634 84.6896 48.6319L78.8967 40.0754L78.0469 40.5973C77.3273 41.0391 77.0336 41.9424 77.3662 42.7184C78.6168 45.6297 80.5949 52.654 72.5475 56.0256C67.5426 58.1221 62.3752 60.678 58.3828 62.7524C60.8281 62.7889 63.5105 63.3352 66.1717 64.4438C69.9672 66.0247 72.9848 68.4393 74.7906 71.0555C74.9317 70.8902 75.0772 70.7287 75.227 70.5711C79.4354 66.152 87.508 64.1372 92.3527 63.2895C90.3309 62.9217 88.8918 61.9833 88.8918 60.8817C88.8918 59.4596 91.2883 58.3067 94.2447 58.3067Z" fill="#FECA57"/>
<path d="M63.6342 63.2124C63.9193 63.0629 64.2154 62.9081 64.5152 62.7524H64.5145C64.5887 62.7133 64.7898 62.6098 64.8982 62.5532H64.899C68.8357 60.5155 73.8322 58.0557 78.6793 56.0249C83.0418 54.1975 84.457 51.2969 84.6402 48.5594L78.8967 40.0754L78.0469 40.5973C77.3273 41.0391 77.0336 41.9424 77.3662 42.7184C78.6168 45.6297 80.5949 52.654 72.5475 56.0256C67.5426 58.1221 62.3752 60.678 58.3828 62.7524C59.9225 62.776 61.5566 63.001 63.2197 63.4413C63.3563 63.3621 63.4945 63.2858 63.6342 63.2124Z" fill="#F4B537"/>
<path d="M87.6869 50.7255C87.0481 50.663 86.4308 50.4605 85.8791 50.1325C85.3274 49.8044 84.8547 49.3587 84.4947 48.8273L78.666 40.2175L80.3832 39.1632C80.7276 38.9518 81.1358 38.8692 81.5353 38.9302C81.9348 38.9913 82.2997 39.192 82.5652 39.4966L90.0451 48.0781C90.8731 49.0288 91.5981 50.0645 92.208 51.1679L87.6869 50.7255Z" fill="#8AC2FF"/>
<path d="M89.7443 48.9188C89.1055 48.8563 88.4883 48.6537 87.9366 48.3257C87.3849 47.9976 86.9122 47.552 86.5522 47.0206L81.0705 38.9237C80.8266 38.9532 80.5919 39.0349 80.3824 39.1634L78.665 40.2184L84.4945 48.8274C84.8543 49.3591 85.3269 49.8049 85.8786 50.133C86.4304 50.4612 87.0478 50.6635 87.6867 50.7257L92.2078 51.168C91.7918 50.4208 91.3235 49.704 90.8064 49.0227L89.7443 48.9188Z" fill="#54A0FF"/>
<path d="M59.5879 80.4342C57.7965 79.6881 56.1883 78.7451 54.8135 77.6801C54.5651 76.9639 54.1717 76.3067 53.6577 75.7496C53.1438 75.1925 52.5204 74.7474 51.8266 74.4422C51.655 74.3661 51.5094 74.2417 51.4073 74.0843C51.3053 73.9268 51.2513 73.7431 51.252 73.5554C51.252 69.2136 53.6576 65.2289 57.5027 63.2123C57.9094 62.9988 58.3336 62.7783 58.7678 62.5531C61.142 62.5539 63.7664 63.0705 66.3682 64.1539C70.2225 65.7597 73.2293 68.2752 74.8756 70.9586C72.4869 73.683 70.8229 77.8318 69.6877 81.8304C66.7449 82.3408 63.1447 81.9158 59.5879 80.4342Z" fill="#EE5253"/>
<path d="M51.8264 74.4422C52.5202 74.7474 53.1436 75.1925 53.6575 75.7496C54.1715 76.3067 54.5649 76.9639 54.8133 77.6801C56.1881 78.7451 57.7963 79.6879 59.5877 80.4342C60.0668 80.6333 60.5528 80.8155 61.0447 80.9805C61.1326 80.6578 61.1975 80.3213 61.2279 79.9666C61.434 77.5754 60.076 75.3713 57.9572 74.4422C57.7858 74.366 57.6403 74.2416 57.5383 74.0841C57.4363 73.9267 57.3823 73.743 57.3828 73.5555C57.3828 69.2182 59.7838 65.2381 63.6213 63.2193C61.9475 62.7721 60.3049 62.5539 58.7676 62.5539C58.3451 62.7718 57.9234 62.9912 57.5025 63.2123C53.6574 65.2289 51.251 69.2137 51.251 73.5555C51.2518 73.9385 51.4754 74.2879 51.8264 74.4422Z" fill="#D83941"/>
<path d="M15.5613 50.4714C16.9658 48.8296 19.3904 48.561 21.1734 49.7809C26.7529 53.5993 35.5236 54.6333 35.5236 54.6333L40.4469 60.0837L32.5168 61.6798C31.6545 61.8531 30.7645 61.8324 29.9111 61.6193C29.0578 61.4062 28.2626 61.0059 27.583 60.4475L15.5146 50.5272C15.5301 50.5083 15.5459 50.4897 15.5613 50.4714Z" fill="#3E4B5A"/>
<path d="M37.2996 60.4475L28.2748 53.028C25.8852 52.2848 23.2982 51.235 21.1732 49.7809C19.3902 48.5602 16.9656 48.8288 15.5619 50.4713C15.5459 50.4897 15.5307 50.508 15.5146 50.527L27.5828 60.4475C28.2624 61.0059 29.0576 61.4061 29.9109 61.6192C30.7643 61.8323 31.6543 61.853 32.5166 61.6797L37.5771 60.6612C37.4827 60.5926 37.3901 60.5213 37.2996 60.4475Z" fill="#374451"/>
<path d="M88.759 60.8665C88.759 59.425 91.0881 58.2571 93.9605 58.2571C94.2719 58.2571 94.5762 58.2717 94.873 58.2983L95.6475 60.6848C95.9885 61.7362 95.3002 62.8393 94.2061 62.9958C93.6248 63.0782 92.9412 63.1858 92.1852 63.32C90.1863 62.9561 88.7588 61.9948 88.7588 60.8665H88.759Z" fill="#576574"/>
<path d="M92.7299 60.8664C92.7299 59.9699 93.6324 59.1789 95.0059 58.7095L94.873 58.2982C94.5696 58.2709 94.2652 58.2572 93.9605 58.2572C91.0881 58.2572 88.7588 59.4252 88.7588 60.8664C88.7588 61.9947 90.1871 62.956 92.1852 63.3199C92.8569 63.2002 93.5307 63.0921 94.2062 62.9957C94.3514 62.9745 94.4933 62.9355 94.6289 62.8797C93.4707 62.4006 92.7299 61.6773 92.7299 60.8664Z" fill="#3E4B5A"/>
<path d="M94.7848 68.2058C93.0934 66.9035 91.2289 65.9193 89.253 65.2677C90.9382 64.873 92.6399 64.5523 94.3531 64.3064C96.3436 64.0226 97.6031 62.0131 96.9815 60.0943C94.8514 53.5322 94.2686 50.6246 91.0885 46.9764L83.6087 38.3956C83.1164 37.8283 82.4386 37.4545 81.6962 37.341C80.9537 37.2276 80.1952 37.3817 79.5559 37.776L77.2206 39.2104C75.887 40.029 75.3454 41.7258 75.9608 43.1577C76.569 44.5737 77.419 47.1838 76.778 49.6352L76.3616 48.3578C76.0768 47.4891 75.5093 46.7409 74.7495 46.2324L69.8048 42.9336C67.9365 41.6868 65.4011 42.1926 64.1539 44.062C62.9041 45.935 63.4083 48.4633 65.2822 49.7129L68.295 51.7227C68.1974 51.7109 68.0997 51.7004 68.0013 51.6934C61.3835 47.3457 57.2584 46.6055 54.682 45.9707C48.3908 44.4211 42.4414 42.9579 34.813 52.9211C32.563 52.5641 26.1894 51.3418 21.9398 48.4334C19.9333 47.0604 17.3652 47.1037 15.4716 48.4053L12.5792 45.7151C10.2043 43.5065 7.88571 43.843 4.62264 43.843C2.13847 43.843 0.778903 46.736 2.35898 48.6487L8.73395 56.3658C10.2439 58.1939 12.6357 59.1582 15.0466 58.8416L24.0927 66.3039C25.763 67.6862 27.8984 68.378 30.062 68.2378L35.012 67.9249L36.2899 69.8111L30.355 72.6445C27.1491 68.5148 22.2319 66.0834 16.9609 66.0834C7.60876 66.0826 0 73.6911 0 83.0434C0 92.3954 7.60876 100.004 16.9609 100.004C25.5438 100.004 32.6842 93.626 33.7729 85.2575L33.8325 85.2544L39.7465 93.7489C39.9711 94.0714 40.2703 94.3349 40.6186 94.5169C40.9669 94.6989 41.3541 94.794 41.7471 94.7942H51.6394C52.0279 94.7942 52.4005 94.6398 52.6752 94.3651C52.95 94.0904 53.1043 93.7178 53.1043 93.3293C53.1043 92.5198 52.4488 91.8645 51.6394 91.8645H42.0043L36.3883 83.7979H44.2121C48.0582 88.4114 55.531 86.2706 56.439 80.412C59.7707 82.2995 63.7945 83.4753 67.671 83.3532C67.0003 86.0708 66.448 89.0866 66.0993 91.8645H58.4759C57.6674 91.8645 57.0111 92.5205 57.0111 93.3293C57.0111 94.1381 57.6666 94.7942 58.4759 94.7942H66.5349C67.1319 94.7941 67.708 94.575 68.1542 94.1785C68.6004 93.7819 68.8856 93.2354 68.9558 92.6426C68.9611 92.5977 68.9679 92.551 68.9734 92.5059C70.0376 94.0846 71.3628 95.4914 72.8925 96.635C84.0108 104.948 100 96.9967 100 83.0432C100 78.6435 98.309 74.4734 95.3061 71.3324C95.6311 70.842 95.7581 70.2467 95.6614 69.6664C95.5647 69.0862 95.2515 68.5642 94.785 68.2058H94.7848ZM47.2029 69.3365L49.0125 65.5386C49.7953 63.9027 51.0933 62.569 52.7074 61.7422C53.9037 61.1326 66.3929 54.7277 67.4802 54.6225C68.2988 54.5439 69.1419 54.9674 69.8156 55.4396C67.9593 56.249 56.9769 61.2759 54.592 63.2033C52.6366 64.7836 51.1779 66.8938 50.3904 69.2814C49.3277 69.122 48.2084 69.1511 47.2029 69.3365ZM34.9036 62.5416C36.9635 62.1275 36.2592 62.2693 39.858 61.5455L44.9721 67.2072C44.3319 68.5513 43.701 69.8751 43.0707 71.1988C42.5635 71.5933 42.0401 72.1036 41.6723 72.5323C39.7856 69.7476 37.0817 65.7558 34.9036 62.5416ZM73.0534 57.2379C79.1325 54.691 81.1253 49.6541 79.269 43.6721L83.2219 49.5092C83.7014 50.2198 84.3322 50.8156 85.0689 51.2539C85.8057 51.6922 86.6303 51.9621 87.4836 52.0443L91.2219 52.4107C91.8758 53.732 92.091 54.5187 92.8006 56.7045C89.5612 57.0066 87.2342 58.6355 87.2342 60.7275C87.2342 61.4033 87.4661 62.0267 87.8911 62.5752C83.438 63.6787 78.4161 65.524 75.0028 68.5597C72.5165 65.4707 68.4079 62.7836 63.6068 61.5797C66.6005 60.1033 70.0368 58.4943 73.0534 57.2379ZM81.4001 40.3202C89.9602 50.1401 88.7653 48.759 89.1834 49.2672C87.7643 49.1285 86.5422 49.1879 85.6473 47.8664L80.6766 40.5262L81.0895 40.2729C81.1384 40.2425 81.1966 40.2305 81.2535 40.2392C81.3105 40.2478 81.3624 40.2766 81.4001 40.3202ZM93.9397 61.4062C93.3842 61.4849 92.7791 61.5795 92.1389 61.6894C90.8588 61.4117 90.2776 60.9218 90.1729 60.7265C90.3432 60.3924 91.586 59.6226 93.7352 59.5844L94.1944 60.9982C94.2088 61.0418 94.2134 61.0881 94.2079 61.1336C94.2025 61.1792 94.187 61.2231 94.1627 61.262C94.1384 61.301 94.1058 61.3341 94.0673 61.3591C94.0287 61.384 93.9852 61.4 93.9397 61.4062ZM79.4622 74.6974C78.9708 73.1915 79.2874 74.1626 77.9179 69.9642C78.5175 69.5193 79.1821 69.0913 79.9093 68.6831L84.4768 82.6884C84.5709 82.9771 84.5464 83.2913 84.4088 83.562C84.2712 83.8326 84.0317 84.0376 83.743 84.1317C83.6001 84.1787 83.4493 84.197 83.2992 84.1855C83.1492 84.174 83.0029 84.133 82.8688 84.0649C82.7346 83.9967 82.6153 83.9026 82.5176 83.7882C82.4199 83.6737 82.3458 83.5411 82.2995 83.3979L79.4622 74.6974ZM84.245 72.5292L82.5733 67.4029L82.8755 67.2718C86.1319 67.1544 89.3436 68.0584 92.0606 69.8574L84.245 72.5292ZM71.6794 50.8361C71.5777 50.5235 71.3734 50.2544 71.0995 50.0725L66.9081 47.2754C66.783 47.192 66.6755 47.0848 66.5918 46.9599C66.508 46.835 66.4498 46.6948 66.4203 46.5473C66.3908 46.3998 66.3906 46.248 66.4199 46.1005C66.4491 45.9529 66.5071 45.8126 66.5906 45.6875C66.7594 45.4351 67.0214 45.26 67.3192 45.2006C67.617 45.1411 67.9262 45.2022 68.179 45.3703L73.123 48.6692C73.3366 48.8121 73.4961 49.0225 73.5761 49.2668L74.7419 52.8402C74.1589 53.3469 73.5089 53.7648 72.8153 54.1195C72.7849 54.0898 72.7544 54.0617 72.7216 54.0312L71.6794 50.8361ZM53.9808 48.8151C56.5076 49.4375 58.9437 49.7701 64.1683 52.7807C60.8136 54.3416 54.6773 57.45 51.3769 59.1322C49.1981 60.2429 47.4188 62.0703 46.3674 64.2781L46.3354 64.3453L37.3618 54.4111C43.6918 46.2805 48.0414 47.3526 53.9808 48.8151ZM20.2849 50.8512C25.3341 54.3066 32.6583 55.573 34.7358 55.8746L37.5731 59.0162L32.1669 60.1041C31.5177 60.236 30.8472 60.2211 30.2045 60.0606C29.5617 59.9001 28.963 59.598 28.452 59.1763L17.8583 50.4682C18.6472 50.2256 19.5427 50.3424 20.2849 50.8512ZM10.9931 54.4998L4.61424 46.7865C4.61424 46.7819 4.61815 46.7735 4.61346 46.7729H4.62322C7.86579 46.7729 9.14918 46.5256 10.5841 47.86C15.6249 52.548 13.3445 50.5498 18.4257 54.7269C16.2894 55.4486 16.8952 55.2443 15.0474 55.8691C13.5558 56.2162 11.9697 55.6824 10.9931 54.4998ZM25.9573 64.0433L18.4165 57.8232C19.4259 57.4822 18.8148 57.6881 21.0913 56.9189L26.5921 61.4404C28.0378 62.6294 29.8807 63.2256 31.7489 63.1088C32.7087 64.5248 32.4149 64.0921 33.1046 65.1099C29.9331 65.3107 28.0257 65.7502 25.9573 64.0435V64.0433ZM14.9781 79.9856C13.8671 80.5159 13.1484 81.6542 13.1484 82.8856C13.1484 84.7137 14.6812 86.1844 16.5183 86.0954L24.3552 85.7153C23.255 88.7686 20.3323 90.9057 16.9607 90.9057C12.6259 90.9057 9.09879 87.3784 9.09879 83.0436C9.09879 76.58 16.5406 72.8562 21.7025 76.7753L14.9781 79.9856ZM30.7944 85.4026C29.6714 92.0647 23.8808 97.0741 16.9609 97.0741C9.22399 97.0741 2.92968 90.7805 2.92968 83.0436C2.92968 75.3066 9.22399 69.0132 16.9609 69.0132C18.9914 69.0114 20.9979 69.4514 22.8414 70.3026C24.6849 71.1538 26.3211 72.3958 27.6366 73.9425L24.5796 75.4021C17.8505 68.6775 6.16834 73.4161 6.16834 83.0436C6.16834 88.9944 11.0101 93.8354 16.9609 93.8354C21.9993 93.8354 26.3091 90.3579 27.4542 85.5651C28.8054 85.4987 28.0813 85.5339 30.7944 85.4026ZM35.4475 80.8677C34.445 80.8677 33.576 81.4757 33.203 82.3524L16.3765 83.1694C16.2148 83.1792 16.0788 83.0481 16.0788 82.8856C16.0788 82.7772 16.1421 82.6766 16.2398 82.63C16.7456 82.389 37.2793 72.5851 37.9516 72.2648L40.0092 75.3013C39.3073 77.0935 39.1868 79.0802 39.5827 80.8677H35.4475ZM42.6199 80.8677C41.1116 76.297 44.853 71.5513 49.7869 72.1611C49.7482 72.5783 49.7278 72.9971 49.726 73.4161C49.726 74.372 50.2859 75.2448 51.1609 75.6362C51.1663 75.6395 51.1719 75.6423 51.1777 75.6446C52.8691 76.3868 53.8603 78.2247 53.5293 80.0644C52.9547 83.2427 48.8311 84.7282 46.3133 81.7427C45.8449 81.1874 45.1727 80.8677 44.4494 80.8677H42.6199ZM55.9689 76.6241C55.3053 75.0595 54.064 73.7876 52.6609 73.1046C52.7258 70.9861 53.4519 68.9224 54.724 67.2462C56.2177 65.2732 57.839 64.5164 59.0566 63.8839C64.2576 64.0045 70.0507 66.7937 72.9925 70.7404C70.9234 73.4779 69.4837 77.0858 68.4888 80.3686C64.214 80.796 59.38 79.1464 55.9689 76.6241ZM83.0387 97.0739C76.9796 97.0739 71.6839 93.2653 69.7507 87.5592C70.6868 82.6772 72.4782 76.0655 75.5673 72.2044L76.3425 74.5816C68.3706 80.8727 72.8208 93.8352 83.0387 93.8352C87.2458 93.8352 91.0969 91.3625 92.8516 87.5356C92.9318 87.3607 92.9768 87.1718 92.9839 86.9795C92.9911 86.7872 92.9603 86.5954 92.8934 86.4151C92.8264 86.2347 92.7246 86.0693 92.5937 85.9282C92.4629 85.7872 92.3055 85.6733 92.1306 85.5931C91.9557 85.5129 91.7667 85.468 91.5745 85.4608C91.3822 85.4536 91.1904 85.4844 91.01 85.5513C90.8297 85.6183 90.6642 85.7201 90.5232 85.851C90.3822 85.9819 90.2683 86.1392 90.1881 86.3141C88.9096 89.1032 86.1036 90.9055 83.0387 90.9055C78.7038 90.9055 75.1774 87.3782 75.1774 83.0434C75.1774 80.9935 75.9618 79.0737 77.3374 77.6312L79.5139 84.3069C80.2159 86.4575 82.5161 87.6133 84.6516 86.9176C86.7932 86.2186 87.9604 83.9208 87.2624 81.78L85.2116 75.4925C87.6813 76.2015 89.6725 78.0858 90.4973 80.5524C90.5569 80.7366 90.6524 80.9071 90.7783 81.0541C90.9041 81.2011 91.0579 81.3217 91.2306 81.409C91.4034 81.4962 91.5917 81.5484 91.7848 81.5624C91.9778 81.5764 92.1717 81.5521 92.3553 81.4907C92.5388 81.4294 92.7084 81.3323 92.8542 81.205C93 81.0777 93.1192 80.9228 93.2048 80.7493C93.2904 80.5757 93.3407 80.3869 93.3529 80.1937C93.3651 80.0005 93.3389 79.8069 93.2758 79.6239C92.5056 77.3218 90.9823 75.3464 88.9516 74.0163L92.5953 72.7712C101.848 81.3763 95.7996 97.0739 83.0387 97.0739Z" fill="black"/>
<path d="M29.386 3.13741C19.1497 3.49118 10.9131 11.7279 10.5593 21.9641C10.1594 33.254 19.4804 42.575 30.7703 42.1751C41.0065 41.8136 49.2432 33.5847 49.597 23.3484C49.9969 12.0585 40.6758 2.73749 29.386 3.13741Z" fill="#FBD984"/>
<path d="M29.5084 6.59044C21.0795 6.88269 14.304 13.6581 14.0118 22.0871C13.6888 31.3851 21.3564 39.0526 30.6543 38.7296C39.0756 38.4297 45.851 31.6542 46.1433 23.2253C46.474 13.935 38.7987 6.25974 29.5084 6.59044Z" fill="#F0B972"/>
<path d="M29.6702 9.42066C22.6871 9.63599 17.0653 15.2578 16.8499 22.241C16.6192 29.847 22.8871 36.1149 30.4931 35.8841C37.4762 35.6688 43.0981 30.0469 43.3134 23.0638C43.5441 15.4655 37.2686 9.18994 29.6702 9.42066Z" fill="#FBD984"/>
<path d="M30.9008 21.4566C28.6551 20.526 27.7015 19.8569 27.7015 18.5187C27.7015 17.4882 28.4475 16.3038 30.4317 16.3038C32.0851 16.3038 33.1388 16.8729 33.6771 17.1806L34.3231 15.4809C33.5771 15.0426 32.5235 14.6273 30.97 14.5811V12.0817H29.3857V14.6811C27.017 15.0656 25.4943 16.6884 25.4943 18.834C25.4943 21.0797 27.117 22.2641 29.7472 23.2946C31.6545 24.0714 32.6619 24.9481 32.6619 26.3632C32.6619 27.8321 31.4238 28.8857 29.5934 28.8857C28.1475 28.8857 26.8094 28.3935 25.8788 27.7783L25.2559 29.5087C26.1557 30.1547 27.7015 30.6161 29.2012 30.6469V33.2463H30.8239V30.5623C33.4772 30.1239 34.8922 28.2166 34.8922 26.1786C34.8999 23.8791 33.5618 22.5409 30.9008 21.4566Z" fill="#E39A61"/>
</g>
<defs>
<clipPath id="clip0_1041_4074">
<rect width="100" height="100" fill="white"/>
</clipPath>
</defs>
</svg>
