<svg width="100" height="100" viewBox="0 0 100 100" fill="none" xmlns="http://www.w3.org/2000/svg">
<g clip-path="url(#clip0_1041_4567)">
<path d="M2.24414 4.53477V24.4104C2.24414 26.1059 3.61855 27.4803 5.31406 27.4803H63.7316C65.4272 27.4803 66.8016 26.1059 66.8016 24.4104V4.53477C66.8016 2.83926 65.4272 1.46484 63.7316 1.46484H5.31406C3.61855 1.46484 2.24414 2.83926 2.24414 4.53477Z" fill="#FEE8C7"/>
<path d="M63.7316 1.46484H58.0977C59.7932 1.46484 61.1676 2.83926 61.1676 4.53477V24.4104C61.1676 26.1059 59.7932 27.4803 58.0977 27.4803H63.7316C65.4271 27.4803 66.8016 26.1059 66.8016 24.4104V4.53477C66.8014 2.83926 65.427 1.46484 63.7316 1.46484Z" fill="#FECE85"/>
<path d="M80.0762 53.2389V94.1682C80.0762 94.4549 80.1402 94.738 80.2635 94.9969C80.3869 95.2557 80.5664 95.4838 80.7891 95.6645L83.7955 98.1051C84.139 98.3837 84.5678 98.5358 85.0101 98.5358C85.4523 98.5358 85.8811 98.3837 86.2246 98.1051L89.2311 95.6645C89.4538 95.4839 89.6334 95.2558 89.7567 94.9969C89.8801 94.7381 89.9441 94.4549 89.9441 94.1682V53.2389H80.0762Z" fill="#FEE8C7"/>
<path d="M95.8344 33.6396C95.2077 33.2005 94.5614 32.79 93.8977 32.4092C93.3145 32.0754 92.5672 32.3002 92.2799 32.9076C90.9928 35.6307 88.2221 37.5148 85.0102 37.5148C81.7982 37.5148 79.0277 35.6307 77.7404 32.9076C77.4533 32.3002 76.7059 32.0754 76.1227 32.4092C75.4589 32.79 74.8127 33.2005 74.1859 33.6396C72.8693 34.5601 72.1055 36.0834 72.1055 37.6898V57.7C72.1055 59.3211 73.4195 60.6351 75.0406 60.6351H94.9797C96.6008 60.6351 97.9148 59.3211 97.9148 57.7V37.6898C97.9148 36.0832 97.151 34.5601 95.8344 33.6396Z" fill="#7A8C98"/>
<path d="M95.8344 33.6396C95.2077 33.2005 94.5614 32.79 93.8977 32.4092C93.3145 32.0754 92.5672 32.3002 92.2799 32.9076C91.9851 33.5276 91.6121 34.1073 91.1701 34.6326C91.8389 35.4949 92.2096 36.5719 92.2096 37.6898V57.7002C92.2096 59.3213 90.8955 60.6353 89.2744 60.6353H94.9797C96.6008 60.6353 97.9148 59.3213 97.9148 57.7002V37.6898C97.9148 36.0832 97.151 34.5601 95.8344 33.6396Z" fill="#596C76"/>
<path d="M7.84805 60.9573L4.1334 62.312C3.53319 62.5307 3.01479 62.9288 2.64853 63.4523C2.28226 63.9757 2.08585 64.5991 2.08594 65.2379C2.08594 66.9581 3.47969 68.3522 5.1998 68.3522H15.8996V64.9053L10.6795 61.3166C10.2703 61.0355 9.79984 60.8562 9.30733 60.7937C8.81482 60.7312 8.3145 60.7873 7.84805 60.9573ZM62.8113 60.9573L66.526 62.312C67.1263 62.5307 67.6448 62.9287 68.0113 63.4521C68.3777 63.9756 68.5743 64.599 68.5744 65.2379C68.5744 66.9581 67.1797 68.3522 65.4596 68.3522H54.7605V64.9053L59.9811 61.3166C60.39 61.0355 60.8603 60.8562 61.3526 60.7937C61.8449 60.7312 62.3451 60.7873 62.8113 60.9573Z" fill="#F07281"/>
<path d="M8.04492 86.391V96.5563C8.04492 97.6492 8.93086 98.5352 10.0238 98.5352H14.4201C15.5131 98.5352 16.399 97.6494 16.399 96.5563V86.391H8.04492ZM53.9049 86.0889V96.5064C53.9049 97.6268 54.8135 98.5354 55.9338 98.5354H60.4385C61.5588 98.5354 62.4674 97.6268 62.4674 96.5064V86.0889H53.9049Z" fill="#7A8C98"/>
<path d="M59.4792 66.7436L56.8249 57.6531C55.6015 53.4635 51.7602 50.5838 47.3954 50.5838H23.2647C18.9001 50.5838 15.0595 53.4633 13.8358 57.6531L11.1807 66.744C11.0225 67.2867 10.7506 67.7897 10.3831 68.2193L5.44149 73.9947C4.9401 74.5807 4.57441 75.2702 4.37061 76.014C4.1668 76.7578 4.12991 77.5374 4.26258 78.2971L5.98934 88.1811C6.08143 88.7082 6.35649 89.1859 6.76613 89.5301C7.17577 89.8744 7.69371 90.0631 8.22879 90.0631H62.4325C62.9676 90.0631 63.4855 89.8744 63.8951 89.5301C64.3048 89.1859 64.5798 88.7081 64.672 88.1811L66.3987 78.2971C66.5314 77.5374 66.4945 76.7578 66.2907 76.0141C66.0869 75.2703 65.7212 74.5808 65.2198 73.9949L60.2782 68.2195C59.9102 67.7898 59.6378 67.2866 59.4792 66.7436Z" fill="#F07281"/>
<path d="M13.1046 81.3939H4.80282L4.26161 78.2967C4.12894 77.537 4.16583 76.7574 4.36963 76.0136C4.57344 75.2698 4.93912 74.5803 5.44051 73.9943L6.8325 72.3672L14.0778 76.0117C14.4365 76.1921 14.7379 76.4687 14.9486 76.8104C15.1592 77.1522 15.2708 77.5458 15.2708 77.9473V79.2272C15.2712 80.424 14.3011 81.3939 13.1046 81.3939Z" fill="#FED402"/>
<path d="M65.2195 73.9945L60.2779 68.2192C59.9102 67.7894 59.6379 67.2865 59.4793 66.7436L56.825 57.6531C55.6016 53.4635 51.7604 50.5838 47.3955 50.5838H41.0869C45.4516 50.5838 49.2928 53.4637 50.5162 57.6533L53.1707 66.7434C53.3293 67.2864 53.6016 67.7895 53.9693 68.2193L58.9109 73.9947C59.4123 74.5806 59.7779 75.2701 59.9816 76.0138C60.1853 76.7575 60.2222 77.5371 60.0895 78.2967L58.3629 88.1807C58.2708 88.7078 57.9957 89.1855 57.5861 89.5298C57.1765 89.874 56.6585 90.0627 56.1234 90.0627H62.432C62.9671 90.0627 63.485 89.874 63.8947 89.5297C64.3043 89.1855 64.5794 88.7078 64.6715 88.1807L66.3982 78.2967C66.5309 77.537 66.4941 76.7575 66.2903 76.0137C66.0865 75.27 65.7209 74.5805 65.2195 73.9945Z" fill="#EB5569"/>
<path d="M48.1365 87.4606L45.817 82.0565C45.6263 81.6122 45.3094 81.2337 44.9057 80.9677C44.502 80.7018 44.0291 80.5601 43.5457 80.5602H27.1137C26.6302 80.5601 26.1574 80.7019 25.7537 80.9678C25.35 81.2338 25.0332 81.6123 24.8424 82.0565L22.5234 87.4606H48.1365ZM59.4363 66.5969L56.8246 57.6531C55.6012 53.4635 51.76 50.5838 47.3951 50.5838H23.2645C18.8998 50.5838 15.0592 53.4633 13.8355 57.6531L11.2236 66.5969H59.4363Z" fill="#7A8C98"/>
<path d="M50.5166 57.6533L53.1281 66.5969H59.4367L56.825 57.6531C55.6016 53.4635 51.7604 50.5838 47.3955 50.5838H41.0869C45.452 50.5836 49.2932 53.4635 50.5166 57.6533Z" fill="#596C76"/>
<path d="M57.5555 81.3939H65.857L66.3982 78.2967C66.5309 77.537 66.4941 76.7574 66.2903 76.0137C66.0865 75.2699 65.7208 74.5804 65.2193 73.9945L63.827 72.3674L56.5816 76.0119C56.223 76.1923 55.9215 76.4688 55.7109 76.8106C55.5002 77.1524 55.3887 77.546 55.3887 77.9475V79.2273C55.3889 80.424 56.359 81.3939 57.5555 81.3939Z" fill="#FED402"/>
<path d="M59.5484 81.3939H65.857L66.3982 78.2967C66.5309 77.537 66.4941 76.7574 66.2903 76.0137C66.0865 75.2699 65.7208 74.5804 65.2193 73.9945L63.827 72.3674L59.3633 74.6127C60.0529 75.7085 60.3116 77.0211 60.0893 78.2967L59.5484 81.3939Z" fill="#FDB441"/>
<path d="M86.4082 55.3904H83.6127C81.0678 55.3904 79.0049 53.3273 79.0049 50.7826V47.4115C79.0049 44.8666 81.068 42.8037 83.6127 42.8037H86.4082C88.9531 42.8037 91.016 44.8668 91.016 47.4115V50.7826C91.0162 53.3275 88.9531 55.3904 86.4082 55.3904Z" fill="#FED402"/>
<path d="M79.0049 49.097V50.7826C79.0049 53.3275 81.068 55.3904 83.6127 55.3904H86.4082C88.9531 55.3904 91.016 53.3273 91.016 50.7826V49.097H79.0049Z" fill="#596C76"/>
<path d="M64.3385 92.2926H6.32188C4.87715 92.2926 3.70605 91.1215 3.70605 89.6767C3.70605 88.232 4.87715 87.0609 6.32188 87.0609H64.3385C65.7832 87.0609 66.9543 88.232 66.9543 89.6767C66.9543 91.1213 65.7832 92.2926 64.3385 92.2926Z" fill="#FAF6F6"/>
<path d="M66.8008 19.5508H79.9727C82.7539 19.5508 85.0098 21.8066 85.0098 24.5879V32.2539M89.9437 90.3203V94.1682C89.944 94.455 89.88 94.7382 89.7567 94.9971C89.6333 95.256 89.4536 95.484 89.2307 95.6645L86.2242 98.1051C85.8803 98.3828 85.4517 98.5343 85.0097 98.5343C84.5676 98.5343 84.139 98.3828 83.7951 98.1051L80.7887 95.6645C80.5658 95.484 80.3861 95.2559 80.2628 94.997C80.1394 94.7381 80.0755 94.4549 80.0758 94.1682V60.6348M89.9434 83.4844V60.6348" stroke="black" stroke-width="2.92969" stroke-miterlimit="10" stroke-linecap="round" stroke-linejoin="round"/>
<path d="M35.5775 20.7688V8.20002L44.0752 20.5051C44.2328 20.7326 44.4016 20.6211 44.4016 20.3444L44.284 8.17639M29.9867 8.29143H24.7293V20.7688H29.9867M29.599 14.5301H24.7293M49.7686 8.17639H56.7227M53.2314 8.57854V20.7688M13.8408 14.7586L19.1303 20.7688M12.3223 8.17639V20.7688M95.8342 33.6397C95.2075 33.2006 94.5612 32.79 93.8975 32.4092C93.3143 32.0754 92.567 32.3002 92.2797 32.9076C90.9926 35.6307 88.2219 37.5149 85.01 37.5149C81.798 37.5149 79.0275 35.6307 77.7402 32.9076C77.4531 32.3002 76.7057 32.0754 76.1225 32.4092C75.4587 32.79 74.8125 33.2006 74.1857 33.6397C72.8691 34.5602 72.1053 36.0834 72.1053 37.6899V57.7C72.1053 59.3211 73.4193 60.6352 75.0404 60.6352H94.9795C96.6006 60.6352 97.9146 59.3211 97.9146 57.7V37.6899C97.9146 36.0832 97.1508 34.5602 95.8342 33.6397ZM19.1303 11.449C19.1303 13.2565 17.5455 14.7217 15.6725 14.7217C14.7436 14.7217 12.3379 14.7362 12.3379 14.7362V8.17639H15.6725C17.5455 8.17639 19.1303 9.64163 19.1303 11.449Z" stroke="black" stroke-width="2.92969" stroke-miterlimit="10" stroke-linecap="round" stroke-linejoin="round"/>
<path d="M9.6498 1.46484H5.31387C3.61836 1.46484 2.24395 2.83926 2.24395 4.53477V24.4104C2.24395 26.1059 3.61836 27.4803 5.31387 27.4803H63.7315C65.427 27.4803 66.8014 26.1059 66.8014 24.4104V4.53477C66.8014 2.83926 65.427 1.46484 63.7315 1.46484H16.4857M12.4162 62.5117L10.6795 61.3168C10.2702 61.0359 9.79975 60.8568 9.30728 60.7943C8.81482 60.7318 8.31455 60.7877 7.84805 60.9574L4.1334 62.3121C3.53325 62.531 3.01492 62.9291 2.64867 63.4525C2.28242 63.9759 2.08597 64.5993 2.08594 65.2381C2.08594 66.9568 3.48105 68.3523 5.1998 68.3523H10.2697M60.3908 68.3522H65.4594C67.1801 68.3522 68.5742 66.9566 68.5742 65.2379C68.5742 63.9293 67.7563 62.7592 66.5258 62.3119L62.8111 60.9572C62.3448 60.7876 61.8447 60.7317 61.3524 60.7942C60.8601 60.8567 60.3898 61.0358 59.9807 61.3166L58.2424 62.5115M16.399 92.293V96.5563C16.399 97.648 15.5119 98.5352 14.4201 98.5352H10.0236C8.92988 98.5352 8.04473 97.648 8.04473 96.5563V92.293M62.467 92.293V96.5062C62.467 97.6273 61.5592 98.5352 60.4381 98.5352H55.9334C55.6669 98.5353 55.4031 98.4828 55.1569 98.3809C54.9106 98.279 54.6869 98.1296 54.4985 97.9411C54.3101 97.7527 54.1606 97.529 54.0587 97.2828C53.9568 97.0366 53.9044 96.7727 53.9045 96.5062V92.293" stroke="black" stroke-width="2.92969" stroke-miterlimit="10" stroke-linecap="round" stroke-linejoin="round"/>
<path d="M64.8601 87.1113L66.3984 78.2967C66.5309 77.537 66.4939 76.7575 66.2901 76.0138C66.0864 75.27 65.7208 74.5805 65.2195 73.9945L60.2779 68.2192C59.9102 67.7894 59.638 67.2864 59.4793 66.7436L56.825 57.6531C55.6023 53.4637 51.7607 50.5838 47.3955 50.5838H23.265C18.9017 50.5838 15.0588 53.4637 13.8361 57.6531L11.181 66.744C11.0227 67.2867 10.7508 67.7896 10.3834 68.2193L5.44177 73.9947C4.94012 74.5805 4.57427 75.2701 4.37046 76.0139C4.16664 76.7577 4.1299 77.5374 4.26287 78.2971L5.80193 87.1117" stroke="black" stroke-width="2.92969" stroke-miterlimit="10" stroke-linecap="round" stroke-linejoin="round"/>
<path d="M22.6957 87.0605L24.8426 82.0564C25.2332 81.1482 26.1256 80.5602 27.1139 80.5602H43.5457C44.534 80.5602 45.4283 81.1482 45.817 82.0564L47.9652 87.0605M11.2238 66.5969H59.4365M4.80332 81.3939H13.1049C14.3016 81.3939 15.2715 80.4238 15.2715 79.2273V77.9475C15.2715 77.1287 14.81 76.3799 14.0785 76.0119L6.8332 72.3674M63.8271 72.3674L56.5818 76.0119C56.2232 76.1923 55.9217 76.4689 55.7111 76.8106C55.5004 77.1524 55.3889 77.546 55.3889 77.9475V79.2273C55.3889 80.424 56.359 81.3939 57.5555 81.3939H65.857M91.016 49.0971H79.0047M76.7992 32.2578C82.2738 28.8535 87.7465 28.8535 93.2211 32.2578M86.408 55.3904H83.6125C81.0676 55.3904 79.0047 53.3273 79.0047 50.7826V47.4115C79.0047 44.8666 81.0678 42.8037 83.6125 42.8037H86.408C88.9529 42.8037 91.0158 44.8668 91.0158 47.4115V50.7826C91.016 53.3275 88.9529 55.3904 86.408 55.3904ZM64.3385 92.2926H6.32188C4.87715 92.2926 3.70605 91.1215 3.70605 89.6768C3.70605 88.232 4.87715 87.0609 6.32188 87.0609H64.3385C65.7832 87.0609 66.9543 88.232 66.9543 89.6768C66.9543 91.1213 65.7832 92.2926 64.3385 92.2926Z" stroke="black" stroke-width="2.92969" stroke-miterlimit="10" stroke-linecap="round" stroke-linejoin="round"/>
</g>
<defs>
<clipPath id="clip0_1041_4567">
<rect width="100" height="100" fill="white"/>
</clipPath>
</defs>
</svg>
