<svg width="100" height="83" viewBox="0 0 100 83" fill="none" xmlns="http://www.w3.org/2000/svg">
<path fill-rule="evenodd" clip-rule="evenodd" d="M3.36133 37.9475H16.7156C17.8465 37.9475 18.7668 38.8678 18.7668 39.9987C18.7668 41.1295 17.8465 42.0498 16.7156 42.0498H3.36133C2.23047 42.0498 1.30469 41.1295 1.30469 39.9987C1.30469 38.8678 2.23027 37.9475 3.36133 37.9475ZM4.54199 73.1211H76.3584L78.077 48.2916H2.82344L4.54199 73.1211Z" fill="#FD4755"/>
<path fill-rule="evenodd" clip-rule="evenodd" d="M4.54199 73.1212H19.8865V77.1956C19.8865 79.4407 18.0516 81.27 15.8121 81.27H8.6166C6.37695 81.27 4.54219 79.4407 4.54219 77.1956L4.54199 73.1212Z" fill="#407093"/>
<path fill-rule="evenodd" clip-rule="evenodd" d="M40.448 26.2008H20.8518C18.7285 26.2008 16.9047 27.1875 15.724 28.9559L2.82422 48.2916H78.0777L65.1779 28.9559C63.9971 27.1875 62.1732 26.2008 60.0445 26.2008H40.448Z" fill="#7FE6FA"/>
<path fill-rule="evenodd" clip-rule="evenodd" d="M40.4479 66.918H29.1391L27.1877 62.2504L25.2363 57.5883H55.6648L53.7135 62.2504L51.7621 66.918H45.4426H40.4479Z" fill="#92160E"/>
<path fill-rule="evenodd" clip-rule="evenodd" d="M8.55078 52.7155L18.8008 55.0715L18.7398 60.166L8.55078 56.4741V52.7155ZM72.3457 52.7155L62.0957 55.0715L62.1623 60.166L72.3457 56.4741V52.7155Z" fill="#FEC804"/>
<path fill-rule="evenodd" clip-rule="evenodd" d="M61.0146 73.1212H76.3592V77.1956C76.3592 79.4407 74.5242 81.27 72.2848 81.27H65.0893C62.8496 81.27 61.0148 79.4407 61.0148 77.1956V73.1212H61.0146Z" fill="#407093"/>
<path fill-rule="evenodd" clip-rule="evenodd" d="M72.9053 48.2916H78.0773L65.1775 28.9559C63.9967 27.1875 62.1729 26.2008 60.0441 26.2008H54.8721C57.0008 26.2008 58.8246 27.1875 60.0055 28.9559L72.9053 48.2916Z" fill="#5ADFFA"/>
<path fill-rule="evenodd" clip-rule="evenodd" d="M68.6867 73.1212V81.2702H72.2846C74.5242 81.2702 76.359 79.4409 76.359 77.1958V73.1214H68.6867V73.1212ZM12.2148 73.1212V81.2702H15.8125C18.0521 81.2702 19.8869 79.4409 19.8869 77.1958V73.1214H12.2148V73.1212Z" fill="#144F87"/>
<path fill-rule="evenodd" clip-rule="evenodd" d="M76.5477 25.968H91.1549C95.2404 25.968 98.5887 29.3163 98.5887 33.4018V47.5268C98.5887 51.3407 95.6838 54.5061 91.9809 54.9163V81.2702H75.4557V54.8831C71.8746 54.3508 69.1084 51.2465 69.1084 47.5268V33.4018C69.1082 29.3163 72.4566 25.968 76.5477 25.968Z" fill="#64B9FC"/>
<path fill-rule="evenodd" clip-rule="evenodd" d="M82.2402 22.5532H85.9268L87.2518 36.8332L84.0863 41.2293L80.9209 36.8332L82.2402 22.5532Z" fill="#E24242"/>
<path fill-rule="evenodd" clip-rule="evenodd" d="M84.0861 5.34595C88.5986 5.34595 92.2572 9.88618 92.2572 15.485C92.2572 21.0895 88.5984 25.6297 84.0861 25.6297C79.5736 25.6297 75.915 21.0895 75.915 15.485C75.915 9.88618 79.5736 5.34595 84.0861 5.34595Z" fill="#FFCEBF"/>
<path fill-rule="evenodd" clip-rule="evenodd" d="M75.9981 16.9321C68.9301 11.2998 74.5623 0.844765 84.4574 1.33266C90.644 1.63754 95.866 5.37387 94.6963 12.1979C94.1086 14.6592 93.244 16.2059 92.1574 17.0373C92.285 12.4196 91.3535 9.80863 89.8514 8.30082C84.524 14.3709 74.8451 7.63559 75.9981 16.9321Z" fill="#1A5B96"/>
<path fill-rule="evenodd" clip-rule="evenodd" d="M75.4551 51.7897H91.9803V81.2709H75.4551V51.7897Z" fill="#C97628"/>
<path fill-rule="evenodd" clip-rule="evenodd" d="M51.8563 26.2008C49.1232 34.516 41.3014 40.5198 32.0715 40.5198C24.6652 40.5198 18.1684 36.6614 14.4707 30.8408L15.7236 28.9561C16.8988 27.1821 18.7227 26.201 20.8514 26.201H51.8563V26.2008Z" fill="#5ADFFA"/>
<path fill-rule="evenodd" clip-rule="evenodd" d="M32.0717 38.0584C42.183 38.0584 50.4318 29.8096 50.4318 19.6928C50.4318 9.58147 42.183 1.33264 32.0717 1.33264C21.9547 1.33264 13.7061 9.58147 13.7061 19.6928C13.7061 29.8096 21.9549 38.0584 32.0717 38.0584Z" fill="#FFD400"/>
<path fill-rule="evenodd" clip-rule="evenodd" d="M32.0715 1.33246C42.2105 1.33246 50.4316 9.55355 50.4316 19.6926C50.4316 29.8373 42.2105 38.0582 32.0715 38.0582C31.5727 38.0582 31.0848 38.036 30.6025 37.9973C40.0598 37.2489 47.4992 29.3438 47.4992 19.6926C47.4992 10.0469 40.0598 2.13617 30.6025 1.3934C31.0912 1.35344 31.5812 1.33312 32.0715 1.33246Z" fill="#EBB400"/>
<path d="M55.6574 56.1948H25.2682C25.0428 56.1947 24.821 56.2503 24.6224 56.3566C24.4237 56.4629 24.2544 56.6167 24.1296 56.8043C24.0047 56.9918 23.9281 57.2073 23.9066 57.4316C23.8852 57.6559 23.9194 57.882 24.0064 58.0899L27.9043 67.4081C28.0084 67.6568 28.1837 67.8692 28.4081 68.0186C28.6326 68.1679 28.8962 68.2477 29.1658 68.2477H51.76C52.0296 68.2477 52.2932 68.1679 52.5176 68.0186C52.7421 67.8692 52.9174 67.6568 53.0215 67.4081L56.9193 58.0897C57.0062 57.8818 57.0404 57.6558 57.0188 57.4315C56.9973 57.2073 56.9207 56.9918 56.7958 56.8043C56.6709 56.6168 56.5017 56.4631 56.3031 56.3567C56.1045 56.2504 55.8827 56.1948 55.6574 56.1948ZM50.8498 65.5126H30.076L27.3221 58.9299H53.6037L50.8498 65.5126ZM19.1467 53.7161L8.90996 51.3629C8.70956 51.3169 8.50135 51.3166 8.30083 51.3622C8.10031 51.4077 7.91264 51.4979 7.75177 51.6259C7.5909 51.754 7.46098 51.9167 7.37168 52.1019C7.28237 52.2872 7.23597 52.4901 7.23594 52.6958V56.4495C7.23596 56.7304 7.32251 57.0046 7.48382 57.2346C7.64513 57.4646 7.87336 57.6394 8.1375 57.7352L18.3135 61.4225C18.5187 61.4968 18.7388 61.5209 18.9552 61.4928C19.1717 61.4647 19.3782 61.3852 19.5577 61.2609C19.7372 61.1367 19.8843 60.9713 19.9868 60.7786C20.0893 60.5859 20.1442 60.3714 20.1469 60.1532L20.2078 55.0653C20.2115 54.7531 20.1082 54.449 19.9152 54.2035C19.7222 53.9581 19.451 53.7861 19.1467 53.7161ZM17.4352 58.195L9.97109 55.4903V54.4131L17.4598 56.1344L17.4352 58.195ZM91.1016 24.6206H89.8525C91.6393 22.9536 92.9242 20.5395 93.3812 17.7678C94.5441 16.6708 95.3939 14.9583 95.9693 12.5538C95.9762 12.5251 95.982 12.4958 95.9873 12.4665C96.5225 9.34068 95.8779 6.53306 94.1234 4.34732C92.0734 1.79361 88.5584 0.215872 84.4809 0.0184115C77.9682 -0.298971 73.5494 3.53931 72.0561 7.48892C70.6447 11.2219 71.6303 14.9922 74.6853 17.6778C75.1295 20.4868 76.4225 22.9356 78.2295 24.6206H76.5133C72.5322 24.6206 69.1621 27.2778 68.0809 30.9102L66.298 28.2172C64.8793 26.0758 62.5953 24.8477 60.0312 24.8477H51.1207C51.5715 23.1762 51.7995 21.4524 51.7988 19.7211C51.7988 8.8563 42.9568 0.0168491 32.0891 0.0168491C21.2242 0.0168491 12.385 8.8563 12.385 19.7211C12.385 22.8696 13.1285 25.8471 14.4473 28.4897L9.08711 36.5795H3.41602C1.53242 36.5795 0 38.1145 0 40.0012C0 41.8848 1.53262 43.4172 3.41602 43.4172H4.52637L1.75176 47.5168L1.75312 47.5178C1.5816 47.7703 1.49957 48.073 1.52012 48.3776L3.23301 73.1284V77.1502C3.23301 80.1481 5.67188 82.587 8.66992 82.587H15.8562C18.8541 82.587 21.293 80.1481 21.293 77.1502V74.4485H59.6326V77.1502C59.6326 80.1481 62.0717 82.587 65.0695 82.587H72.2557C73.0103 82.587 73.7414 82.4305 74.4127 82.1393C74.5404 82.2803 74.6963 82.3929 74.8702 82.47C75.0441 82.5471 75.2322 82.587 75.4225 82.587H91.9209C92.2836 82.587 92.6314 82.4429 92.8879 82.1864C93.1444 81.9299 93.2885 81.5821 93.2885 81.2194V56.0358C97.1283 55.0524 99.8934 51.5838 99.8934 47.5192V33.4124C99.8935 28.5645 95.9494 24.6206 91.1016 24.6206ZM83.165 26.9672C83.4543 26.9993 83.7467 27.018 84.0428 27.018C84.3371 27.018 84.6279 26.9995 84.9156 26.9676L85.7951 36.4508L84.0426 38.8877L82.29 36.4506L83.165 26.9672ZM74.6145 8.45611C75.7109 5.55572 78.9334 2.73482 83.7316 2.73482C83.934 2.73482 84.1396 2.7397 84.3475 2.75005C87.6447 2.90962 90.4307 4.11587 91.9906 6.05923C93.2512 7.62954 93.6912 9.61509 93.299 11.9614C93.2585 12.1286 93.2157 12.2953 93.1705 12.4614C92.7678 10.2653 91.9719 8.58423 90.7711 7.37466C90.6387 7.24189 90.4805 7.13762 90.3064 7.06826C90.1322 6.9989 89.9456 6.96591 89.7582 6.97134C89.5707 6.97718 89.3865 7.0215 89.2169 7.10153C89.0473 7.18156 88.896 7.2956 88.7723 7.43657C86.8109 9.67349 84.0982 9.84185 81.475 10.0045C79.1568 10.1485 76.9672 10.2844 75.5992 11.9317C75.2406 12.3635 74.9705 12.8713 74.7879 13.4602C74.0271 11.9338 73.9521 10.2077 74.6145 8.45611ZM77.2496 15.5188C77.2496 15.3366 77.2496 15.1647 77.2584 15.01V14.9967C77.3143 14.411 77.4621 13.9694 77.7033 13.6792C78.3162 12.9411 79.8586 12.8452 81.6445 12.7344C84.1211 12.5807 87.1176 12.3946 89.6322 10.386C90.4457 11.8549 90.8084 14.0225 90.7379 16.953C90.2998 20.375 88.3221 23.1348 85.7562 23.9997C85.737 24.0054 85.7178 24.0116 85.6988 24.0182C85.1642 24.1933 84.6052 24.2827 84.0426 24.2833C83.4619 24.2833 82.898 24.1883 82.3596 24.0106C82.3516 24.0081 82.3439 24.0051 82.3359 24.0028C79.4137 23.0233 77.2496 19.5913 77.2496 15.5188ZM70.949 54.4176V55.4905L63.4883 58.1954L63.4615 56.1348L70.949 54.4176ZM61.774 53.7159C61.4693 53.7858 61.1977 53.9579 61.0046 54.2037C60.8114 54.4495 60.7082 54.7541 60.7123 55.0667L60.7787 60.1545C60.7832 60.5142 60.9293 60.8576 61.1853 61.1102C61.4413 61.3628 61.7866 61.5044 62.1463 61.5042C62.3031 61.5042 62.4607 61.477 62.6123 61.4221L72.7828 57.7348C73.0469 57.639 73.2751 57.4643 73.4364 57.2343C73.5976 57.0043 73.6842 56.7302 73.6842 56.4493V55.8389C73.8066 55.8809 73.9301 55.9208 74.0549 55.9573V71.7133H5.87676L4.3498 49.6508H67.9826C68.1994 50.4997 68.5419 51.3115 68.9988 52.059L61.774 53.7159ZM32.0889 2.75181C41.4488 2.75181 49.0635 10.3641 49.0635 19.7209C49.0635 29.0778 41.4488 36.6901 32.0889 36.6901C22.7322 36.6901 15.1199 29.0778 15.1199 19.7209C15.1199 10.3641 22.7322 2.75181 32.0889 2.75181ZM32.0889 39.4251C40.1627 39.4251 47.117 34.5458 50.16 27.5825H60.0312C61.6857 27.5825 63.1016 28.3442 64.0178 29.727L67.7158 35.3129V46.9155H5.46094L8.24297 42.8043L16.0045 31.0901C19.5771 36.1297 25.4553 39.4251 32.0889 39.4251ZM2.73496 40.0008C2.73496 39.6288 3.04687 39.3143 3.41582 39.3143H7.27481L6.36875 40.6817H3.41602C3.04688 40.6817 2.73496 40.3698 2.73496 40.0008ZM18.5578 77.1502C18.5578 78.6399 17.3459 79.8518 15.8562 79.8518H8.66992C7.18008 79.8518 5.96816 78.6399 5.96816 77.1502V74.4485H18.5578V77.1502ZM65.0695 79.8518C63.5797 79.8518 62.3678 78.6399 62.3678 77.1502V74.4485H74.0551V79.1541C73.5625 79.5997 72.9281 79.8518 72.2557 79.8518H65.0695ZM90.5533 79.8518H85.2611L85.067 63.6858C85.058 62.9307 84.4463 62.3307 83.6832 62.3348C83.3206 62.3392 82.9745 62.4874 82.7212 62.7469C82.4678 63.0064 82.3279 63.356 82.3322 63.7186L82.526 79.8518H76.7902V53.1444H90.5535V79.8518H90.5533ZM97.1584 47.5192C97.1584 50.0725 95.5738 52.2827 93.2887 53.167V39.436C93.2887 39.0733 93.1446 38.7254 92.8881 38.469C92.6316 38.2125 92.2838 38.0684 91.9211 38.0684C91.5584 38.0684 91.2105 38.2125 90.9541 38.469C90.6976 38.7254 90.5535 39.0733 90.5535 39.436V50.4092H76.7902V39.436C76.7902 39.0733 76.6461 38.7254 76.3897 38.469C76.1332 38.2125 75.7854 38.0684 75.4227 38.0684C75.06 38.0684 74.7121 38.2125 74.4556 38.469C74.1992 38.7254 74.0551 39.0733 74.0551 39.436V53.0499C71.9207 52.094 70.451 49.9397 70.451 47.5192V33.4124C70.451 30.0725 73.1705 27.3555 76.5133 27.3555H80.3828L79.5199 36.7083C79.4896 37.0365 79.5789 37.3646 79.7713 37.6323L82.9326 42.0282C83.0593 42.2043 83.2261 42.3477 83.4192 42.4466C83.6122 42.5455 83.826 42.5971 84.043 42.5971C84.2599 42.5971 84.4737 42.5455 84.6668 42.4466C84.8598 42.3477 85.0266 42.2043 85.1533 42.0282L88.3148 37.6323C88.5074 37.3645 88.5967 37.0361 88.5662 36.7077L87.6988 27.3555H91.1021C94.442 27.3555 97.159 30.0725 97.159 33.4124V47.5192H97.1584ZM36.2736 25.0325C36.635 24.6204 36.842 24.0262 36.842 23.4024C36.842 22.335 36.2496 21.0883 34.5803 21.0883H29.5977C26.3201 21.0883 24.6051 18.5481 24.6051 16.0389C24.6051 14.743 25.0473 13.5243 25.8498 12.6071C26.7627 11.5641 28.0936 10.9897 29.5975 10.9897H30.7213V8.22173C30.7213 7.85903 30.8654 7.51118 31.1218 7.25471C31.3783 6.99824 31.7262 6.85415 32.0889 6.85415C32.4516 6.85415 32.7994 6.99824 33.0559 7.25471C33.3124 7.51118 33.4564 7.85903 33.4564 8.22173V10.9899H38.2123C38.575 10.9899 38.9229 11.134 39.1793 11.3904C39.4358 11.6469 39.5799 11.9948 39.5799 12.3575C39.5799 12.7202 39.4358 13.068 39.1793 13.3245C38.9229 13.581 38.575 13.725 38.2123 13.725H29.5977C28.8734 13.725 28.3051 13.9551 27.908 14.4086C27.5473 14.8209 27.3404 15.4153 27.3404 16.0393C27.3404 17.1069 27.9314 18.3536 29.5979 18.3536H34.5805C37.8609 18.3536 39.5771 20.8938 39.5771 23.4028C39.5771 24.6991 39.1346 25.918 38.3309 26.8352C37.4172 27.8778 36.0854 28.452 34.5805 28.452H33.4566V31.2202C33.4566 31.5829 33.3126 31.9307 33.0561 32.1872C32.7996 32.4437 32.4518 32.5877 32.0891 32.5877C31.7264 32.5877 31.3785 32.4437 31.122 32.1872C30.8656 31.9307 30.7215 31.5829 30.7215 31.2202V28.452H25.9715C25.6088 28.452 25.2609 28.3079 25.0045 28.0514C24.748 27.795 24.6039 27.4471 24.6039 27.0844C24.6039 26.7217 24.748 26.3739 25.0045 26.1174C25.2609 25.8609 25.6088 25.7168 25.9715 25.7168H34.5805C35.3061 25.7167 35.8758 25.4864 36.2736 25.0325Z" fill="black"/>
</svg>
