<svg width="100" height="91" viewBox="0 0 100 91" fill="none" xmlns="http://www.w3.org/2000/svg">
<path fill-rule="evenodd" clip-rule="evenodd" d="M0.100413 32.2174L27.8432 0.135999C27.9134 0.0567657 28.0118 0.00827031 28.1174 0.000963558C28.223 -0.00634319 28.3272 0.0281239 28.4076 0.0969367L69.5031 35.6325C69.5824 35.7039 69.6307 35.8033 69.638 35.9097C69.6453 36.0162 69.611 36.1212 69.5422 36.2028L41.8002 68.2837C41.7291 68.3632 41.6297 68.4119 41.5232 68.4194C41.4167 68.4269 41.3115 68.3926 41.2299 68.3237L0.140257 32.7876C0.0997852 32.753 0.0666162 32.7107 0.042693 32.6632C0.0187698 32.6156 0.00457348 32.5638 0.000935639 32.5107C-0.0027022 32.4576 0.00429155 32.4043 0.0215072 32.354C0.0387229 32.3036 0.0658144 32.2572 0.101195 32.2174H0.100413Z" fill="#006694"/>
<path fill-rule="evenodd" clip-rule="evenodd" d="M18.5102 17.1146L37.8778 8.28369L69.5034 35.6325C69.5826 35.7039 69.631 35.8034 69.6382 35.9098C69.6455 36.0162 69.6112 36.1213 69.5424 36.2028L41.8004 68.2837C41.7293 68.3633 41.6299 68.412 41.5234 68.4194C41.4169 68.4269 41.3117 68.3926 41.2301 68.3237L39.2633 66.619L17.6893 19.3097C17.5079 18.9097 17.4923 18.4541 17.6461 18.0427C17.7998 17.6312 18.1103 17.2975 18.5096 17.1146H18.5102Z" fill="#005C85"/>
<path fill-rule="evenodd" clip-rule="evenodd" d="M19.0291 18.2548L57.6215 0.660462C57.7184 0.617236 57.8284 0.613951 57.9277 0.651321C58.027 0.68869 58.1075 0.763699 58.1518 0.860072L80.6893 50.2909C80.7121 50.3388 80.7252 50.3907 80.7278 50.4436C80.7304 50.4966 80.7225 50.5495 80.7044 50.5994C80.6864 50.6493 80.6587 50.695 80.6228 50.7341C80.587 50.7731 80.5437 50.8047 80.4956 50.8269L41.903 68.4204C41.8052 68.4632 41.6946 68.4662 41.5946 68.429C41.4946 68.3918 41.413 68.3171 41.367 68.2208L18.8295 18.7915C18.7858 18.6939 18.7822 18.5829 18.8196 18.4827C18.8569 18.3824 18.9322 18.3008 19.0291 18.2556V18.2548Z" fill="#60B7FF"/>
<path fill-rule="evenodd" clip-rule="evenodd" d="M41.9365 12.2001H63.3232L80.6887 50.2909C80.7115 50.3388 80.7246 50.3907 80.7272 50.4436C80.7298 50.4966 80.7218 50.5495 80.7038 50.5994C80.6858 50.6492 80.658 50.695 80.6222 50.734C80.5863 50.7731 80.5431 50.8046 80.4949 50.8268L41.9023 68.4204C41.8046 68.4631 41.694 68.4662 41.594 68.429C41.494 68.3917 41.4124 68.3171 41.3664 68.2208L40.2832 65.838V13.8591C40.2827 13.6415 40.3252 13.4261 40.408 13.225C40.4909 13.0238 40.6125 12.841 40.7661 12.687C40.9196 12.5329 41.102 12.4106 41.3029 12.327C41.5037 12.2435 41.719 12.2004 41.9365 12.2001Z" fill="#56A5E6"/>
<path fill-rule="evenodd" clip-rule="evenodd" d="M41.9371 13.4543H73.5227L84.7543 24.686V68.1821C84.7539 68.2893 84.7111 68.392 84.6353 68.4678C84.5595 68.5437 84.4568 68.5865 84.3496 68.587H41.9371C41.8843 68.5866 41.8321 68.5759 41.7835 68.5553C41.7348 68.5348 41.6907 68.5049 41.6536 68.4673C41.6166 68.4297 41.5873 68.3851 41.5675 68.3362C41.5476 68.2872 41.5377 68.2349 41.5381 68.1821V13.859C41.5377 13.8062 41.5476 13.7539 41.5675 13.705C41.5873 13.656 41.6166 13.6115 41.6537 13.5739C41.6907 13.5363 41.7348 13.5064 41.7835 13.4859C41.8321 13.4654 41.8843 13.4547 41.9371 13.4543Z" fill="#EAF6FF"/>
<path fill-rule="evenodd" clip-rule="evenodd" d="M73.5225 13.4543V22.1653C73.5238 22.8331 73.7896 23.4732 74.2618 23.9454C74.7341 24.4177 75.3742 24.6835 76.042 24.6848H84.7529L73.5225 13.4543Z" fill="#BEC7CF"/>
<path fill-rule="evenodd" clip-rule="evenodd" d="M51.6523 51.7561H84.7945C86.4744 51.7612 88.084 52.4308 89.2718 53.6187C90.4597 54.8065 91.1293 56.4161 91.1344 58.096V84.1341C91.1302 85.8142 90.461 87.4244 89.2729 88.6125C88.0849 89.8006 86.4747 90.4699 84.7945 90.4741H26.0363C24.3564 90.469 22.7468 89.7994 21.5589 88.6115C20.371 87.4236 19.7014 85.814 19.6963 84.1341V45.4161C19.7 44.0357 20.2504 42.713 21.2271 41.7374C22.2037 40.7619 23.527 40.213 24.9074 40.2108H35.9736C37.8096 40.2108 39.0582 41.3397 40.3693 42.6169L47.2566 49.3501C48.568 50.6329 49.8166 51.7561 51.6523 51.7561Z" fill="#FFBA57"/>
<path d="M48.4424 24.5321C48.0718 24.5277 47.7178 24.3774 47.4572 24.1138C47.1967 23.8501 47.0506 23.4944 47.0506 23.1238C47.0506 22.7531 47.1967 22.3974 47.4572 22.1337C47.7178 21.8701 48.0718 21.7198 48.4424 21.7155H67.0631C67.4337 21.7198 67.7877 21.8701 68.0482 22.1337C68.3088 22.3974 68.4549 22.7531 68.4549 23.1238C68.4549 23.4944 68.3088 23.8501 68.0482 24.1138C67.7877 24.3774 67.4337 24.5277 67.0631 24.5321H48.4424ZM48.4424 45.0789C48.0689 45.0789 47.7107 44.9306 47.4466 44.6665C47.1825 44.4024 47.0342 44.0442 47.0342 43.6707C47.0342 43.2972 47.1825 42.9391 47.4466 42.675C47.7107 42.4109 48.0689 42.2625 48.4424 42.2625H77.85C78.2235 42.2625 78.5817 42.4109 78.8458 42.675C79.1098 42.9391 79.2582 43.2972 79.2582 43.6707C79.2582 44.0442 79.1098 44.4024 78.8458 44.6665C78.5817 44.9306 78.2235 45.0789 77.85 45.0789H48.4424ZM48.4424 38.2317C48.0718 38.2273 47.7178 38.077 47.4572 37.8134C47.1967 37.5497 47.0506 37.194 47.0506 36.8234C47.0506 36.4527 47.1967 36.097 47.4572 35.8334C47.7178 35.5697 48.0718 35.4194 48.4424 35.4151H77.85C78.0363 35.4129 78.2213 35.4477 78.394 35.5175C78.5668 35.5873 78.7241 35.6906 78.8566 35.8216C78.9891 35.9526 79.0944 36.1086 79.1662 36.2806C79.238 36.4525 79.275 36.637 79.275 36.8234C79.275 37.0097 79.238 37.1942 79.1662 37.3662C79.0944 37.5381 78.9891 37.6941 78.8566 37.8251C78.7241 37.9561 78.5668 38.0595 78.394 38.1293C78.2213 38.1991 78.0363 38.2339 77.85 38.2317H48.4424ZM48.4424 31.3842C48.2575 31.3842 48.0743 31.3478 47.9035 31.277C47.7326 31.2062 47.5774 31.1025 47.4466 30.9718C47.3159 30.841 47.2121 30.6857 47.1414 30.5149C47.0706 30.344 47.0342 30.1609 47.0342 29.976C47.0342 29.7911 47.0706 29.608 47.1414 29.4371C47.2121 29.2663 47.3159 29.111 47.4466 28.9802C47.5774 28.8495 47.7326 28.7458 47.9035 28.675C48.0743 28.6042 48.2575 28.5678 48.4424 28.5678H77.85C78.0349 28.5678 78.218 28.6042 78.3889 28.675C78.5597 28.7458 78.715 28.8495 78.8458 28.9802C78.9765 29.111 79.0802 29.2663 79.151 29.4371C79.2218 29.608 79.2582 29.7911 79.2582 29.976C79.2582 30.1609 79.2218 30.344 79.151 30.5149C79.0802 30.6857 78.9765 30.841 78.8458 30.9718C78.715 31.1025 78.5597 31.2062 78.3889 31.277C78.218 31.3478 78.0349 31.3842 77.85 31.3842H48.4424Z" fill="#BEC7CF"/>
<path d="M28.6416 73.4725C28.2681 73.4725 27.9099 73.3242 27.6459 73.0601C27.3818 72.796 27.2334 72.4378 27.2334 72.0643C27.2334 71.6909 27.3818 71.3327 27.6459 71.0686C27.9099 70.8045 28.2681 70.6561 28.6416 70.6561H42.3762C42.7496 70.6561 43.1078 70.8045 43.3719 71.0686C43.636 71.3327 43.7844 71.6909 43.7844 72.0643C43.7844 72.4378 43.636 72.796 43.3719 73.0601C43.1078 73.3242 42.7496 73.4725 42.3762 73.4725H28.6416ZM28.6416 83.0907C28.2681 83.0907 27.9099 82.9423 27.6459 82.6782C27.3818 82.4142 27.2334 82.056 27.2334 81.6825C27.2334 81.309 27.3818 80.9508 27.6459 80.6867C27.9099 80.4227 28.2681 80.2743 28.6416 80.2743H82.1887C82.5622 80.2743 82.9203 80.4227 83.1844 80.6867C83.4485 80.9508 83.5969 81.309 83.5969 81.6825C83.5969 82.056 83.4485 82.4142 83.1844 82.6782C82.9203 82.9423 82.5622 83.0907 82.1887 83.0907H28.6416Z" fill="#CF9646"/>
<path fill-rule="evenodd" clip-rule="evenodd" d="M84.7539 52.8221C85.6237 53.4001 86.3374 54.1838 86.8318 55.1037C87.3261 56.0236 87.5858 57.0513 87.5877 58.0956V84.1341C87.5835 85.8143 86.9142 87.4244 85.7261 88.6125C84.538 89.8006 82.9279 90.4699 81.2477 90.4741H84.7939C86.4741 90.4699 88.0843 89.8006 89.2723 88.6125C90.4604 87.4244 91.1297 85.8142 91.1338 84.1341V58.096C91.135 57.2641 90.9703 56.4403 90.6492 55.6729C90.167 54.5163 89.3542 53.5277 88.3126 52.831C87.271 52.1343 86.0471 51.7604 84.7939 51.7561H81.2477C82.4962 51.756 83.7167 52.127 84.7539 52.8221ZM47.2561 49.3501L41.5377 43.7628L40.3687 42.6169C39.0576 41.3397 37.809 40.2108 35.973 40.2108H32.4326C34.2627 40.2108 35.5113 41.3397 36.8227 42.6169L41.5377 47.2235L43.7156 49.3501C45.0211 50.6329 46.2697 51.7561 48.1057 51.7561H51.6518C49.8158 51.7561 48.5674 50.6329 47.2561 49.3501Z" fill="#E6A74E"/>
<path fill-rule="evenodd" clip-rule="evenodd" d="M87.9984 70.4737C90.3721 70.4737 92.6924 69.7698 94.666 68.4511C96.6397 67.1324 98.1779 65.258 99.0863 63.065C99.9946 60.8721 100.232 58.459 99.7692 56.131C99.3061 53.8029 98.1631 51.6645 96.4847 49.9861C94.8063 48.3076 92.6678 47.1646 90.3398 46.7016C88.0118 46.2385 85.5987 46.4761 83.4057 47.3845C81.2127 48.2929 79.3384 49.8311 78.0197 51.8047C76.7009 53.7783 75.9971 56.0987 75.9971 58.4723C76.003 61.6535 77.2693 64.7026 79.5188 66.952C81.7682 69.2014 84.8173 70.4678 87.9984 70.4737Z" fill="#25C73B"/>
<path d="M80.8264 60.1028C80.6922 59.9729 80.5851 59.8175 80.5115 59.6459C80.4379 59.4742 80.3991 59.2896 80.3975 59.1028C80.3959 58.916 80.4314 58.7308 80.502 58.5578C80.5727 58.3849 80.677 58.2277 80.8089 58.0955C80.9408 57.9632 81.0977 57.8585 81.2704 57.7875C81.4432 57.7164 81.6283 57.6804 81.8151 57.6816C82.0019 57.6827 82.1866 57.721 82.3585 57.7942C82.5303 57.8674 82.6859 57.974 82.8162 58.1079L85.5185 60.8102L93.1748 53.154C93.4386 52.8901 93.7965 52.7418 94.1697 52.7418C94.5428 52.7418 94.9007 52.89 95.1645 53.1539C95.4284 53.4177 95.5767 53.7756 95.5767 54.1487C95.5767 54.5219 95.4285 54.8797 95.1646 55.1436L86.5105 63.7973C86.2462 64.0602 85.8885 64.2078 85.5157 64.2078C85.1429 64.2078 84.7852 64.0602 84.5209 63.7973L80.8264 60.1028Z" fill="#EAF6FF"/>
<path fill-rule="evenodd" clip-rule="evenodd" d="M86.9777 46.5108C89.9223 46.7605 92.6713 48.0875 94.6984 50.2378C96.7254 52.3882 97.888 55.2107 97.9636 58.1648C98.0391 61.119 97.0223 63.9972 95.1079 66.2484C93.1934 68.4996 90.5158 69.9654 87.5879 70.3653C87.3852 70.3941 87.1817 70.4169 86.9777 70.4336C87.183 70.4508 87.3826 70.4622 87.5879 70.468C87.7246 70.4737 87.8613 70.4737 87.998 70.4737C89.0572 70.4756 90.1118 70.3356 91.1338 70.0575C93.9417 69.2973 96.378 67.5432 97.9896 65.1213C99.6011 62.6994 100.278 59.7747 99.8947 56.891C99.5114 54.0074 98.0937 51.3611 95.9054 49.4444C93.7171 47.5277 90.9071 46.471 87.998 46.4709C87.6559 46.4709 87.3145 46.4823 86.9775 46.51L86.9777 46.5108Z" fill="#21B335"/>
<path fill-rule="evenodd" clip-rule="evenodd" d="M82.1885 24.686V47.9647C82.9999 47.5163 83.8609 47.1642 84.7541 46.9157V24.686H82.1885Z" fill="#D3DDE6"/>
</svg>
