<svg width="100" height="100" viewBox="0 0 100 100" fill="none" xmlns="http://www.w3.org/2000/svg">
<g clip-path="url(#clip0_1041_4322)">
<path d="M89.2643 18.744C83.944 18.744 79.6309 23.0569 79.6309 28.3774C79.6309 33.6979 83.944 38.0108 89.2643 38.0108C94.5846 38.0108 98.8977 33.6976 98.8977 28.3774C98.8977 23.0572 94.5848 18.744 89.2643 18.744ZM89.2643 33.6006C86.3797 33.6006 84.0411 31.262 84.0411 28.3774C84.0411 25.4928 86.3797 23.1542 89.2643 23.1542C92.1489 23.1542 94.4875 25.4927 94.4875 28.3774C94.4875 31.2621 92.1489 33.6006 89.2643 33.6006Z" fill="#4A4B46"/>
<path d="M83.1943 22.8877L88.1647 29.418L90.465 27.5144L85.667 20.949L83.1943 22.8877Z" fill="#AEADAA"/>
<path d="M89.2641 30.2928C90.3219 30.2928 91.1795 29.4352 91.1795 28.3774C91.1795 27.3195 90.3219 26.4619 89.2641 26.4619C88.2062 26.4619 87.3486 27.3195 87.3486 28.3774C87.3486 29.4352 88.2062 30.2928 89.2641 30.2928Z" fill="#D6D5D0"/>
<path d="M80.1535 7.71826H86.2176L87.7738 13.0489L76.8174 13.2787L76.8387 8.80636L80.1535 7.71826Z" fill="#D6D5D0"/>
<path d="M86.9663 12.0178L85.6668 7.71815L82.3591 4.41044V1.10272L88.1746 5.46436C90.1434 6.94095 91.6899 8.9087 92.6593 11.1707L94.4874 15.4361L86.9663 12.0178ZM42.6308 8.82072L37.1895 9.39916L35.3262 12.6797L37.9448 14.8849L39.4699 12.7758L46.912 11.8028L42.6308 8.82072Z" fill="#AEADAA"/>
<path d="M55.8976 15.4362L59.2053 17.6414L64.7388 15.4617L61.4104 12.1285C58.8329 12.2671 56.252 11.9286 53.7973 11.1302L52.6836 10.7678L55.8976 15.4362Z" fill="#7A4922"/>
<path d="M62.4714 16.3077L60.3076 22.0516L62.5115 28.9113L65.1072 28.8289L66.5081 26.7276L72.812 24.5852L65.5938 15.1431L62.4714 16.3077Z" fill="#D6D5D0"/>
<path d="M77.9488 11.0258H81.2565L90.077 12.1283L94.4873 15.436L88.9745 16.5386L80.1569 33.0358L76.7764 26.3443L72.4403 24.2238L65.5938 15.1428L77.9488 11.0258Z" fill="#E42A3C"/>
<path d="M60.307 22.0515L53.7764 24.3378L58.2259 29.735L62.731 29.5702L60.307 22.0515Z" fill="#AEADAA"/>
<path d="M44.0582 18.744C38.7379 18.744 34.4248 23.0569 34.4248 28.3774C34.4248 33.6979 38.7379 38.0108 44.0582 38.0108C49.3786 38.0108 53.6917 33.6976 53.6917 28.3774C53.6917 23.0572 49.3787 18.744 44.0582 18.744ZM44.0582 33.6006C41.1736 33.6006 38.8351 31.262 38.8351 28.3774C38.8351 25.4928 41.1736 23.1542 44.0582 23.1542C46.9428 23.1542 49.2814 25.4927 49.2814 28.3774C49.2814 31.2621 46.9428 33.6006 44.0582 33.6006Z" fill="#4A4B46"/>
<path d="M39.3584 5.51294L44.8713 11.0258L50.8206 14.331C53.4583 15.7964 56.2775 16.908 59.2055 17.6374L55.897 15.4361L50.6016 7.77128L45.9738 6.61551L39.3584 5.51294Z" fill="#E42A3C"/>
<path d="M61.4102 12.1285L64.737 15.4634L77.9487 11.0259L76.8462 8.8208L71.7368 6.9157C71.1732 6.70549 70.5725 6.61282 69.9716 6.6434C69.3708 6.67397 68.7826 6.82714 68.2432 7.09349L63.8417 9.26707C62.9794 9.69292 62.2799 10.389 61.8498 11.2492L61.4102 12.1285Z" fill="#C92535"/>
<path d="M56.9997 30.8722L41.5637 20.949L44.0489 16.892L52.1811 22.0123L58.7552 29.2887L56.9997 30.8722ZM35.3261 12.6797L32.7432 17.1933L34.0857 20.949L37.9447 14.8849L35.3261 12.6797Z" fill="#D6D5D0"/>
<path d="M44.059 30.2927C45.1169 30.2927 45.9744 29.4352 45.9744 28.3773C45.9744 27.3194 45.1169 26.4619 44.059 26.4619C43.0011 26.4619 42.1436 27.3194 42.1436 28.3773C42.1436 29.4352 43.0011 30.2927 44.059 30.2927Z" fill="#D6D5D0"/>
<path d="M41.5637 20.949L39.4307 24.5221L53.692 33.0773L56.9997 30.8721L41.5637 20.949Z" fill="#AEADAA"/>
<path d="M80.158 33.0497H53.6963L59.2091 28.6394H64.722L65.8246 26.4343L72.4403 24.2241L76.78 26.3199L80.158 33.0497Z" fill="#C92535"/>
<path d="M59.2061 17.6375L61.3634 19.2494L62.4715 16.3076L59.2061 17.6375Z" fill="#AEADAA"/>
<path d="M77.9483 8.95844C79.1662 8.95844 80.1534 7.97117 80.1534 6.7533C80.1534 5.53543 79.1662 4.54816 77.9483 4.54816C76.7304 4.54816 75.7432 5.53543 75.7432 6.7533C75.7432 7.97117 76.7304 8.95844 77.9483 8.95844Z" fill="#7A4922"/>
<path d="M77.9487 7.68171C78.4614 7.68171 78.877 7.26613 78.877 6.75348C78.877 6.24084 78.4614 5.82526 77.9487 5.82526C77.4361 5.82526 77.0205 6.24084 77.0205 6.75348C77.0205 7.26613 77.4361 7.68171 77.9487 7.68171Z" fill="#A8652F"/>
<path d="M89.6409 17.6509L89.7107 17.5159L94.7034 16.5173C94.9121 16.4756 95.1043 16.3743 95.2568 16.2257C95.4092 16.0771 95.5154 15.8876 95.5624 15.6799C95.6067 15.4827 95.5957 15.2771 95.5307 15.0857C95.5291 15.0789 95.5271 15.0722 95.5249 15.0655C95.5236 15.0614 95.5225 15.0573 95.5208 15.0531C95.5146 15.0358 95.5079 15.0187 95.5005 15.0019L93.6726 10.7364C92.6262 8.29743 90.9585 6.17548 88.8359 4.58229L83.0204 0.220653C82.8566 0.0977425 82.6618 0.0228836 82.4579 0.0044675C82.2539 -0.0139486 82.0489 0.0248062 81.8657 0.116387C81.6825 0.207969 81.5285 0.348756 81.4209 0.522968C81.3132 0.697179 81.2562 0.897928 81.2563 1.10271V4.41042C81.2563 4.55522 81.2848 4.69859 81.3402 4.83237C81.3956 4.96614 81.4768 5.08769 81.5792 5.19008L83.0047 6.61557H81.2563C81.2563 4.79164 79.7724 3.30785 77.9486 3.30785C76.1248 3.30785 74.6409 4.79164 74.6409 6.61557C74.6409 6.68586 74.6438 6.75532 74.6482 6.82451L72.1219 5.88249C70.7037 5.35367 69.1119 5.43458 67.7549 6.10494L63.3534 8.27838C62.282 8.80748 61.3977 9.68747 60.8635 10.756L60.7163 11.0502C58.4847 11.1007 56.2606 10.7732 54.1381 10.0816L53.2124 9.7805L51.2815 7.07727C51.1292 6.86402 50.9059 6.71201 50.6517 6.64851L46.2414 5.54593C46.2129 5.53883 46.1842 5.53285 46.1552 5.52802L39.5398 4.42545C39.3094 4.38704 39.0727 4.42282 38.864 4.52761C38.6552 4.6324 38.4851 4.80079 38.3782 5.0085C38.2713 5.21621 38.2331 5.4525 38.2692 5.6833C38.3053 5.9141 38.4137 6.12747 38.5789 6.29265L40.2511 7.96484L37.0727 8.30278C36.8986 8.32127 36.7314 8.38098 36.5849 8.47694C36.4385 8.5729 36.317 8.70237 36.2306 8.85462L31.7863 16.6457C31.7072 16.7838 31.659 16.9375 31.6449 17.0961C31.6309 17.2547 31.6514 17.4145 31.7049 17.5644L33.0475 21.32C33.1169 21.5143 33.2395 21.6853 33.4013 21.8134C33.5631 21.9415 33.7576 22.0216 33.9627 22.0446C34.1678 22.0676 34.3752 22.0326 34.5614 21.9436C34.7476 21.8545 34.905 21.715 35.0158 21.5409L40.0656 13.8333C40.0656 13.8333 46.5236 13.29 46.6156 13.2561L54.2591 17.5025C54.4686 17.6189 54.7102 17.6639 54.9476 17.6307C55.1849 17.5974 55.4049 17.4877 55.5742 17.3182L56.0377 16.8549L58.5933 18.5586C58.7421 18.6579 58.9128 18.7195 59.0907 18.738C59.2686 18.7565 59.4483 18.7315 59.6143 18.665L60.6383 18.2553L59.4677 21.1823L54.5089 22.9699C54.5089 22.9699 52.8564 21.1345 52.7686 21.0792L44.6364 15.9589C44.5129 15.8812 44.3752 15.8287 44.2313 15.8046C44.0874 15.7805 43.9401 15.7852 43.798 15.8184C43.6559 15.8516 43.5218 15.9127 43.4035 15.9981C43.2851 16.0835 43.185 16.1916 43.1087 16.316L42.198 17.8028C37.1013 18.6926 33.3226 23.1455 33.3226 28.3773C33.3226 34.2971 38.1386 39.1133 44.0586 39.1133C47.8218 39.1133 51.225 37.1977 53.1759 34.0498C53.3346 34.1348 53.5119 34.1795 53.692 34.1799H80.1537C80.1778 34.1799 80.2013 34.1767 80.2251 34.1752C82.1895 37.2472 85.5588 39.1133 89.264 39.1133C95.1838 39.1133 100 34.2971 100 28.3773C100 22.5838 95.3866 17.8505 89.6409 17.6508V17.6509ZM89.2641 27.5644C89.7123 27.5644 90.0769 27.9291 90.0769 28.3773C90.0769 28.8255 89.7122 29.1902 89.2641 29.1902C88.8161 29.1902 88.4511 28.8255 88.4511 28.3773C88.4511 27.9291 88.8159 27.5644 89.2641 27.5644ZM87.1329 26.2424L85.9843 24.7333L86.4322 23.8656L87.8012 25.7387C87.5562 25.8749 87.3313 26.0445 87.1329 26.2424ZM85.2578 27.4198L86.1815 28.6334C86.2086 28.6689 86.2374 28.7024 86.2678 28.7338C86.4447 30.2304 87.7205 31.3952 89.264 31.3952C90.9282 31.3952 92.282 30.0415 92.282 28.3773C92.282 27.1245 91.5145 26.0477 90.425 25.5919L89.4528 24.2615C91.6377 24.3608 93.3846 26.1686 93.3846 28.3773C93.3846 30.6494 91.5361 32.4979 89.264 32.4979C86.9919 32.4979 85.1434 30.6494 85.1434 28.3773C85.1434 28.0525 85.1836 27.7317 85.2578 27.42V27.4198ZM88.758 15.4575C88.5958 15.49 88.4428 15.5585 88.3107 15.6581C88.1785 15.7577 88.0704 15.8858 87.9945 16.0329L80.3067 30.9237L77.7616 25.853C77.6523 25.6352 77.4739 25.4597 77.2544 25.354L73.1565 23.3802L67.3997 15.7045L78.1275 12.1284H81.1877L89.6495 13.1862L91.8528 14.8387L88.758 15.4575ZM83.4614 3.30785L87.5128 6.3464C89.3266 7.70778 90.7516 9.52099 91.6457 11.6051L91.8488 12.0792L90.7384 11.2464C90.5849 11.1312 90.404 11.0582 90.2136 11.0344L87.8317 10.7367C87.8262 10.7169 86.7126 7.36945 86.7126 7.36945C86.6584 7.20709 86.5672 7.05955 86.4462 6.93848L83.4614 3.95368V3.30785ZM84.8719 8.82071L85.4095 10.4338C85.4095 10.4338 81.302 9.92328 81.2563 9.92328H78.63L78.5979 9.85892C79.2986 9.71792 79.9349 9.35366 80.4113 8.82071H84.8719ZM77.9486 5.513C78.5565 5.513 79.0511 6.00764 79.0511 6.61557C79.0511 7.2235 78.5565 7.71814 77.9486 7.71814C77.3406 7.71814 76.846 7.2235 76.846 6.61557C76.846 6.00764 77.3406 5.513 77.9486 5.513ZM62.8359 11.7421C63.1597 11.0978 63.684 10.5761 64.3299 10.2556L68.7312 8.08213C69.136 7.88309 69.5771 7.76861 70.0276 7.74568C70.4781 7.72274 70.9286 7.79182 71.3515 7.94871L76.0539 9.70222L76.394 10.382L65.0155 14.1748L62.7516 11.9107L62.8359 11.7421ZM34.3653 18.4558L33.9523 17.3002L35.6266 14.3742L36.4966 15.1069L34.3653 18.4558ZM39.3798 11.6768C39.2211 11.6898 39.0671 11.737 38.9284 11.8152C38.7897 11.8933 38.6696 12.0006 38.5763 12.1297L37.7469 13.2768L36.7376 12.4269L37.8685 10.4357L42.2556 9.96931L43.6167 11.3304L39.3798 11.6768ZM45.5418 10.137L42.5712 7.16616L45.7494 7.69581L49.7232 8.68937L54.1884 14.9405L45.5418 10.137ZM59.334 16.4021L56.6768 14.6308L55.2895 12.6885C56.9233 13.0695 58.5955 13.2617 60.2731 13.2616C60.5056 13.2616 60.7385 13.2568 60.9719 13.2495L62.7557 15.0334L59.334 16.4021ZM65.1944 16.4393L70.6358 23.6945L65.4716 25.4159C65.3343 25.4617 65.2073 25.5341 65.0979 25.6289C64.9885 25.7238 64.8989 25.8392 64.8342 25.9687L64.0362 27.5644H63.3073L61.4811 22.086L63.4657 17.1245L65.1944 16.4393ZM59.6186 23.472L60.9828 27.5644H59.2049C59.0298 27.5644 58.8589 27.6069 58.7047 27.6854L56.0882 24.7446L59.6186 23.472ZM44.406 18.4198L51.4612 22.862L56.9647 29.0472L56.6239 29.3199L43.0675 20.605L44.406 18.4198ZM53.6019 31.7375L40.9412 24.1426L41.9262 22.4929L54.807 30.7733L53.6019 31.7375ZM40.4379 26.4121L41.3834 26.9794C41.1575 27.4107 41.0398 27.8904 41.0406 28.3773C41.0406 30.0415 42.3944 31.3953 44.0587 31.3953C45.0688 31.3953 45.9962 30.8826 46.5491 30.0782L47.498 30.6474C46.7466 31.792 45.4721 32.4979 44.0586 32.4979C41.7864 32.4979 39.938 30.6494 39.938 28.3773C39.938 27.6879 40.113 27.0118 40.4379 26.4121ZM43.2873 28.1215L44.6469 28.9371C44.571 29.0168 44.4798 29.0803 44.3787 29.1238C44.2776 29.1673 44.1687 29.1898 44.0587 29.1902C43.8432 29.1899 43.6365 29.1042 43.4841 28.9519C43.3317 28.7995 43.2459 28.5928 43.2457 28.3773C43.2458 28.2904 43.2599 28.204 43.2873 28.1215ZM44.0586 36.9082C39.3546 36.9082 35.5277 33.0813 35.5277 28.3773C35.5277 24.9839 37.5284 22.0039 40.465 20.6383L38.4838 23.9571C38.2392 24.3668 38.2923 24.8706 38.5781 25.2199C38.0252 26.1804 37.7338 27.2691 37.7328 28.3773C37.7328 31.8653 40.5706 34.703 44.0586 34.703C46.2609 34.703 48.247 33.5883 49.3924 31.7838L51.2833 32.9181C49.7295 35.3998 47.0355 36.9082 44.0586 36.9082ZM56.8353 31.9747L59.5917 29.7696H64.7177C64.9225 29.7696 65.1232 29.7126 65.2974 29.6049C65.4716 29.4973 65.6124 29.3433 65.704 29.1601L66.6023 27.3635L72.3601 25.4442L75.959 27.1778L78.3667 31.9747H56.8352H56.8353ZM89.264 36.9082C86.1944 36.9082 83.4154 35.2957 81.8885 32.6662L83.191 30.1435C83.9575 32.7744 86.389 34.703 89.264 34.703C92.752 34.703 95.5897 31.8653 95.5897 28.3773C95.5897 24.8893 92.752 22.0516 89.264 22.0516C88.817 22.0516 88.3737 22.0988 87.9399 22.1913L87.563 21.6755L88.4887 19.8827C88.7465 19.859 89.0052 19.8469 89.264 19.8464C93.9678 19.8464 97.7949 23.6733 97.7949 28.3773C97.7949 33.0813 93.9678 36.9082 89.264 36.9082Z" fill="black"/>
<path d="M73.2151 15.7592C73.0074 15.5572 72.7285 15.4451 72.4387 15.4471C72.1489 15.4492 71.8716 15.5652 71.6667 15.7701C71.4618 15.975 71.3458 16.2523 71.3438 16.5421C71.3417 16.8318 71.4538 17.1107 71.6558 17.3185L73.861 19.5236C74.0762 19.7389 74.3585 19.8466 74.6406 19.8466C74.9227 19.8466 75.205 19.7389 75.4203 19.5236C75.5227 19.4213 75.6039 19.2997 75.6593 19.1659C75.7147 19.0322 75.7432 18.8888 75.7432 18.744C75.7432 18.5992 75.7147 18.4558 75.6593 18.322C75.6039 18.1883 75.5227 18.0667 75.4203 17.9643L73.2151 15.7592ZM78.728 14.6566C78.5202 14.4546 78.2413 14.3425 77.9516 14.3446C77.6618 14.3466 77.3845 14.4626 77.1796 14.6675C76.9747 14.8724 76.8587 15.1497 76.8566 15.4395C76.8546 15.7292 76.9667 16.0082 77.1687 16.2159L79.3738 18.4211C79.5891 18.6363 79.8714 18.744 80.1535 18.744C80.4356 18.744 80.7179 18.6363 80.9331 18.4211C81.0355 18.3187 81.1167 18.1971 81.1722 18.0634C81.2276 17.9296 81.2561 17.7862 81.2561 17.6414C81.2561 17.4966 81.2276 17.3532 81.1722 17.2195C81.1167 17.0857 81.0355 16.9641 80.9331 16.8618L78.728 14.6566Z" fill="black"/>
<path d="M54.0068 83.2636H48.3726L42.4581 79.2583C39.1336 76.9886 35.2084 75.787 31.1897 75.787H17.1309L0.708984 80.7937V82.5961H2.17761V88.3371H0.708984V92.8765L3.04544 95.9473H66.1297V92.7697L67.7318 89.1248L64.6477 86.8151C61.5769 84.5053 57.852 83.2636 54.0068 83.2636Z" fill="#DB3328"/>
<path d="M13.2591 77.6562H11.0027L0.708984 80.7938L3.48603 80.8605L13.2591 77.6562Z" fill="#485143"/>
<path d="M39.6408 77.6562H38.1455L46.3431 83.2637H48.3725L42.4579 79.245C41.5634 78.6442 40.6155 78.0568 39.6408 77.6562Z" fill="#747E6C"/>
<path d="M66.1297 95.9472H3.04544L0.708984 92.8764H66.1297V95.9472ZM5.07482 88.337H2.17761V82.596H5.07482L6.47669 85.867L5.07482 88.337Z" fill="#B5100B"/>
<path d="M44.233 82.9967H34.2196L11.8564 79.5521L18.3318 77.6562H30.3211C34.5 77.6562 38.5855 78.9647 41.99 81.3946L44.233 82.9967Z" fill="#485143"/>
<path d="M47.7043 92.7563L25.9553 91.4613L21.8164 86.2543L26.1422 84.3317L47.3038 87.536C47.3038 88.2436 46.6896 88.8044 45.982 88.7243L27.731 86.6548L26.1155 87.4559L28.3718 89.5921L46.6896 91.6215C47.2637 91.6749 47.7043 92.1689 47.7043 92.7563Z" fill="#B5100B"/>
<path d="M63.5928 88.4706H67.7316V89.8058H63.5928V88.4706Z" fill="#EBEADF"/>
<path d="M12.4708 99.2851C16.0617 99.2851 18.9728 96.374 18.9728 92.783C18.9728 89.1921 16.0617 86.281 12.4708 86.281C8.8798 86.281 5.96875 89.1921 5.96875 92.783C5.96875 96.374 8.8798 99.2851 12.4708 99.2851Z" fill="#323D2C"/>
<path d="M12.7649 86.281C12.2309 86.2543 11.6968 86.2944 11.1895 86.4012C10.6154 86.508 10.7222 87.3491 11.2963 87.3491H11.3897C14.9545 87.3491 17.8918 90.2864 17.8918 93.8511V93.9446C17.8784 94.5187 18.7195 94.6255 18.8397 94.0514C18.9331 93.5441 18.9865 93.0234 18.9598 92.476C18.813 89.1382 16.1027 86.4279 12.7649 86.281Z" fill="#485143"/>
<path d="M15.3817 95.9338C12.1373 95.7335 9.52052 93.1034 9.3069 89.859V89.7789C9.24015 88.5907 7.71811 88.1768 7.05055 89.1648C6.30289 90.2729 5.90236 91.6347 5.96911 93.0767C6.12932 96.4011 8.82626 99.1114 12.1641 99.2716C13.6193 99.3384 14.9678 98.9245 16.0759 98.1902C17.0639 97.5226 16.65 96.0006 15.4618 95.9338H15.3817Z" fill="#1C2617"/>
<path d="M12.4712 95.974C14.2335 95.974 15.6621 94.5454 15.6621 92.7831C15.6621 91.0208 14.2335 89.5922 12.4712 89.5922C10.7089 89.5922 9.28027 91.0208 9.28027 92.7831C9.28027 94.5454 10.7089 95.974 12.4712 95.974Z" fill="#747E6C"/>
<path d="M12.7244 89.5922C12.5509 89.5788 12.3773 89.5788 12.2037 89.5922C11.8699 89.6189 11.8833 90.0995 12.2171 90.1262H12.2571C13.7525 90.2731 14.9674 91.488 15.1143 92.9834V93.0234C15.141 93.3572 15.6216 93.3572 15.6483 93.0368C15.6617 92.8632 15.6617 92.6896 15.6483 92.5161C15.5282 90.9673 14.2732 89.7123 12.7244 89.5922Z" fill="#C4C1AB"/>
<path d="M13.5655 94.4787C12.0968 94.3185 10.9219 93.1436 10.7617 91.675V91.6349C10.695 91.0074 9.85385 90.8472 9.57347 91.408C9.3465 91.8886 9.23969 92.436 9.27975 93.0101C9.38656 94.5722 10.6683 95.8539 12.2304 95.9607C12.8045 96.0008 13.3519 95.8939 13.8191 95.667C14.3932 95.4 14.2197 94.5455 13.5922 94.4787H13.5655Z" fill="#485143"/>
<path d="M2.97852 82.596H4.00656V88.337H2.97852V82.596Z" fill="#E67368"/>
<path d="M55.7549 99.2851C59.3459 99.2851 62.257 96.374 62.257 92.783C62.257 89.1921 59.3459 86.281 55.7549 86.281C52.164 86.281 49.2529 89.1921 49.2529 92.783C49.2529 96.374 52.164 99.2851 55.7549 99.2851Z" fill="#323D2C"/>
<path d="M58.6659 95.9338C55.4215 95.7335 52.8047 93.1034 52.5911 89.859V89.7789C52.5243 88.5907 51.0023 88.1768 50.3347 89.1648C49.5871 90.2729 49.1865 91.6347 49.2533 93.0767C49.4135 96.4011 52.1104 99.1114 55.4482 99.2716C56.9035 99.3384 58.252 98.9245 59.3601 98.1902C60.3481 97.5226 59.9342 96.0006 58.746 95.9338H58.6659Z" fill="#1C2617"/>
<path d="M55.729 95.974C57.4913 95.974 58.9199 94.5454 58.9199 92.7831C58.9199 91.0208 57.4913 89.5922 55.729 89.5922C53.9667 89.5922 52.5381 91.0208 52.5381 92.7831C52.5381 94.5454 53.9667 95.974 55.729 95.974Z" fill="#747E6C"/>
<path d="M56.0227 86.281C55.4887 86.2543 54.9546 86.2944 54.4473 86.4012C53.8732 86.508 53.98 87.3491 54.5541 87.3491H54.6475C58.2123 87.3491 61.1496 90.2864 61.1496 93.8511V93.9446C61.1362 94.5187 61.9773 94.6255 62.0975 94.0514C62.191 93.5441 62.2444 93.0234 62.2177 92.476C62.0708 89.1382 59.3605 86.4279 56.0227 86.281Z" fill="#485143"/>
<path d="M55.9822 89.5922C55.8087 89.5788 55.6351 89.5788 55.4615 89.5922C55.1278 89.6189 55.1411 90.0995 55.4749 90.1262H55.5149C57.0103 90.2731 58.2252 91.488 58.3721 92.9834V93.0234C58.3988 93.3572 58.8794 93.3572 58.9061 93.0368C58.9195 92.8632 58.9195 92.6896 58.9061 92.5161C58.786 90.9673 57.531 89.7123 55.9822 89.5922Z" fill="#C4C1AB"/>
<path d="M56.8233 94.4787C55.3547 94.3185 54.1797 93.1436 54.0195 91.675V91.6349C53.9528 91.0074 53.1117 90.8472 52.8313 91.408C52.6043 91.8886 52.4975 92.436 52.5376 93.0101C52.6444 94.5722 53.9261 95.8539 55.4882 95.9607C56.0623 96.0008 56.6097 95.8939 57.077 95.667C57.6511 95.4 57.4775 94.5455 56.85 94.4787H56.8233Z" fill="#485143"/>
<path d="M34.2204 84.0648H44.2338L48.3726 84.3318H60.0549C58.1324 83.6643 56.0763 83.2638 54.0068 83.2638H48.3726L44.2338 82.9967H34.2204L11.8439 79.5521L0.708984 80.7938V81.942L11.8572 81.0341L34.2204 84.0648Z" fill="#E67368"/>
<mask id="mask0_1041_4322" style="mask-type:luminance" maskUnits="userSpaceOnUse" x="11" y="77" width="34" height="6">
<path d="M44.233 82.9967H34.2196L11.8564 79.5521L18.3318 77.6562H30.3211C34.5 77.6562 38.5855 78.9647 41.99 81.3946L44.233 82.9967Z" fill="white"/>
</mask>
<g mask="url(#mask0_1041_4322)">
<path d="M27.8913 84.2384H25.5015L17.7578 76.5481H20.1477L27.8913 84.2384ZM35.1143 84.2384H30.121L22.3773 76.5481H27.3573L35.1143 84.2384Z" fill="#747E6C"/>
</g>
<path d="M26.1025 81.7551L23.3789 81.3278V77.6562H26.1025V81.7551Z" fill="#323D2C"/>
<path d="M55.7558 99.9526C51.8039 99.9526 48.5862 96.735 48.5862 92.783C48.5862 88.8311 51.8039 85.6135 55.7558 85.6135C59.7078 85.6135 62.9254 88.8311 62.9254 92.783C62.9254 96.735 59.7078 99.9526 55.7558 99.9526ZM55.7558 86.9352C52.5382 86.9352 49.9214 89.5521 49.9214 92.7697C49.9214 95.9873 52.5382 98.6042 55.7558 98.6042C58.9734 98.6042 61.5903 95.9873 61.5903 92.7697C61.5903 89.5521 58.9734 86.9352 55.7558 86.9352ZM12.4713 99.9526C8.51939 99.9526 5.30176 96.735 5.30176 92.783C5.30176 88.8311 8.51939 85.6135 12.4713 85.6135C16.4233 85.6135 19.6409 88.8311 19.6409 92.783C19.6409 96.735 16.4233 99.9526 12.4713 99.9526ZM12.4713 86.9352C9.2537 86.9352 6.63687 89.5521 6.63687 92.7697C6.63687 95.9873 9.2537 98.6175 12.4713 98.6175C15.689 98.6175 18.3058 96.0007 18.3058 92.783C18.3058 89.5654 15.689 86.9352 12.4713 86.9352Z" fill="#10121B"/>
<path d="M12.4708 96.6416C10.348 96.6416 8.6123 94.9059 8.6123 92.7831C8.6123 90.6603 10.348 88.9246 12.4708 88.9246C14.5936 88.9246 16.3293 90.6603 16.3293 92.7831C16.3293 94.9059 14.5936 96.6416 12.4708 96.6416ZM12.4708 90.2464C11.0823 90.2464 9.94742 91.3812 9.94742 92.7698C9.94742 94.1583 11.0823 95.2931 12.4708 95.2931C13.8593 95.2931 14.9942 94.1583 14.9942 92.7698C14.9942 91.3812 13.8593 90.2464 12.4708 90.2464ZM55.7286 96.6416C53.6057 96.6416 51.8701 94.9059 51.8701 92.7831C51.8701 90.6603 53.6057 88.9246 55.7286 88.9246C57.8514 88.9246 59.5871 90.6603 59.5871 92.7831C59.5871 94.9059 57.8514 96.6416 55.7286 96.6416ZM55.7286 90.2464C54.3401 90.2464 53.2052 91.3812 53.2052 92.7698C53.2052 94.1583 54.3401 95.2931 55.7286 95.2931C57.1171 95.2931 58.2519 94.1583 58.2519 92.7698C58.2519 91.3812 57.1171 90.2464 55.7286 90.2464Z" fill="#10121B"/>
<path d="M66.1293 96.6148H61.4163V95.2797H65.4617V92.7697C65.4617 92.6762 65.4751 92.5828 65.5151 92.5027L66.9036 89.3385L64.2468 87.3491C61.3095 85.1462 57.678 83.9312 54.0064 83.9312H48.3722C48.2387 83.9312 48.1052 83.8912 47.9984 83.8111L42.0838 79.7924C38.8529 77.6028 35.0878 76.4412 31.1893 76.4412H17.224L1.37613 81.2877V81.9285H2.1772C2.55103 81.9285 2.84476 82.2223 2.84476 82.5961V88.3371C2.84476 88.7109 2.55103 89.0047 2.1772 89.0047H1.37613V92.6495L3.37881 95.2797H6.7967V96.6148H3.04503C2.83141 96.6148 2.64449 96.5214 2.51098 96.3478L0.174527 93.277C0.0810691 93.1569 0.0410156 93.0234 0.0410156 92.8765V88.3371C0.0410156 87.9633 0.334741 87.6696 0.708574 87.6696H1.50964V83.2637H0.708574C0.334741 83.2637 0.0410156 82.9699 0.0410156 82.5961V80.7937C0.0410156 80.5 0.227932 80.2463 0.508306 80.1528L16.9302 75.1461C16.997 75.1328 17.0638 75.1194 17.1305 75.1194H31.1893C35.3548 75.1194 39.3869 76.3611 42.8315 78.6976L48.5725 82.5961H54.0064C57.9584 82.5961 61.8836 83.9045 65.0478 86.281L68.132 88.5908C68.3856 88.7777 68.4657 89.1115 68.3456 89.3919L66.7968 92.9166V95.9473C66.7968 96.3211 66.5031 96.6148 66.1293 96.6148Z" fill="#10121B"/>
<path d="M40.5219 95.2798H50.0813V96.6149H40.5219V95.2798ZM18.132 95.2798H37.8516V96.6149H18.132V95.2798ZM5.07453 89.0047H2.17732C1.80349 89.0047 1.50977 88.711 1.50977 88.3372V82.5962C1.50977 82.2223 1.80349 81.9286 2.17732 81.9286H5.08788C5.3549 81.9286 5.59522 82.0888 5.70203 82.3291L7.1039 85.6002C7.18401 85.7871 7.17066 86.0141 7.0772 86.1876L5.67533 88.6576C5.54182 88.8712 5.31485 89.0047 5.07453 89.0047ZM2.84488 87.6696H4.68734L5.72873 85.8271L4.64729 83.2637H2.84488V87.6696ZM44.2335 83.6643H34.2201C34.1801 83.6643 34.1534 83.6643 34.1133 83.6509L20.6954 81.5815L20.8957 80.2597L34.2735 82.3291H42.1507L41.6033 81.9419C38.2922 79.5788 34.3937 78.3238 30.3216 78.3238H18.4257L14.9277 79.3518L18.2388 79.8592L18.0385 81.1809L11.7635 80.2196C11.4564 80.1662 11.2161 79.9126 11.2027 79.6055C11.176 79.2984 11.3763 79.0047 11.6834 78.9246L18.1587 77.0287C18.2254 77.0154 18.2788 77.002 18.3456 77.002H30.3349C34.6874 77.002 38.853 78.3371 42.391 80.8605L44.634 82.4626C44.8744 82.6362 44.9678 82.9299 44.8877 83.2103C44.7809 83.4773 44.5272 83.6643 44.2335 83.6643Z" fill="#10121B"/>
<path d="M26.1025 82.4226C26.0624 82.4226 26.0357 82.4226 25.9957 82.4092L23.272 81.9953C22.9516 81.9419 22.7113 81.6616 22.7113 81.3411V77.6562C22.7113 77.2824 23.005 76.9886 23.3788 76.9886H26.1025C26.4763 76.9886 26.77 77.2824 26.77 77.6562V81.7417C26.77 81.9419 26.6899 82.1155 26.5431 82.249C26.4229 82.3558 26.2627 82.4226 26.1025 82.4226ZM24.0464 80.7537L25.4349 80.9673V78.3238H24.0464V80.7537ZM47.5978 93.4373L25.8888 92.1422C25.7019 92.1289 25.5284 92.0354 25.4082 91.8886L21.2827 86.6816C21.1492 86.5214 21.1091 86.3078 21.1625 86.1075C21.2159 85.9072 21.3495 85.747 21.5364 85.6536L25.8488 83.7176C25.969 83.6642 26.0891 83.6509 26.2226 83.6642L47.3709 86.8685L47.1706 88.1903L26.2093 85.0261L22.8715 86.5214L26.276 90.8205L47.6913 92.1022L47.5978 93.4373ZM63.5925 88.4707H67.7314V89.8058H63.5925V88.4707Z" fill="#10121B"/>
<path d="M28.6991 33.6368C29.1959 33.5351 29.1616 32.8117 28.6565 32.7668C28.6462 32.766 28.6358 32.7649 28.6256 32.764C17.171 31.7618 7.0728 40.2352 6.07058 51.6898C5.85203 54.1879 6.08639 56.6206 6.70218 58.9093L3.48696 59.9612C3.15103 60.0711 3.075 60.5122 3.35482 60.7281L12.6592 67.9089C12.9084 68.1012 13.273 67.9775 13.3537 67.6732L16.3233 56.4768C16.4128 56.1393 16.0926 55.8369 15.7609 55.9455L12.2857 57.0826C12.049 55.4733 12.0015 53.8417 12.1441 52.2213C12.9659 42.8254 19.9083 35.4365 28.6991 33.6368Z" fill="#FC3F49"/>
<path d="M15.7609 55.9458L12.2857 57.0828C12.049 55.4734 12.0015 53.8418 12.1441 52.2214C12.6025 46.9813 14.9653 42.3659 18.49 38.9956C13.8287 42.4177 10.608 47.753 10.0643 53.9665C9.94679 55.3102 9.98188 56.9938 10.1232 58.4232C10.1733 58.9299 10.6575 59.2768 11.1537 59.1623L13.1389 58.7043C13.6028 58.5972 14.0142 59.0214 13.893 59.4818L11.8417 67.2783L12.6592 67.9092C12.9084 68.1015 13.273 67.9778 13.3537 67.6735L16.3233 56.477C16.4128 56.1396 16.0927 55.8372 15.7609 55.9458Z" fill="#F4063F"/>
<path d="M16.6645 55.5363C16.5046 55.385 16.3067 55.2798 16.0919 55.2316C15.8771 55.1835 15.6532 55.1943 15.444 55.2629L12.8729 56.104C12.7488 54.8564 12.7414 53.6 12.8508 52.351C13.6177 43.5838 20.1693 36.2289 28.7828 34.4655C29.3851 34.3424 29.7965 33.8074 29.7618 33.1937C29.7271 32.584 29.2606 32.1023 28.6567 32.0487L28.6204 32.0454C22.872 31.5425 17.2718 33.3082 12.8515 37.0173C8.4312 40.7263 5.71978 45.9348 5.21693 51.6832C5.01724 53.9656 5.17696 56.2396 5.69167 58.4535L3.16996 59.2785C2.73823 59.4197 2.42187 59.7857 2.3447 60.2337C2.26752 60.6817 2.44312 61.1322 2.80286 61.4099L7.76928 65.2428C7.85068 65.3057 7.94367 65.3519 8.04295 65.3788C8.14222 65.4057 8.24583 65.4128 8.34785 65.3997C8.44987 65.3865 8.5483 65.3534 8.63751 65.3022C8.72672 65.251 8.80497 65.1827 8.86778 65.1013C8.99468 64.9368 9.05108 64.7287 9.02456 64.5227C8.99804 64.3167 8.89077 64.1297 8.72636 64.0027L4.27281 60.5658L6.87217 59.7153C7.06274 59.653 7.22215 59.52 7.31757 59.3436C7.41298 59.1673 7.43714 58.9611 7.38505 58.7675C6.77644 56.5052 6.57209 54.1676 6.77757 51.8197C7.24396 46.4881 9.75874 41.6573 13.8585 38.2172C17.3659 35.2741 21.6735 33.6504 26.1835 33.5345C22.5998 34.6975 19.321 36.8074 16.7793 39.6167C13.6024 43.1284 11.7044 47.4846 11.2906 52.2147C11.1433 53.8959 11.1926 55.5886 11.4376 57.2584C11.4542 57.3712 11.4953 57.479 11.5579 57.5743C11.6206 57.6697 11.7033 57.7501 11.8002 57.8102C11.8972 57.8702 12.0062 57.9083 12.1194 57.9218C12.2326 57.9354 12.3475 57.924 12.4559 57.8886L15.3313 56.9478L12.6558 67.0353L11.4039 66.0691C11.2392 65.9453 11.0324 65.8914 10.8283 65.919C10.6241 65.9466 10.4391 66.0536 10.3132 66.2166C10.1873 66.3797 10.1308 66.5858 10.1558 66.7903C10.1808 66.9948 10.2854 67.1812 10.4468 67.3091L12.1074 68.5907C12.267 68.7141 12.4547 68.7961 12.6538 68.8293C12.8528 68.8624 13.057 68.8457 13.248 68.7806C13.439 68.716 13.6111 68.6049 13.7489 68.4575C13.8866 68.3101 13.9857 68.1309 14.0372 67.9359L17.0069 56.7395C17.0634 56.5267 17.0615 56.3025 17.0012 56.0908C16.941 55.879 16.8246 55.6874 16.6645 55.5363Z" fill="#232323"/>
<path d="M96.4795 51.7111L87.1751 44.5302C86.9259 44.3378 86.5613 44.4615 86.4806 44.7659L83.5109 55.9625C83.4214 56.3 83.7416 56.6023 84.0733 56.4937L87.5486 55.3568C87.7853 56.9662 87.8328 58.5978 87.6902 60.2182C86.8681 69.6141 79.9257 77.0033 71.1348 78.8031C70.638 78.9048 70.6722 79.6282 71.1774 79.6731L71.2083 79.676C82.6632 80.6781 92.7615 72.2047 93.7637 60.7498C93.9822 58.2517 93.7479 55.819 93.132 53.5302L96.3473 52.4783C96.6835 52.3682 96.7594 51.9272 96.4795 51.7111Z" fill="#84C9FE"/>
<path d="M96.4795 51.7111L87.175 44.5301C86.9258 44.3378 86.5612 44.4615 86.4805 44.7658L86.0341 46.449L91.906 50.9503C92.1484 51.136 92.0949 51.5151 91.8108 51.6267L91.0971 51.9071C90.963 51.9598 90.853 52.0602 90.7883 52.1889C90.7235 52.3177 90.7085 52.4658 90.7462 52.605L91.3924 54.9898C92.008 57.2785 92.2425 59.7113 92.024 62.2094C91.5585 67.5299 89.1298 72.2061 85.5153 75.5895C90.0809 72.1626 93.2271 66.8841 93.7638 60.7495C93.9823 58.2514 93.748 55.8187 93.1322 53.5299L96.3475 52.478C96.6835 52.3682 96.7593 51.9271 96.4795 51.7111Z" fill="#70B9E5"/>
<path d="M96.885 51.1526L87.5804 43.9717C87.4208 43.8483 87.2331 43.7663 87.0341 43.7331C86.8351 43.7 86.631 43.7167 86.44 43.7817C86.2488 43.8463 86.0766 43.9572 85.9388 44.1046C85.8011 44.2521 85.702 44.4314 85.6505 44.6265L82.6809 55.823C82.5658 56.2568 82.6969 56.7178 83.0231 57.026C83.3494 57.3343 83.817 57.4392 84.2438 57.2996L86.815 56.4584C86.9391 57.706 86.9465 58.9625 86.837 60.2114C86.07 68.9789 79.5186 76.3337 70.9048 78.0972C70.3027 78.2204 69.8911 78.7553 69.9258 79.3688C69.9601 79.9786 70.4268 80.4604 71.0389 80.515L71.0671 80.5175C76.7936 81.0184 82.3779 79.2662 86.7912 75.5832L86.8372 75.5447C91.2213 71.8658 93.9278 66.7045 94.4595 61.0056C94.4691 60.9032 94.4584 60.8 94.4281 60.7017C94.3977 60.6034 94.3483 60.5121 94.2827 60.433C94.217 60.3538 94.1364 60.2883 94.0455 60.2403C93.9546 60.1923 93.8551 60.1627 93.7527 60.1531C93.3219 60.113 92.9401 60.4296 92.9002 60.8601C91.9527 71.0166 83.4908 78.7425 73.5152 79.025C77.0949 77.8614 80.3697 75.7526 82.9089 72.946C86.0859 69.4343 87.9839 65.078 88.3977 60.3479C88.5451 58.6667 88.4958 56.9739 88.2507 55.3041C88.2341 55.1913 88.193 55.0834 88.1304 54.9881C88.0677 54.8928 87.985 54.8123 87.888 54.7523C87.791 54.6923 87.6821 54.6542 87.5689 54.6406C87.4556 54.6271 87.3408 54.6384 87.2324 54.6739L84.3569 55.6147L87.0324 45.5269L95.4153 51.9966L92.816 52.8471C92.6254 52.9094 92.4661 53.0424 92.3706 53.2187C92.2752 53.3951 92.2511 53.6013 92.3031 53.7949C92.6448 55.0663 92.8601 56.3683 92.9459 57.6821C92.9525 57.7847 92.9793 57.885 93.0248 57.9773C93.0702 58.0695 93.1334 58.1519 93.2107 58.2198C93.2879 58.2876 93.3778 58.3396 93.4752 58.3727C93.5726 58.4058 93.6755 58.4194 93.7781 58.4128C93.8808 58.4061 93.9811 58.3793 94.0734 58.3339C94.1656 58.2885 94.248 58.2253 94.3159 58.148C94.3837 58.0707 94.4357 57.9808 94.4688 57.8835C94.5019 57.7861 94.5155 57.6831 94.5088 57.5805C94.4325 56.4114 94.261 55.2504 93.9961 54.1091L96.518 53.2839C96.7296 53.215 96.9183 53.0896 97.0637 52.9212C97.2092 52.7529 97.3059 52.548 97.3433 52.3287C97.3813 52.1095 97.3587 51.8841 97.2779 51.6768C97.1971 51.4696 97.0613 51.2883 96.885 51.1526Z" fill="#232323"/>
</g>
<defs>
<clipPath id="clip0_1041_4322">
<rect width="100" height="100" fill="white"/>
</clipPath>
</defs>
</svg>
