<svg width="100" height="100" viewBox="0 0 100 100" fill="none" xmlns="http://www.w3.org/2000/svg">
<path d="M6.64062 42.5906V88.225C6.64062 91.2254 9.07305 93.6578 12.0734 93.6578H65.4656C68.466 93.6578 70.8984 91.2254 70.8984 88.225V17.3527C70.8984 14.3523 68.466 11.9199 65.4656 11.9199H12.0734C9.07305 11.9195 6.64062 14.3523 6.64062 17.3527V37.1062V42.5906Z" fill="#87796F"/>
<path d="M65.4656 94.2441H12.0734C8.75469 94.2441 6.05469 91.5441 6.05469 88.2254V42.5906C6.05469 42.5137 6.06984 42.4375 6.09929 42.3664C6.12874 42.2953 6.1719 42.2307 6.2263 42.1763C6.28071 42.1219 6.34531 42.0787 6.4164 42.0493C6.48749 42.0198 6.56368 42.0047 6.64062 42.0047C6.71757 42.0047 6.79376 42.0198 6.86485 42.0493C6.93594 42.0787 7.00054 42.1219 7.05495 42.1763C7.10935 42.2307 7.15251 42.2953 7.18196 42.3664C7.21141 42.4375 7.22656 42.5137 7.22656 42.5906V88.225C7.22656 90.8977 9.40078 93.0719 12.0734 93.0719H65.4656C68.1383 93.0719 70.3125 90.8977 70.3125 88.225V17.3527C70.3125 14.6801 68.1383 12.5059 65.4656 12.5059H12.0734C9.40078 12.5059 7.22656 14.6805 7.22656 17.3527V37.1059C7.22656 37.2613 7.16483 37.4103 7.05495 37.5202C6.94506 37.6301 6.79603 37.6918 6.64062 37.6918C6.48522 37.6918 6.33619 37.6301 6.2263 37.5202C6.11642 37.4103 6.05469 37.2613 6.05469 37.1059V17.3527C6.05469 14.034 8.75469 11.334 12.0734 11.334H65.4656C68.7844 11.334 71.4844 14.034 71.4844 17.3527V88.2254C71.4844 91.5437 68.7844 94.2441 65.4656 94.2441Z" fill="#3A312A"/>
<path d="M43.0342 88.8554H62.7857C63.1483 88.8555 63.5074 88.7841 63.8424 88.6454C64.1774 88.5066 64.4818 88.3033 64.7381 88.0469C64.9945 87.7905 65.1979 87.4861 65.3366 87.1511C65.4754 86.8161 65.5467 86.4571 65.5467 86.0945V20.0515C65.5467 19.3193 65.2558 18.617 64.738 18.0992C64.2202 17.5815 63.518 17.2906 62.7857 17.2906H14.7541C14.0219 17.2906 13.3196 17.5815 12.8018 18.0992C12.284 18.617 11.9932 19.3193 11.9932 20.0515V86.0945C11.9931 86.4571 12.0645 86.8161 12.2032 87.1511C12.342 87.4861 12.5453 87.7905 12.8017 88.0469C13.0581 88.3033 13.3625 88.5066 13.6975 88.6454C14.0325 88.7841 14.3915 88.8555 14.7541 88.8554H38.0721H43.0342Z" fill="#FAE6CA"/>
<path d="M62.7854 89.4414H43.0338C42.8784 89.4414 42.7294 89.3797 42.6195 89.2698C42.5096 89.1599 42.4479 89.0109 42.4479 88.8555C42.4479 88.7001 42.5096 88.551 42.6195 88.4411C42.7294 88.3313 42.8784 88.2695 43.0338 88.2695H62.7854C63.3619 88.2689 63.9147 88.0396 64.3225 87.6319C64.7302 87.2243 64.9596 86.6715 64.9604 86.0949V20.0516C64.9597 19.4749 64.7304 18.9221 64.3226 18.5144C63.9148 18.1067 63.362 17.8775 62.7854 17.877H14.7541C14.1775 17.8776 13.6247 18.1069 13.217 18.5145C12.8092 18.9222 12.5798 19.475 12.5791 20.0516V86.0945C12.5798 86.6711 12.8092 87.2239 13.217 87.6316C13.6247 88.0392 14.1775 88.2685 14.7541 88.2691H38.0721C38.2275 88.2691 38.3765 88.3309 38.4864 88.4408C38.5963 88.5506 38.658 88.6997 38.658 88.8551C38.658 89.0105 38.5963 89.1595 38.4864 89.2694C38.3765 89.3793 38.2275 89.441 38.0721 89.441H14.7541C12.9088 89.441 11.4072 87.9395 11.4072 86.0945V20.0516C11.4072 18.2063 12.9088 16.7051 14.7541 16.7051H62.7854C64.6307 16.7051 66.1322 18.2066 66.1322 20.0516V86.0945C66.1322 87.9398 64.6311 89.4414 62.7854 89.4414Z" fill="#3A312A"/>
<path d="M62.7852 17.875H56.9258C58.125 17.875 59.1016 18.8516 59.1016 20.0508V86.0938C59.1016 87.293 58.125 88.2695 56.9258 88.2695H62.7852C63.9844 88.2695 64.9609 87.293 64.9609 86.0938V20.0508C64.9609 18.8516 63.9844 17.875 62.7852 17.875Z" fill="#DECAAD"/>
<path d="M88.1918 10.1223C88.1918 10.1223 89.5238 15.0672 93.3594 15.2965C93.3594 15.2965 88.2394 17.0641 88.1531 20.8441C88.1531 20.8441 87.1453 15.5426 83.1016 15.3523C83.1016 15.3523 87.8113 14.6391 88.1918 10.1223Z" fill="#D7E057"/>
<path d="M88.1529 21.4297C88.0168 21.4296 87.8849 21.3821 87.78 21.2953C87.6751 21.2086 87.6036 21.088 87.5779 20.9543C87.5686 20.9058 86.6029 16.1035 83.0744 15.9371C82.9293 15.9301 82.792 15.8695 82.689 15.767C82.5861 15.6644 82.5249 15.5273 82.5174 15.3822C82.5098 15.2372 82.5565 15.0944 82.6482 14.9818C82.74 14.8692 82.8703 14.7946 83.0139 14.7726C83.1861 14.7461 87.2717 14.0633 87.608 10.073C87.6188 9.93519 87.678 9.80563 87.7752 9.70729C87.8724 9.60896 88.0012 9.54821 88.1389 9.53581C88.2766 9.52341 88.4142 9.56015 88.5274 9.63954C88.6406 9.71892 88.722 9.83582 88.7572 9.9695C88.7697 10.0148 90.0307 14.5109 93.394 14.7121C93.5294 14.7199 93.6579 14.7745 93.7575 14.8666C93.8572 14.9586 93.9217 15.0824 93.9402 15.2168C93.9587 15.3512 93.93 15.4879 93.8589 15.6034C93.7879 15.7189 93.6789 15.8062 93.5506 15.8504C93.5033 15.8672 88.8147 17.5347 88.7385 20.8578C88.7348 21.0107 88.6715 21.1561 88.5621 21.2629C88.4527 21.3698 88.3059 21.4296 88.1529 21.4297ZM85.1275 15.2855C86.6432 16.055 87.5623 17.5304 88.0928 18.7535C88.8846 17.1828 90.415 16.1019 91.5904 15.4613C89.9744 14.7414 88.9393 13.2531 88.3334 12.0535C87.6322 13.757 86.2729 14.7367 85.1275 15.2855Z" fill="#3A312A"/>
<path d="M79.7117 16.7551C79.7117 16.7551 80.6539 20.2527 83.3668 20.4152C83.3668 20.4152 79.7453 21.6656 79.6844 24.339C79.6844 24.339 78.9715 20.589 76.1113 20.4547C76.1113 20.4547 79.4426 19.95 79.7117 16.7551Z" fill="#D7E057"/>
<path d="M79.6832 24.925C79.5469 24.9248 79.4149 24.8772 79.3099 24.7902C79.205 24.7032 79.1337 24.5823 79.1082 24.4484C79.102 24.4164 78.4422 21.1508 76.0832 21.0394C75.9381 21.0325 75.8008 20.9718 75.6978 20.8693C75.5949 20.7668 75.5337 20.6297 75.5262 20.4846C75.5186 20.3395 75.5653 20.1968 75.657 20.0841C75.7487 19.9715 75.8791 19.897 76.0227 19.875C76.1383 19.8566 78.9008 19.3898 79.127 16.7058C79.1387 16.5687 79.1983 16.44 79.2954 16.3424C79.3925 16.2448 79.5209 16.1845 79.658 16.1721C79.7951 16.1597 79.9322 16.196 80.0453 16.2746C80.1583 16.3532 80.2401 16.4691 80.2762 16.6019C80.2848 16.6328 81.1469 19.6961 83.4004 19.8308C83.5357 19.839 83.664 19.8938 83.7634 19.9859C83.8629 20.078 83.9273 20.2018 83.9457 20.3361C83.9642 20.4704 83.9355 20.6069 83.8645 20.7224C83.7936 20.8379 83.6848 20.9252 83.5567 20.9695C83.525 20.9804 80.3195 22.123 80.2688 24.3527C80.2652 24.5057 80.2019 24.6511 80.0925 24.7581C79.9831 24.865 79.8362 24.9249 79.6832 24.925ZM77.9168 20.4218C78.7406 20.9425 79.2938 21.748 79.6551 22.4847C80.193 21.6129 81.0293 20.9718 81.752 20.5418C80.8582 20.0461 80.2336 19.2324 79.8207 18.5004C79.3621 19.3941 78.6422 20.0152 77.9168 20.4218Z" fill="#3A312A"/>
<path d="M79.7117 6.34216C79.7117 6.34216 80.6539 9.83982 83.3668 10.0023C83.3668 10.0023 79.7453 11.2527 79.6844 13.9261C79.6844 13.9261 78.9715 10.1761 76.1113 10.0418C76.1113 10.0414 79.4426 9.53708 79.7117 6.34216Z" fill="#D7E057"/>
<path d="M79.6832 14.5117C79.5469 14.5116 79.4149 14.4639 79.3099 14.3769C79.205 14.2899 79.1337 14.1691 79.1082 14.0351C79.102 14.0031 78.4422 10.7375 76.0832 10.6262C75.9381 10.6192 75.8008 10.5586 75.6978 10.456C75.5949 10.3535 75.5337 10.2164 75.5262 10.0713C75.5186 9.92624 75.5653 9.78353 75.657 9.67088C75.7487 9.55823 75.8791 9.48369 76.0227 9.4617C76.1383 9.44334 78.9008 8.97655 79.127 6.29256C79.1387 6.15539 79.1983 6.02672 79.2954 5.92912C79.3925 5.83153 79.5209 5.77125 79.658 5.75885C79.7951 5.74645 79.9322 5.78273 80.0453 5.86133C80.1583 5.93992 80.2401 6.05581 80.2762 6.18866C80.2848 6.21952 81.1469 9.28241 83.4008 9.41756C83.5361 9.42577 83.6643 9.48063 83.7637 9.57278C83.8631 9.66493 83.9274 9.78868 83.9458 9.92296C83.9642 10.0572 83.9355 10.1937 83.8645 10.3092C83.7935 10.4247 83.6847 10.512 83.5567 10.5562C83.5254 10.5672 80.3195 11.7094 80.2691 13.9394C80.2655 14.0924 80.2021 14.2379 80.0927 14.3448C79.9832 14.4518 79.8362 14.5116 79.6832 14.5117ZM77.9168 10.009C78.7406 10.5297 79.2938 11.3351 79.6551 12.0715C80.193 11.1996 81.0289 10.559 81.752 10.1289C80.8582 9.63241 80.2336 8.81952 79.8207 8.08748C79.3621 8.98123 78.6422 9.60233 77.9168 10.009Z" fill="#3A312A"/>
<path d="M47.9922 10.2637C47.5133 10.2637 47.0539 10.0508 46.7637 9.66993C45.2738 7.71525 42.2543 6.37775 38.7695 6.37775C35.2848 6.37775 32.2648 7.71525 30.7754 9.66993C30.4852 10.0508 30.0258 10.2637 29.5469 10.2637H25.5703C25.1342 10.2637 24.7159 10.4369 24.4075 10.7454C24.099 11.0538 23.9258 11.4721 23.9258 11.9082V17.3039C23.9258 17.7401 24.099 18.1584 24.4075 18.4668C24.7159 18.7752 25.1342 18.9485 25.5703 18.9485H51.9684C52.1843 18.9484 52.3982 18.9059 52.5977 18.8233C52.7972 18.7406 52.9785 18.6195 53.1312 18.4668C53.2839 18.3141 53.4051 18.1328 53.4877 17.9333C53.5704 17.7337 53.6129 17.5199 53.6129 17.3039V11.9082C53.6129 11.6923 53.5704 11.4784 53.4877 11.2789C53.4051 11.0794 53.2839 10.8981 53.1312 10.7454C52.9785 10.5926 52.7972 10.4715 52.5977 10.3889C52.3982 10.3062 52.1843 10.2637 51.9684 10.2637H47.9922Z" fill="#F16C7A"/>
<path d="M51.9684 19.5347H25.5699C24.9786 19.5341 24.4116 19.2989 23.9934 18.8808C23.5753 18.4626 23.3401 17.8956 23.3395 17.3043V11.9082C23.3402 11.3168 23.5754 10.7499 23.9935 10.3318C24.4117 9.91366 24.9786 9.67843 25.5699 9.67771H29.5461C29.8504 9.67771 30.1355 9.54177 30.3086 9.31443C31.9648 7.14138 35.2066 5.79138 38.7691 5.79138C42.3316 5.79138 45.5734 7.14138 47.2293 9.31443C47.4027 9.54177 47.6875 9.67771 47.9918 9.67771H51.968C52.5593 9.67833 53.1263 9.91353 53.5445 10.3317C53.9626 10.7498 54.1978 11.3168 54.1984 11.9082V17.3039C54.198 17.8953 53.963 18.4624 53.5448 18.8806C53.1267 19.2989 52.5598 19.5341 51.9684 19.5347ZM25.5699 10.8496C25.2893 10.8499 25.0202 10.9615 24.8217 11.16C24.6233 11.3584 24.5116 11.6275 24.5113 11.9082V17.3039C24.5116 17.5845 24.6233 17.8536 24.8217 18.0521C25.0202 18.2505 25.2893 18.3622 25.5699 18.3625H51.968C52.2486 18.3622 52.5177 18.2505 52.7162 18.0521C52.9146 17.8536 53.0262 17.5845 53.0266 17.3039V11.9082C53.0262 11.6275 52.9146 11.3584 52.7162 11.16C52.5177 10.9615 52.2486 10.8499 51.968 10.8496H47.9918C47.3242 10.8496 46.6906 10.5414 46.2973 10.025C44.8582 8.13669 41.9738 6.96365 38.7691 6.96365C35.5645 6.96365 32.6801 8.13669 31.241 10.025C30.8477 10.5414 30.2141 10.8496 29.5465 10.8496H25.5699ZM58.0695 75.7812H19.4688C19.3918 75.7812 19.3156 75.7661 19.2445 75.7366C19.1734 75.7072 19.1088 75.664 19.0544 75.6096C19 75.5552 18.9569 75.4906 18.9274 75.4195C18.898 75.3484 18.8828 75.2722 18.8828 75.1953C18.8828 75.1183 18.898 75.0422 18.9274 74.9711C18.9569 74.9 19 74.8354 19.0544 74.781C19.1088 74.7266 19.1734 74.6834 19.2445 74.654C19.3156 74.6245 19.3918 74.6094 19.4688 74.6094H58.0691C58.2245 74.6093 58.3736 74.671 58.4835 74.7808C58.5934 74.8907 58.6552 75.0397 58.6553 75.1951C58.6553 75.3505 58.5936 75.4995 58.4838 75.6095C58.3739 75.7194 58.2249 75.7812 58.0695 75.7812ZM58.0695 82.6172H19.4688C19.3133 82.6172 19.1643 82.5554 19.0544 82.4455C18.9445 82.3357 18.8828 82.1866 18.8828 82.0312C18.8828 81.8758 18.9445 81.7268 19.0544 81.6169C19.1643 81.507 19.3133 81.4453 19.4688 81.4453H58.0691C58.1461 81.4453 58.2223 81.4604 58.2934 81.4898C58.3645 81.5192 58.4291 81.5624 58.4835 81.6168C58.5379 81.6712 58.5811 81.7357 58.6106 81.8068C58.6401 81.8779 58.6552 81.9541 58.6553 82.031C58.6553 82.108 58.6402 82.1842 58.6107 82.2553C58.5813 82.3264 58.5382 82.391 58.4838 82.4454C58.4294 82.4998 58.3648 82.543 58.2937 82.5725C58.2227 82.602 58.1465 82.6171 58.0695 82.6172Z" fill="#3A312A"/>
<path d="M22.4008 64.5379C21.6141 64.538 20.8597 64.2257 20.3032 63.6696C19.7468 63.1136 19.434 62.3593 19.4336 61.5727V38.9777C19.4336 38.5881 19.5103 38.2023 19.6595 37.8423C19.8086 37.4823 20.0271 37.1552 20.3027 36.8796C20.5782 36.6041 20.9053 36.3855 21.2653 36.2364C21.6253 36.0873 22.0111 36.0106 22.4008 36.0106H55.1383C56.777 36.0106 58.1055 37.3387 58.1055 38.9777V61.5723C58.1055 63.2094 56.7773 64.5375 55.1383 64.5375L22.4008 64.5379Z" fill="#D7E057"/>
<path d="M55.1383 65.1238H22.4008C20.4414 65.1238 18.8477 63.5309 18.8477 61.5723V38.9777C18.8477 37.0184 20.4418 35.4246 22.4008 35.4246H55.1383C57.0977 35.4246 58.6914 37.0184 58.6914 38.9777V61.5723C58.6914 63.5309 57.0977 65.1238 55.1383 65.1238ZM22.4008 36.5969C21.7695 36.5976 21.1642 36.8487 20.7178 37.2951C20.2714 37.7416 20.0203 38.3468 20.0195 38.9781V61.5727C20.0205 62.2038 20.2717 62.8088 20.7181 63.2549C21.1645 63.701 21.7697 63.9518 22.4008 63.9524H55.1383C55.7694 63.9519 56.3746 63.7011 56.8211 63.255C57.2675 62.8089 57.5187 62.2038 57.5195 61.5727V38.9777C57.5188 38.3464 57.2677 37.7412 56.8213 37.2948C56.3749 36.8483 55.7696 36.5972 55.1383 36.5965H22.4008V36.5969Z" fill="#3A312A"/>
<path d="M30.2725 31.9008V36.0106H33.0471V32.1973H44.4924V36.0106H47.267V31.9008C47.2663 31.2438 47.0049 30.6139 46.5404 30.1493C46.0758 29.6847 45.4459 29.4234 44.7889 29.4227H32.7506C32.0935 29.4233 31.4636 29.6846 30.999 30.1492C30.5344 30.6138 30.2731 31.2437 30.2725 31.9008Z" fill="#87796F"/>
<path d="M47.2664 36.5969H44.4918C44.3364 36.5969 44.1874 36.5352 44.0775 36.4253C43.9676 36.3154 43.9059 36.1664 43.9059 36.011V32.7832H33.6324V36.011C33.6324 36.1664 33.5707 36.3154 33.4608 36.4253C33.3509 36.5352 33.2019 36.5969 33.0465 36.5969H30.2715C30.1161 36.5969 29.967 36.5352 29.8572 36.4253C29.7473 36.3154 29.6855 36.1664 29.6855 36.011V31.9008C29.6855 30.2113 31.0602 28.8367 32.7496 28.8367H44.7883C46.4777 28.8367 47.8523 30.211 47.8523 31.9008V36.0106C47.8524 36.0875 47.8373 36.1638 47.8079 36.2349C47.7784 36.306 47.7353 36.3707 47.6809 36.4251C47.6264 36.4796 47.5618 36.5228 47.4907 36.5522C47.4196 36.5817 47.3434 36.5969 47.2664 36.5969ZM45.0777 35.425H46.6805V31.9012C46.6798 31.3995 46.4803 30.9186 46.1256 30.5639C45.7709 30.2092 45.2899 30.0096 44.7883 30.009H32.75C32.2484 30.0096 31.7674 30.2092 31.4127 30.5639C31.058 30.9186 30.8584 31.3995 30.8578 31.9012V35.425H32.4605V32.1973C32.4605 32.0419 32.5223 31.8928 32.6322 31.783C32.742 31.6731 32.8911 31.6113 33.0465 31.6113H44.4918C44.6472 31.6113 44.7962 31.6731 44.9061 31.783C45.016 31.8928 45.0777 32.0419 45.0777 32.1973V35.425Z" fill="#3A312A"/>
<path d="M19.4336 43.9063V38.9777C19.4336 38.5881 19.5103 38.2023 19.6595 37.8423C19.8086 37.4823 20.0271 37.1552 20.3027 36.8796C20.5782 36.6041 20.9053 36.3855 21.2653 36.2364C21.6253 36.0873 22.0111 36.0106 22.4008 36.0106H55.1383C55.9252 36.0106 56.6799 36.3232 57.2364 36.8796C57.7929 37.4361 58.1055 38.1908 58.1055 38.9777V43.9063L41.0254 51.4567C40.3148 51.7708 39.5464 51.933 38.7695 51.933C37.9926 51.933 37.2243 51.7708 36.5137 51.4567L19.4336 43.9063Z" fill="#F16C7A"/>
<path d="M38.7695 52.518C37.9111 52.5184 37.0621 52.3395 36.277 51.9926L19.1969 44.4422C19.093 44.3963 19.0047 44.3212 18.9427 44.2261C18.8807 44.1309 18.8477 44.0198 18.8477 43.9063V38.9777C18.8477 37.0184 20.4418 35.4246 22.4008 35.4246H55.1383C57.0977 35.4246 58.6914 37.0184 58.6914 38.9777V43.9063C58.6914 44.0198 58.6584 44.1309 58.5964 44.2261C58.5344 44.3212 58.4461 44.3963 58.3422 44.4422L41.2621 51.9926C40.4769 52.3395 39.6279 52.5184 38.7695 52.518ZM20.0195 43.525L36.7504 50.9211C37.3865 51.2016 38.0741 51.3465 38.7693 51.3465C39.4646 51.3465 40.1522 51.2016 40.7883 50.9211L57.5191 43.525V38.9777C57.5184 38.3464 57.2673 37.7412 56.8209 37.2948C56.3745 36.8483 55.7692 36.5972 55.1379 36.5965H22.4008C21.7695 36.5972 21.1642 36.8483 20.7178 37.2948C20.2714 37.7412 20.0203 38.3464 20.0195 38.9777V43.525Z" fill="#3A312A"/>
<path d="M37.1221 47.6851C37.1221 47.9015 37.1647 48.1158 37.2475 48.3157C37.3303 48.5156 37.4517 48.6972 37.6047 48.8502C37.7577 49.0032 37.9393 49.1246 38.1392 49.2074C38.3391 49.2902 38.5534 49.3328 38.7697 49.3328C38.9861 49.3328 39.2004 49.2902 39.4003 49.2074C39.6002 49.1246 39.7818 49.0032 39.9348 48.8502C40.0878 48.6972 40.2092 48.5156 40.292 48.3157C40.3748 48.1158 40.4174 47.9015 40.4174 47.6851C40.4174 47.2481 40.2438 46.8291 39.9348 46.5201C39.6258 46.2111 39.2067 46.0375 38.7697 46.0375C38.3327 46.0375 37.9137 46.2111 37.6047 46.5201C37.2957 46.8291 37.1221 47.2481 37.1221 47.6851Z" fill="#3A312A"/>
<path d="M50.6568 42.9164H52.0283C52.3064 42.9164 52.5731 43.0268 52.7697 43.2235C52.9663 43.4201 53.0768 43.6868 53.0768 43.9648V49.7586C53.0768 50.0366 52.9663 50.3033 52.7697 50.4999C52.5731 50.6965 52.3064 50.807 52.0283 50.807H50.6568C50.3788 50.807 50.1121 50.6965 49.9155 50.4999C49.7189 50.3033 49.6084 50.0366 49.6084 49.7586V43.9648C49.6084 43.6868 49.7189 43.4201 49.9155 43.2235C50.1121 43.0268 50.3788 42.9164 50.6568 42.9164Z" fill="#8AC6DD"/>
<path d="M52.0283 51.3925H50.6568C50.2235 51.392 49.808 51.2196 49.5016 50.9131C49.1952 50.6067 49.0229 50.1911 49.0225 49.7578V43.964C49.023 43.5307 49.1953 43.1153 49.5017 42.8089C49.8081 42.5025 50.2235 42.3302 50.6568 42.3297H52.0283C52.4616 42.3302 52.877 42.5025 53.1834 42.8089C53.4898 43.1153 53.6622 43.5307 53.6627 43.964V49.7578C53.6624 50.1912 53.4901 50.6068 53.1837 50.9132C52.8773 51.2197 52.4617 51.3921 52.0283 51.3925ZM50.6568 43.5019C50.4018 43.5019 50.1943 43.7093 50.1943 43.9644V49.7582C50.1943 50.0132 50.4018 50.2211 50.6568 50.2211H52.0283C52.2834 50.2211 52.4908 50.0136 52.4908 49.7582V43.9644C52.4908 43.7097 52.2834 43.5019 52.0283 43.5019H50.6568Z" fill="#3A312A"/>
<path d="M25.5113 42.9164H26.8828C27.0205 42.9163 27.1569 42.9434 27.2841 42.9961C27.4113 43.0488 27.5269 43.126 27.6243 43.2233C27.7217 43.3207 27.7989 43.4363 27.8515 43.5635C27.9042 43.6908 27.9313 43.8271 27.9312 43.9648V49.7586C27.9312 50.0366 27.8208 50.3033 27.6242 50.4999C27.4275 50.6965 27.1609 50.807 26.8828 50.807H25.5113C25.2333 50.807 24.9666 50.6965 24.77 50.4999C24.5734 50.3033 24.4629 50.0366 24.4629 49.7586V43.9648C24.4628 43.8271 24.4899 43.6908 24.5426 43.5635C24.5953 43.4363 24.6725 43.3207 24.7699 43.2233C24.8672 43.126 24.9828 43.0488 25.11 42.9961C25.2373 42.9434 25.3736 42.9163 25.5113 42.9164Z" fill="#8AC6DD"/>
<path d="M26.8828 51.3925H25.5113C25.078 51.392 24.6625 51.2196 24.3561 50.9131C24.0497 50.6067 23.8774 50.1911 23.877 49.7578V43.964C23.8775 43.5307 24.0498 43.1153 24.3562 42.8089C24.6626 42.5025 25.078 42.3302 25.5113 42.3297H26.8828C27.3161 42.3302 27.7315 42.5025 28.0379 42.8089C28.3443 43.1153 28.5167 43.5307 28.5172 43.964V49.7578C28.5169 50.1912 28.3446 50.6068 28.0382 50.9132C27.7317 51.2197 27.3162 51.3921 26.8828 51.3925ZM25.5117 43.5019C25.2566 43.5019 25.0492 43.7093 25.0492 43.9644V49.7582C25.0492 50.0132 25.2566 50.2211 25.5117 50.2211H26.8832C27.1383 50.2211 27.3457 50.0136 27.3457 49.7582V43.9644C27.3457 43.7097 27.1383 43.5019 26.8832 43.5019H25.5117Z" fill="#3A312A"/>
<path d="M67.5215 71.9312L76.2125 80.616C76.3414 80.3234 76.5269 80.0496 76.7664 79.8105L79.5133 77.0636C79.7452 76.8308 80.0183 76.643 80.3188 76.5097L71.6309 67.8218L67.5215 71.9312Z" fill="#87796F"/>
<path d="M76.2128 81.2019C76.0589 81.2019 75.9096 81.1414 75.7987 81.0308L67.1077 72.3465C67.0532 72.2921 67.0099 72.2275 66.9803 72.1563C66.9508 72.0852 66.9356 72.0089 66.9355 71.9319C66.9355 71.8549 66.9507 71.7786 66.9801 71.7074C67.0096 71.6363 67.0528 71.5716 67.1073 71.5172L71.2167 67.4078C71.4366 67.1879 71.8257 67.1879 72.0452 67.4078L80.7331 76.0957C80.8004 76.1631 80.8503 76.2458 80.8785 76.3368C80.9066 76.4278 80.9122 76.5243 80.8947 76.6179C80.8772 76.7115 80.8372 76.7995 80.778 76.8742C80.7189 76.9488 80.6425 77.008 80.5553 77.0465C80.3211 77.1502 80.1083 77.2966 79.9276 77.4781L77.1811 80.2246C76.9995 80.4053 76.853 80.6182 76.7491 80.8523C76.7032 80.9563 76.6281 81.0448 76.5329 81.1069C76.4377 81.1689 76.3264 81.202 76.2128 81.2019ZM68.3503 71.9316L76.1014 79.6769C76.1792 79.5793 76.2628 79.4855 76.3522 79.3961L79.0991 76.6492C79.1885 76.5598 79.2819 76.4766 79.3792 76.3988L71.6311 68.6504L68.3503 71.9316Z" fill="#3A312A"/>
<path d="M71.2346 74.2649C79.6508 67.3788 80.8912 54.9737 74.005 46.5574C67.1189 38.1412 54.7138 36.9008 46.2976 43.787C37.8813 50.6732 36.6409 63.0782 43.5271 71.4945C50.4133 79.9107 62.8183 81.1511 71.2346 74.2649Z" fill="#87796F"/>
<path d="M58.7719 79.3367C53.5797 79.3367 48.3875 77.3605 44.4348 73.4074C40.6051 69.5777 38.4961 64.4859 38.4961 59.0703C38.4961 53.6543 40.6051 48.5629 44.4348 44.7332C52.3402 36.8277 65.2035 36.8277 73.109 44.7332C81.0145 52.6383 81.0145 65.5019 73.109 73.4074C69.1562 77.3605 63.9641 79.3367 58.7719 79.3367ZM45.2633 72.5793C52.7117 80.0277 64.832 80.0277 72.2805 72.5793C79.7289 65.1304 79.7289 53.0105 72.2805 45.5621C64.832 38.1136 52.7117 38.1136 45.2633 45.5621C41.6551 49.1703 39.668 53.9676 39.668 59.0707C39.668 64.173 41.6551 68.9707 45.2633 72.5793Z" fill="#3A312A"/>
<path d="M92.5666 86.2918C93.0741 86.7994 93.3593 87.4878 93.3593 88.2056C93.3593 88.9235 93.0741 89.6119 92.5666 90.1195L89.8209 92.8652C89.3133 93.3728 88.6248 93.658 87.907 93.658C87.1892 93.658 86.5007 93.3728 85.9931 92.8652L76.7654 83.6375C76.2578 83.1299 75.9727 82.4414 75.9727 81.7236C75.9727 81.0058 76.2578 80.3173 76.7654 79.8097L79.5111 77.064C80.0187 76.5565 80.7071 76.2713 81.425 76.2713C82.1428 76.2713 82.8312 76.5565 83.3388 77.064L92.5666 86.2918Z" fill="#F16C7A"/>
<path d="M87.9075 94.2422C87.4752 94.243 87.0469 94.1584 86.6473 93.9932C86.2478 93.8279 85.8849 93.5853 85.5794 93.2793L76.3517 84.052C75.0677 82.7684 75.0677 80.6789 76.3517 79.3953L79.0974 76.65C80.3814 75.3656 82.47 75.3664 83.7536 76.65L92.9813 85.8777C94.2649 87.1617 94.2649 89.2504 92.9813 90.534L90.2356 93.2797C89.9301 93.5856 89.5672 93.8281 89.1676 93.9932C88.7681 94.1584 88.3399 94.243 87.9075 94.2422ZM81.4255 76.8574C81.1469 76.8566 80.8708 76.911 80.6134 77.0177C80.356 77.1243 80.1223 77.2809 79.9259 77.4785L77.1802 80.2238C76.9826 80.4204 76.826 80.6541 76.7194 80.9116C76.6128 81.1691 76.5583 81.4452 76.5591 81.7238C76.5591 82.2902 76.7798 82.8227 77.1802 83.2234L86.4079 92.4508C86.806 92.8478 87.3452 93.0708 87.9074 93.0709C88.4697 93.0709 89.009 92.8481 89.4071 92.4512L92.1528 89.7055C92.5498 89.3074 92.7727 88.7681 92.7727 88.2059C92.7727 87.6436 92.5498 87.1044 92.1528 86.7063L82.9251 77.4785C82.7287 77.2809 82.495 77.1243 82.2375 77.0177C81.9801 76.911 81.7041 76.8566 81.4255 76.8574Z" fill="#3A312A"/>
<path d="M48.0109 69.8312C53.9539 75.7742 63.5891 75.7742 69.532 69.8312C75.475 63.8883 75.475 54.2531 69.532 48.3101C63.5891 42.3672 53.9539 42.3672 48.0109 48.3101C42.068 54.2527 42.068 63.8883 48.0109 69.8312Z" fill="#8AC6DD"/>
<path d="M58.7723 74.8668C54.7254 74.8668 50.6785 73.3265 47.5977 70.2453C44.6125 67.2601 42.9688 63.2918 42.9688 59.0707C42.9688 54.8492 44.6129 50.8804 47.5977 47.8961C53.7598 41.7336 63.7855 41.7343 69.9473 47.8961C72.9324 50.8808 74.5762 54.8496 74.5762 59.0707C74.5762 63.2921 72.9324 67.2605 69.9473 70.2453C66.866 73.3265 62.8191 74.8668 58.7723 74.8668ZM58.7723 44.4457C55.0254 44.4457 51.2785 45.8718 48.4262 48.7242C45.6625 51.4875 44.1406 55.1617 44.1406 59.0703C44.1406 62.9785 45.6625 66.6527 48.4262 69.4164C54.1309 75.1211 63.4141 75.1211 69.1187 69.4164C71.8824 66.6527 73.4043 62.9785 73.4043 59.0703C73.4043 55.1617 71.8824 51.4875 69.1187 48.7242C66.266 45.8722 62.5191 44.4457 58.7723 44.4457Z" fill="#3A312A"/>
<path d="M68.2723 58.6195H65.1621C65.0067 58.6195 64.8577 58.5577 64.7478 58.4479C64.6379 58.338 64.5762 58.1889 64.5762 58.0335V54.5781C64.5762 54.4227 64.6379 54.2736 64.7478 54.1637C64.8577 54.0539 65.0067 53.9921 65.1621 53.9921H68.2723C69.548 53.9921 70.5859 55.03 70.5859 56.3058C70.5859 57.5816 69.548 58.6195 68.2723 58.6195ZM65.748 57.4476H68.2723C68.9019 57.4476 69.4141 56.9351 69.4141 56.3058C69.4141 55.6765 68.9019 55.164 68.2723 55.164H65.748V57.4476Z" fill="#3A312A"/>
<path d="M67.9576 64.1488H65.1631C65.0077 64.1488 64.8587 64.0871 64.7488 63.9772C64.6389 63.8673 64.5771 63.7183 64.5771 63.5629V58.034C64.5771 57.8786 64.6389 57.7295 64.7488 57.6196C64.8587 57.5098 65.0077 57.448 65.1631 57.448H67.9576C69.4076 57.448 70.5865 58.6277 70.5865 60.0773V61.5191C70.5865 62.9691 69.4072 64.1488 67.9576 64.1488ZM65.7486 62.9769H67.9572C68.3436 62.9764 68.7139 62.8227 68.9871 62.5495C69.2602 62.2762 69.4138 61.9058 69.4143 61.5195V60.0777C69.4139 59.6913 69.2604 59.3209 68.9872 59.0476C68.714 58.7744 68.3436 58.6207 67.9572 58.6203H65.7486V62.9769ZM50.6541 64.1488H49.2717C48.6583 64.1481 48.0702 63.9041 47.6365 63.4703C47.2027 63.0366 46.9587 62.4485 46.958 61.8351C46.958 61.6797 47.0197 61.5307 47.1296 61.4208C47.2395 61.3109 47.3885 61.2492 47.5439 61.2492C47.6993 61.2492 47.8484 61.3109 47.9583 61.4208C48.0682 61.5307 48.1299 61.6797 48.1299 61.8351C48.1303 62.1378 48.2507 62.428 48.4648 62.6421C48.6788 62.8561 48.969 62.9765 49.2717 62.9769H50.6541C50.9568 62.9765 51.247 62.8561 51.461 62.6421C51.6751 62.428 51.7955 62.1378 51.7959 61.8351V54.5785C51.7959 54.4231 51.8576 54.2741 51.9675 54.1642C52.0774 54.0543 52.2264 53.9926 52.3818 53.9926C52.5372 53.9926 52.6863 54.0543 52.7962 54.1642C52.906 54.2741 52.9678 54.4231 52.9678 54.5785V61.8351C52.967 62.4485 52.7231 63.0366 52.2893 63.4703C51.8556 63.9041 51.2675 64.1481 50.6541 64.1488ZM58.7725 64.1488C57.1154 64.1488 55.7678 62.8008 55.7678 61.1441V56.9976C55.7678 55.341 57.1158 53.9929 58.7725 53.9929C60.4291 53.9929 61.7771 55.341 61.7771 56.9976V61.1441C61.7771 62.8008 60.4295 64.1488 58.7725 64.1488ZM58.7725 55.1644C58.2866 55.165 57.8207 55.3584 57.4772 55.7019C57.1336 56.0455 56.9403 56.5113 56.9397 56.9972V61.1437C56.9397 62.1543 57.7619 62.9765 58.7725 62.9765C59.783 62.9765 60.6053 62.1543 60.6053 61.1437V56.9972C60.6048 56.5113 60.4115 56.0454 60.0679 55.7018C59.7243 55.3582 59.2584 55.1649 58.7725 55.1644Z" fill="#3A312A"/>
</svg>
