<svg width="100" height="100" viewBox="0 0 100 100" fill="none" xmlns="http://www.w3.org/2000/svg">
<path d="M68.75 62.5H50V56.25L59.375 53.9062L68.75 56.25V62.5Z" fill="#373737"/>
<path d="M59.375 57.8125C42.9789 57.8125 29.6875 69.2055 29.6875 83.2586V96.875H89.0625V83.2586C89.0625 69.2055 75.7711 57.8125 59.375 57.8125Z" fill="#373737"/>
<path d="M54.6875 5.46875H60.9375C63.0095 5.46875 64.9966 6.29185 66.4618 7.75698C67.9269 9.22211 68.75 11.2092 68.75 13.2812V34.375H39.8438V20.3125C39.8438 16.3757 41.4076 12.6001 44.1914 9.81638C46.9751 7.03264 50.7507 5.46875 54.6875 5.46875Z" fill="#673821"/>
<path d="M59.375 57.8125C56.2047 57.8096 53.0494 58.2479 50 59.1149L52.3438 96.875H66.4062L68.75 59.1149C65.7006 58.2479 62.5453 57.8096 59.375 57.8125Z" fill="white"/>
<path d="M61.7188 71.0938H57.0312L54.6875 64.8438H64.0625L61.7188 71.0938Z" fill="#464646"/>
<path d="M59.375 96.0938L64.8438 90.625L61.7188 71.0938H57.0312L53.9062 90.625L59.375 96.0938Z" fill="#373737"/>
<path d="M53.125 65H65.625V52.5H53.125V65Z" fill="#F7B991"/>
<path d="M64.0625 68.75L59.375 64.8438L65.625 57.0312L68.75 58.9844L64.0625 68.75ZM54.6875 68.75L59.375 64.8438L53.125 57.0312L50 58.9844L54.6875 68.75Z" fill="#E6E6E6"/>
<path d="M44.1406 32.2266H41.7969C39.208 32.2266 37.1094 34.3252 37.1094 36.9141C37.1094 39.5029 39.208 41.6016 41.7969 41.6016H44.1406C46.7295 41.6016 48.8281 39.5029 48.8281 36.9141C48.8281 34.3252 46.7295 32.2266 44.1406 32.2266Z" fill="#F7B991"/>
<path d="M78.9062 38.2812L59.375 49.2187V10.1562L63.5641 8.31248C65.229 7.57997 67.0503 7.27425 68.8631 7.42299C70.676 7.57173 72.4231 8.17023 73.9464 9.16433C75.4696 10.1584 76.7209 11.5167 77.5869 13.1162C78.453 14.7158 78.9064 16.506 78.9062 18.325V38.2812Z" fill="#673821"/>
<path d="M74.6094 41.6016H76.9531C79.542 41.6016 81.6406 39.5029 81.6406 36.9141C81.6406 34.3252 79.542 32.2266 76.9531 32.2266H74.6094C72.0205 32.2266 69.9219 34.3252 69.9219 36.9141C69.9219 39.5029 72.0205 41.6016 74.6094 41.6016Z" fill="#F7B991"/>
<path d="M67.9688 18.75H51.5625L51.1266 19.768C50.5267 21.1676 49.6372 22.4244 48.5166 23.4554C47.396 24.4865 46.0697 25.2685 44.625 25.75L42.1875 26.5625V39.0625C42.1875 43.6209 43.9983 47.9926 47.2216 51.2159C50.4449 54.4392 54.8166 56.25 59.375 56.25C61.6321 56.25 63.8671 55.8054 65.9524 54.9417C68.0377 54.0779 69.9324 52.8119 71.5284 51.2159C73.1244 49.6199 74.3904 47.7252 75.2542 45.6399C76.1179 43.5546 76.5625 41.3196 76.5625 39.0625V26.5625L74.9266 26.0172C73.2634 25.4627 71.7605 24.5111 70.5481 23.2448C69.3357 21.9785 68.4504 20.4357 67.9688 18.75Z" fill="#FDCBA8"/>
<path d="M46.0257 30.2297C47.1691 29.3625 48.5648 28.8931 49.9999 28.8931C51.435 28.8931 52.8307 29.3625 53.9741 30.2297C54.142 30.3758 54.355 30.4596 54.5775 30.467C54.7999 30.4744 55.018 30.405 55.1952 30.2703C55.2664 30.1699 55.3157 30.0556 55.34 29.935C55.3642 29.8143 55.3629 29.6898 55.3361 29.5697C55.3093 29.4496 55.2576 29.3364 55.1844 29.2374C55.1111 29.1385 55.0179 29.056 54.9108 28.9953C53.4979 27.9237 51.7733 27.3436 49.9999 27.3436C48.2266 27.3436 46.5019 27.9237 45.089 28.9953C44.9819 29.056 44.8887 29.1385 44.8154 29.2374C44.7422 29.3364 44.6905 29.4496 44.6637 29.5697C44.6369 29.6898 44.6356 29.8143 44.6599 29.935C44.6841 30.0556 44.7334 30.1699 44.8046 30.2703C44.9818 30.405 45.2 30.4744 45.4224 30.467C45.6448 30.4596 45.8578 30.3758 46.0257 30.2297ZM64.7757 30.2297C65.9191 29.3625 67.3148 28.8931 68.7499 28.8931C70.185 28.8931 71.5807 29.3625 72.7241 30.2297C72.892 30.3758 73.105 30.4596 73.3275 30.467C73.5499 30.4744 73.768 30.405 73.9452 30.2703C74.0164 30.1699 74.0657 30.0556 74.09 29.935C74.1142 29.8143 74.1129 29.6898 74.0861 29.5697C74.0593 29.4496 74.0076 29.3364 73.9344 29.2374C73.8611 29.1385 73.7679 29.056 73.6608 28.9953C72.2479 27.9237 70.5233 27.3436 68.7499 27.3436C66.9766 27.3436 65.2519 27.9237 63.839 28.9953C63.7319 29.056 63.6387 29.1385 63.5654 29.2374C63.4922 29.3364 63.4405 29.4496 63.4137 29.5697C63.3869 29.6898 63.3856 29.8143 63.4099 29.935C63.4341 30.0556 63.4834 30.1699 63.5546 30.2703C63.7318 30.405 63.95 30.4744 64.1724 30.467C64.3948 30.4596 64.6078 30.3758 64.7757 30.2297Z" fill="#673821"/>
<path d="M48.7844 42.1148C45.1438 42.1148 42.9688 38.7711 42.9688 35.539C42.9688 29.7601 47.2023 29.7601 50.293 29.7601C56.3023 29.7601 58.4344 32.0336 58.4344 33.9804C58.4344 38.175 52.4141 42.1148 48.7844 42.1148Z" fill="#535150"/>
<path d="M50.2932 30.8782C46.5439 30.8782 44.0869 31.2032 44.0869 35.5391C44.0869 38.2219 45.8447 40.9969 48.7846 40.9969C51.8432 40.9969 57.3166 37.4602 57.3166 33.9805C57.3166 32.4368 55.1447 30.879 50.2932 30.879V30.8782Z" fill="#FEE0CB"/>
<path d="M69.9654 42.1148C66.3357 42.1148 60.3154 38.175 60.3154 33.9804C60.3154 32.0336 62.4482 29.7601 68.4568 29.7601C71.5475 29.7601 75.7811 29.7601 75.7811 35.539C75.7811 38.7711 73.6053 42.1148 69.9654 42.1148Z" fill="#535150"/>
<path d="M68.457 30.8782C63.6055 30.8782 61.4336 32.4368 61.4336 33.9805C61.4336 37.4602 66.907 40.9961 69.9656 40.9961C72.9062 40.9961 74.6633 38.2219 74.6633 35.5391C74.6633 31.2032 72.2062 30.8782 68.457 30.8782Z" fill="#FEE0CB"/>
<path d="M54.6875 46.875C54.6875 48.1182 55.1814 49.3105 56.0604 50.1896C56.9395 51.0686 58.1318 51.5625 59.375 51.5625C60.6182 51.5625 61.8105 51.0686 62.6896 50.1896C63.5686 49.3105 64.0625 48.1182 64.0625 46.875H54.6875Z" fill="#E62626"/>
<path d="M57.8125 42.1875C57.8125 43.0504 58.5121 43.75 59.375 43.75C60.2379 43.75 60.9375 43.0504 60.9375 42.1875V39.0625C60.9375 38.1996 60.2379 37.5 59.375 37.5C58.5121 37.5 57.8125 38.1996 57.8125 39.0625V42.1875Z" fill="#F7B991"/>
<path d="M68.75 36.7188C70.0444 36.7188 71.0938 35.6694 71.0938 34.375C71.0938 33.0806 70.0444 32.0312 68.75 32.0312C67.4556 32.0312 66.4062 33.0806 66.4062 34.375C66.4062 35.6694 67.4556 36.7188 68.75 36.7188Z" fill="#82543A"/>
<path d="M50 36.7188C51.2944 36.7188 52.3438 35.6694 52.3438 34.375C52.3438 33.0806 51.2944 32.0312 50 32.0312C48.7056 32.0312 47.6562 33.0806 47.6562 34.375C47.6562 35.6694 48.7056 36.7188 50 36.7188Z" fill="#82543A"/>
<path d="M66.4062 96.875H67.9688L76.5625 75L71.875 69.5312L77.3438 61.7188L68.75 56.25L66.4062 96.875ZM52.3438 96.875H50.7812L42.1875 75L46.875 69.5312L41.4062 61.7188L50 56.25L52.3438 96.875Z" fill="#464646"/>
<path d="M29.6875 83.2586V96.875H38.2812V65.3571C32.9703 69.9547 29.6875 76.2774 29.6875 83.2586ZM80.4688 65.3571V96.875H89.0625V83.2586C89.0625 76.2774 85.7797 69.9539 80.4688 65.3571Z" fill="#373737"/>
<path d="M60.6135 34.4688C60.2352 34.2569 59.8088 34.1457 59.3752 34.1457C58.9416 34.1457 58.5152 34.2569 58.1369 34.4688L57.5947 33.4922C58.1387 33.1876 58.7517 33.0276 59.3752 33.0276C59.9987 33.0276 60.6117 33.1876 61.1557 33.4922L60.6135 34.4688Z" fill="#535150"/>
<path d="M59.375 23.4375C64.9841 23.4375 69.5312 20.9891 69.5312 17.9688C69.5312 14.9484 64.9841 12.5 59.375 12.5C53.7659 12.5 49.2188 14.9484 49.2188 17.9688C49.2188 20.9891 53.7659 23.4375 59.375 23.4375Z" fill="#673821"/>
<path d="M28.5156 59.375H30.8594V95.7031H28.5156V59.375ZM36.7188 79.2969H48.4375C48.4375 80.8509 47.8202 82.3412 46.7213 83.4401C45.6225 84.5389 44.1321 85.1562 42.5781 85.1562C41.0241 85.1562 39.5338 84.5389 38.4349 83.4401C37.3361 82.3412 36.7188 80.8509 36.7188 79.2969Z" fill="#FAB141"/>
<path d="M42.5781 69.043L36.7188 79.2969H39.0063L42.5781 73.0469L46.15 79.2969H48.4375L42.5781 69.043ZM16.7969 69.043L10.9375 79.2969H13.225L16.7969 73.0469L20.3688 79.2969H22.6562L16.7969 69.043Z" fill="#E6E6E6"/>
<path d="M10.9375 79.2969H22.6562C22.6562 80.8509 22.0389 82.3412 20.9401 83.4401C19.8412 84.5389 18.3509 85.1562 16.7969 85.1562C15.2429 85.1562 13.7525 84.5389 12.6537 83.4401C11.5548 82.3412 10.9375 80.8509 10.9375 79.2969Z" fill="#FAB141"/>
<path d="M48.4375 67.211C48.4377 67.015 48.3887 66.8221 48.295 66.65C48.2014 66.4779 48.0661 66.3319 47.9014 66.2256C47.7368 66.1193 47.5482 66.056 47.3528 66.0414C47.1573 66.0268 46.9614 66.0615 46.7828 66.1422L45.2227 66.8477C43.8108 67.4896 42.2423 67.7055 40.7095 67.4689C39.1767 67.2323 37.7463 66.5535 36.5938 65.5157C34.6909 63.8246 32.2337 62.8906 29.688 62.8909C27.1423 62.8912 24.6852 63.8257 22.7828 65.5172C21.6299 66.5547 20.1993 67.2331 18.6664 67.4695C17.1335 67.7058 15.565 67.4897 14.1531 66.8477L12.593 66.1422C12.4144 66.0613 12.2183 66.0265 12.0228 66.041C11.8273 66.0555 11.6385 66.1188 11.4738 66.2251C11.3091 66.3315 11.1736 66.4774 11.08 66.6497C10.9863 66.8219 10.9373 67.0149 10.9375 67.211C10.9375 67.4364 11.0025 67.6571 11.1247 67.8465C11.2469 68.0359 11.4212 68.1861 11.6266 68.2789L13.1859 68.9836C15.0137 69.8143 17.0442 70.0932 19.0282 69.7862C21.0122 69.4792 22.8635 68.5997 24.3547 67.2555C25.8239 65.9492 27.7215 65.2276 29.6875 65.2276C31.6535 65.2276 33.5511 65.9492 35.0203 67.2555C36.5119 68.5991 38.3631 69.4782 40.347 69.7852C42.3308 70.0921 44.3612 69.8136 46.1891 68.9836L47.7484 68.2789C47.954 68.186 48.1283 68.0357 48.2505 67.8462C48.3728 67.6566 48.4377 67.4365 48.4375 67.211Z" fill="#FFD75A"/>
<path d="M17.3828 94.5312H41.9922V96.875H17.3828V94.5312Z" fill="#673821"/>
</svg>
