<svg width="88" height="88" viewBox="0 0 88 88" fill="none" xmlns="http://www.w3.org/2000/svg">
<path fill-rule="evenodd" clip-rule="evenodd" d="M38.0031 8.525C37.7911 6.19573 36.716 4.02984 34.989 2.45255C33.2619 0.875264 31.0077 0.000502003 28.6688 0H9.375C6.8875 0 4.50313 0.9875 2.74688 2.74688C1.87571 3.61681 1.18468 4.65003 0.713331 5.78737C0.241985 6.92472 -0.000417394 8.14386 5.39509e-07 9.375V28.6688C0.000502543 31.0077 0.875264 33.2619 2.45255 34.989C4.02984 36.716 6.19573 37.7911 8.525 38.0031L29.7469 39.9344C31.116 40.0592 32.4957 39.8814 33.7884 39.4136C35.0811 38.9457 36.2551 38.1993 37.2272 37.2272C38.1993 36.2551 38.9457 35.0811 39.4136 33.7884C39.8814 32.4957 40.0592 31.116 39.9344 29.7469L38.0031 8.525ZM31.7781 9.09063L33.7094 30.3125C33.7512 30.769 33.692 31.2292 33.5361 31.6603C33.3801 32.0914 33.1313 32.4829 32.8071 32.8071C32.4829 33.1313 32.0914 33.3801 31.6603 33.5361C31.2292 33.692 30.769 33.7512 30.3125 33.7094L9.09063 31.7781C8.31421 31.7086 7.59197 31.3509 7.0662 30.7753C6.54043 30.1998 6.24924 29.4483 6.25 28.6688V9.375C6.24876 8.96427 6.32875 8.55735 6.48536 8.17765C6.64196 7.79795 6.8721 7.45296 7.16253 7.16253C7.45296 6.8721 7.79795 6.64196 8.17765 6.48536C8.55735 6.32875 8.96427 6.24876 9.375 6.25H28.6688C30.2844 6.25 31.6344 7.48125 31.7781 9.09063Z" fill="#2B2D42"/>
<path fill-rule="evenodd" clip-rule="evenodd" d="M49.4969 8.525L47.5656 29.7469C47.4408 31.116 47.6186 32.4957 48.0864 33.7884C48.5543 35.0811 49.3007 36.2551 50.2728 37.2272C51.2449 38.1993 52.4189 38.9457 53.7116 39.4136C55.0043 39.8814 56.3841 40.0592 57.7531 39.9344L78.975 38.0031C81.3043 37.7911 83.4702 36.716 85.0474 34.9889C86.6247 33.2619 87.4995 31.0077 87.5 28.6687V9.375C87.5 6.8875 86.5125 4.50313 84.7531 2.74688C83.8832 1.87571 82.85 1.18468 81.7126 0.713331C80.5753 0.241985 79.3561 -0.000417394 78.125 5.39509e-07H58.8312C56.4923 0.000502543 54.2381 0.875264 52.5111 2.45255C50.784 4.02984 49.7089 6.19573 49.4969 8.525ZM55.7219 9.09063C55.7914 8.31421 56.1491 7.59197 56.7247 7.0662C57.3002 6.54043 58.0517 6.24924 58.8312 6.25H78.125C78.5357 6.24876 78.9426 6.32875 79.3223 6.48536C79.702 6.64196 80.047 6.8721 80.3375 7.16253C80.6279 7.45296 80.858 7.79795 81.0146 8.17765C81.1712 8.55735 81.2512 8.96427 81.25 9.375V28.6687C81.2508 29.4483 80.9596 30.1998 80.4338 30.7753C79.908 31.3509 79.1858 31.7086 78.4094 31.7781L57.1875 33.7094C56.731 33.7512 56.2708 33.692 55.8397 33.5361C55.4086 33.3801 55.0171 33.1313 54.6929 32.8071C54.3687 32.4829 54.1199 32.0914 53.9639 31.6603C53.808 31.2292 53.7488 30.769 53.7906 30.3125L55.7219 9.09063ZM38.0031 78.975L39.9344 57.7531C40.0592 56.3841 39.8814 55.0043 39.4136 53.7116C38.9457 52.4189 38.1993 51.2449 37.2272 50.2728C36.2551 49.3007 35.0811 48.5543 33.7884 48.0864C32.4957 47.6186 31.116 47.4408 29.7469 47.5656L8.525 49.4969C6.19572 49.7089 4.02984 50.784 2.45255 52.5111C0.875264 54.2381 0.000502003 56.4923 0 58.8312V78.125C0 80.6125 0.9875 82.9969 2.74687 84.7531C3.61681 85.6243 4.65003 86.3153 5.78737 86.7867C6.92472 87.258 8.14386 87.5004 9.375 87.5H28.6687C31.0077 87.4995 33.2619 86.6247 34.9889 85.0474C36.716 83.4702 37.7911 81.3043 38.0031 78.975ZM31.7781 78.4094C31.7086 79.1858 31.3509 79.908 30.7753 80.4338C30.1998 80.9596 29.4483 81.2508 28.6687 81.25H9.375C8.96427 81.2512 8.55735 81.1712 8.17765 81.0146C7.79795 80.858 7.45296 80.6279 7.16253 80.3375C6.8721 80.047 6.64196 79.702 6.48535 79.3223C6.32875 78.9426 6.24876 78.5357 6.25 78.125V58.8312C6.25 57.2156 7.48125 55.8656 9.09062 55.7219L30.3125 53.7906C30.769 53.7488 31.2292 53.808 31.6603 53.9639C32.0914 54.1199 32.4829 54.3687 32.8071 54.6929C33.1313 55.0171 33.3801 55.4086 33.5361 55.8397C33.692 56.2708 33.7512 56.731 33.7094 57.1875L31.7781 78.4094Z" fill="#EE243A"/>
<path fill-rule="evenodd" clip-rule="evenodd" d="M78.9754 49.4968L57.7536 47.5656C56.3845 47.4408 55.0047 47.6186 53.712 48.0864C52.4193 48.5542 51.2453 49.3006 50.2732 50.2727C49.3011 51.2448 48.5547 52.4188 48.0869 53.7115C47.619 55.0042 47.4412 56.384 47.5661 57.7531L49.4973 78.975C49.7094 81.3042 50.7845 83.4701 52.5115 85.0474C54.2385 86.6247 56.4928 87.4995 58.8317 87.5H78.1254C80.6129 87.5 82.9973 86.5125 84.7536 84.7531C85.6247 83.8831 86.3158 82.8499 86.7871 81.7126C87.2585 80.5752 87.5009 79.3561 87.5004 78.125V58.8312C87.4999 56.4923 86.6252 54.238 85.0479 52.511C83.4706 50.784 81.3047 49.7089 78.9754 49.4968ZM78.4098 55.7218C79.1862 55.7913 79.9085 56.1491 80.4342 56.7246C80.96 57.3001 81.2512 58.0517 81.2504 58.8312V78.125C81.2517 78.5357 81.1717 78.9426 81.0151 79.3223C80.8585 79.702 80.6283 80.047 80.3379 80.3374C80.0475 80.6279 79.7025 80.858 79.3228 81.0146C78.9431 81.1712 78.5362 81.2512 78.1254 81.25H58.8317C58.0522 81.2507 57.3006 80.9595 56.7251 80.4338C56.1496 79.908 55.7918 79.1857 55.7223 78.4093L53.7911 57.1875C53.7493 56.7309 53.8084 56.2708 53.9644 55.8397C54.1203 55.4086 54.3692 55.017 54.6933 54.6929C55.0175 54.3687 55.409 54.1198 55.8402 53.9639C56.2713 53.808 56.7314 53.7488 57.1879 53.7906L78.4098 55.7218Z" fill="#2B2D42"/>
</svg>
