<svg width="100" height="100" viewBox="0 0 100 100" fill="none" xmlns="http://www.w3.org/2000/svg">
<g clip-path="url(#clip0_1041_4389)">
<path d="M1.61328 98.3871V20.9678H20.9681V1.61292H66.1294V25.8065L65.3552 26.5807C63.7903 28.1456 61.6459 29.0323 59.4195 29.0323C58.5326 29.0323 57.6292 28.8873 56.775 28.5968L53.2262 27.4194V32.3549C53.2262 41.1936 58.2262 49.2738 66.1294 53.2258V54.8387H55.0651C52.9032 54.8387 50.8871 55.9194 49.6941 57.7093L45.8064 63.5484C45.3875 64.1776 44.7742 64.629 44.0486 64.8549L31.3391 68.6613C29.9683 69.0807 29.0326 70.3226 29.0326 71.7585V79.0323C29.0326 80.8065 30.4842 82.2581 32.2584 82.2581H41.9359C41.9359 85.8226 44.823 88.7097 48.3875 88.7097C51.952 88.7097 54.8391 85.8226 54.8391 82.2581H66.1294V98.3871H1.61328Z" fill="#E6E9ED"/>
<path d="M27.4189 8.06451H59.677V20.9677H27.4189V8.06451Z" fill="#FFEAA7"/>
<path d="M20.9681 1.61292V20.9678H1.61328L20.9681 1.61292Z" fill="#A0D468"/>
<path d="M79.032 30.6452V32.3548C79.032 41.1936 74.032 49.2738 66.1288 53.2258C58.2256 49.2738 53.2256 41.1936 53.2256 32.3548V27.4194L56.7744 28.5968C57.6263 28.885 58.5196 29.0321 59.4189 29.0323C61.6453 29.0323 63.7899 28.1456 65.3546 26.5807L66.1288 25.8065L66.903 26.5807C68.4679 28.1456 70.6123 29.0323 72.8387 29.0323C73.7256 29.0323 74.629 28.8873 75.4832 28.5968L79.032 27.4194V30.6452Z" fill="#B4DD7F"/>
<path d="M66.129 82.258H54.8387C54.8387 78.6935 51.9516 75.8064 48.3871 75.8064C44.8225 75.8064 41.9355 78.6935 41.9355 82.258H32.258C30.4838 82.258 29.0322 80.8064 29.0322 79.0322V71.7584C29.0322 70.3228 29.9677 69.0808 31.3389 68.6611L44.0486 64.8546C44.7738 64.6288 45.3873 64.1774 45.8062 63.5482L49.6935 57.7095C50.8867 55.9191 52.9028 54.8387 55.0647 54.8387H75.7096C77.7903 54.8387 79.7584 55.8387 80.9681 57.5486L86.2903 64.9996C86.8062 65.7258 87.5967 66.1935 88.4677 66.3228L95.6127 67.3387C97.2099 67.5806 98.3873 68.9359 98.3873 70.5322V79.0322C98.3873 80.8064 96.9357 82.258 95.1615 82.258H85.484C85.484 78.6935 82.5969 75.8064 79.0324 75.8064C75.4679 75.8064 72.5808 78.6935 72.5808 82.258H66.129Z" fill="#FF826E"/>
<path d="M54.8388 82.2581C54.8388 85.821 51.9501 88.7097 48.3872 88.7097C44.8243 88.7097 41.9355 85.821 41.9355 82.2581C41.9355 78.6952 44.8243 75.8065 48.3872 75.8065C51.9501 75.8065 54.8388 78.6952 54.8388 82.2581ZM85.4839 82.2581C85.4839 85.821 82.5952 88.7097 79.0323 88.7097C75.4694 88.7097 72.5807 85.821 72.5807 82.2581C72.5807 78.6952 75.4694 75.8065 79.0323 75.8065C82.5952 75.8065 85.4839 78.6952 85.4839 82.2581Z" fill="#838F9B"/>
<path d="M75.8068 61.2903L79.0326 67.742H51.6133L54.8391 61.2903H75.8068Z" fill="#69D6F4"/>
<path d="M95.8387 65.7415L88.7034 64.7272C88.2498 64.6595 87.8599 64.424 87.6016 64.0633L82.2841 56.6161C80.7821 54.4938 78.3244 53.2258 75.7095 53.2258H69.3421C76.373 48.6502 80.6452 40.8935 80.6452 32.3548V31.3131L88.2371 23.721L85.9565 21.4403L80.6452 26.7516V25.1835L74.9661 27.0698C72.6129 27.8659 69.806 27.202 68.0452 25.4403L67.7419 25.1387V0H20.3L0 20.3V100H67.7419V83.871H71.1308C71.8804 87.5464 75.1369 90.3226 79.0323 90.3226C82.9276 90.3226 86.1841 87.5464 86.9337 83.871H95.1613C97.8286 83.871 100 81.6996 100 79.0323V70.5323C100 68.1224 98.2564 66.1079 95.8387 65.7415ZM75.9923 30.1292L77.4194 29.6552V29.9772L66.129 41.2675L62.4306 37.5694L60.15 39.85L66.129 45.829L77.2855 34.6728C76.5405 41.7385 72.4327 47.9611 66.129 51.4067C59.1436 47.5885 54.8387 40.3611 54.8387 32.3548V29.6552L56.2563 30.1262C59.5986 31.2593 63.5081 30.4327 66.129 28.0706C68.75 30.431 72.6806 31.25 75.9923 30.1292ZM19.3548 5.50645V19.3548H5.50645L19.3548 5.50645ZM64.5161 96.7742H3.22581V22.5806H22.5806V3.22581H64.5161V25.1387L64.2145 25.4403C62.4536 27.202 59.6712 27.8746 57.2825 27.0657L51.6129 25.1835V32.3534C51.6129 40.8919 55.8853 48.6486 62.9157 53.2244H55.0649C52.3579 53.2244 49.848 54.5661 48.35 56.8163L44.4629 62.6536C44.2542 62.9666 43.9436 63.1979 43.5839 63.3081L30.8665 67.1173C28.8044 67.75 27.4194 69.6133 27.4194 71.7585V79.0323C27.4194 81.6996 29.5907 83.871 32.2581 83.871H40.4857C41.2353 87.5464 44.4917 90.3226 48.3871 90.3226C52.2825 90.3226 55.5389 87.5464 56.2885 83.871H64.5161V96.7742ZM43.5484 82.2581C43.5484 79.5907 45.7198 77.4194 48.3871 77.4194C51.0544 77.4194 53.2258 79.5907 53.2258 82.2581C53.2258 84.9254 51.0544 87.0968 48.3871 87.0968C45.7198 87.0968 43.5484 84.9254 43.5484 82.2581ZM79.0323 87.0968C76.3649 87.0968 74.1936 84.9254 74.1936 82.2581C74.1936 79.5907 76.3649 77.4194 79.0323 77.4194C81.6996 77.4194 83.871 79.5907 83.871 82.2581C83.871 84.9254 81.6996 87.0968 79.0323 87.0968ZM96.7742 79.0323C96.7742 79.9222 96.0496 80.6452 95.1613 80.6452H86.9337C86.1841 76.9698 82.9276 74.1936 79.0323 74.1936C75.1369 74.1936 71.8804 76.9698 71.1308 80.6452H56.2883C55.5387 76.9698 52.2823 74.1936 48.3869 74.1936C44.4915 74.1936 41.2351 76.9698 40.4855 80.6452H32.2581C31.3698 80.6452 30.6452 79.9222 30.6452 79.0323V71.7585C30.6452 71.0417 31.1145 70.4179 31.8012 70.206L44.5258 66.3952C45.6165 66.0564 46.523 65.3825 47.1482 64.4421L51.0357 58.6048C51.9343 57.2565 53.4399 56.4516 55.0647 56.4516H75.7097C77.2792 56.4516 78.7534 57.2101 79.6552 58.4859L84.9744 65.9337C85.7319 67.0002 86.9196 67.7222 88.2403 67.9192L95.3694 68.9319C96.1835 69.0565 96.7742 69.7288 96.7742 70.5323V79.0323Z" fill="black"/>
<path d="M46.7744 80.6451H50.0002V83.8709H46.7744V80.6451ZM77.4195 80.6451H80.6454V83.8709H77.4195V80.6451ZM53.8419 59.6774L49.0032 69.3548H81.6423L76.8036 59.6774H53.8419ZM54.223 66.129L55.8359 62.9032H74.8097L76.4226 66.129H54.223ZM61.2905 6.4516H25.8066V22.5806H61.2905V6.4516ZM58.0647 19.3548H29.0324V9.67741H58.0647V19.3548Z" fill="black"/>
<path d="M41.935 12.9032H45.1609V16.129H41.935V12.9032ZM48.3867 12.9032H51.6125V16.129H48.3867V12.9032ZM35.4834 12.9032H38.7092V16.129H35.4834V12.9032ZM6.45117 25.8064H43.5479V29.0322H6.45117V25.8064ZM6.45117 38.7096H43.5479V41.9355H6.45117V38.7096ZM29.0318 32.258H43.5479V35.4838H29.0318V32.258ZM6.45117 32.258H25.806V35.4838H6.45117V32.258ZM6.45117 45.1613H43.5479V48.3871H6.45117V45.1613ZM6.45117 51.6129H43.5479V54.8387H6.45117V51.6129ZM30.9125 88.0645C30.1383 86.2935 29.0782 83.8709 26.6125 83.8709C24.1435 83.8709 23.0834 86.2984 22.3109 88.0709C22.0431 88.6869 21.3288 90.3225 20.983 90.3225C20.6161 90.3225 19.9191 88.734 19.6205 88.0552C18.8463 86.2887 17.7848 83.8709 15.3221 83.8709C12.8564 83.8709 11.7963 86.2935 11.0221 88.0645C10.7252 88.7405 10.0338 90.3225 9.67698 90.3225H6.45117V93.5484H9.67698C12.1427 93.5484 13.2028 91.1258 13.977 89.3548C14.274 88.6788 14.9653 87.0967 15.3221 87.0967C15.679 87.0967 16.3705 88.6758 16.6657 89.35C17.4431 91.1227 18.5096 93.5484 20.983 93.5484C23.4403 93.5484 24.4963 91.129 25.2673 89.3609C25.5627 88.6836 26.2542 87.0967 26.6125 87.0967C26.9693 87.0967 27.6608 88.679 27.9576 89.3548C28.7318 91.1258 29.7919 93.5484 32.2576 93.5484H35.4834V90.3225H32.2576C31.9008 90.3225 31.2092 88.7403 30.9125 88.0645ZM38.7092 90.3225H41.935V93.5484H38.7092V90.3225Z" fill="black"/>
</g>
<defs>
<clipPath id="clip0_1041_4389">
<rect width="100" height="100" fill="white"/>
</clipPath>
</defs>
</svg>
