<svg width="100" height="100" viewBox="0 0 100 100" fill="none" xmlns="http://www.w3.org/2000/svg">
<g clip-path="url(#clip0_1041_4163)">
<path d="M89.0583 70.3149C89.0583 68.6574 88.3999 67.0678 87.2279 65.8958C86.0559 64.7238 84.4663 64.0654 82.8088 64.0654L74.5314 48.2432C73.9283 46.6339 72.0284 45.3168 70.3098 45.3168H29.688C27.9694 45.3168 26.0695 46.6339 25.4664 48.2432L17.189 64.0654C15.5315 64.0654 13.9419 64.7238 12.7699 65.8958C11.5979 67.0678 10.9395 68.6574 10.9395 70.3149V95.3129C10.9395 97.0315 12.3456 98.4377 14.0642 98.4377H26.5632C28.2818 98.4377 29.688 97.0315 29.688 95.3129V92.1882H70.3098V95.3129C70.3098 97.0315 71.716 98.4377 73.4346 98.4377H85.9336C87.6522 98.4377 89.0583 97.0315 89.0583 95.3129V70.3149Z" fill="#FFBCAB"/>
<path d="M74.5309 48.2431C73.9278 46.6339 72.0279 45.3168 70.3093 45.3168H29.6875C27.9689 45.3168 26.069 46.6339 25.466 48.2431L17.1885 64.0653H82.8083L74.5309 48.2431Z" fill="#E0E0E2"/>
<path d="M82.8088 64.0654H17.189C15.5315 64.0654 13.9419 64.7238 12.7699 65.8958C11.5979 67.0678 10.9395 68.6574 10.9395 70.3149V85.9387C10.9395 87.5961 11.5979 89.1857 12.7699 90.3577C13.9419 91.5297 15.5315 92.1882 17.189 92.1882H82.8088C84.4663 92.1882 86.0559 91.5297 87.2279 90.3577C88.3999 89.1857 89.0583 87.5961 89.0583 85.9387V70.3149C89.0583 68.6574 88.3999 67.0678 87.2279 65.8958C86.0559 64.7238 84.4663 64.0654 82.8088 64.0654Z" fill="#FF6243"/>
<path d="M73.4341 76.5643H79.6836C81.4022 76.5643 82.8083 75.1582 82.8083 73.4396V70.3148L74.9965 73.4396L73.4341 76.5643ZM17.1885 73.4396C17.1885 75.1582 18.5946 76.5643 20.3132 76.5643H26.5627L25.0004 73.4396L17.1885 70.3148V73.4396Z" fill="#E0E0E2"/>
<path d="M64.0598 92.1881H35.937L39.0618 85.9386H60.9351L64.0598 92.1881ZM79.6836 81.2515H76.5588C75.7301 81.2515 74.9353 81.5807 74.3493 82.1667C73.7633 82.7527 73.4341 83.5475 73.4341 84.3762C73.4341 85.205 73.7633 85.9997 74.3493 86.5858C74.9353 87.1718 75.7301 87.501 76.5588 87.501H79.6836C80.5123 87.501 81.3071 87.1718 81.8931 86.5858C82.4791 85.9997 82.8083 85.205 82.8083 84.3762C82.8083 83.5475 82.4791 82.7527 81.8931 82.1667C81.3071 81.5807 80.5123 81.2515 79.6836 81.2515ZM23.438 81.2515H20.3132C19.4845 81.2515 18.6897 81.5807 18.1037 82.1667C17.5177 82.7527 17.1885 83.5475 17.1885 84.3762C17.1885 85.205 17.5177 85.9997 18.1037 86.5858C18.6897 87.1718 19.4845 87.501 20.3132 87.501H23.438C24.2667 87.501 25.0615 87.1718 25.6475 86.5858C26.2335 85.9997 26.5627 85.205 26.5627 84.3762C26.5627 83.5475 26.2335 82.7527 25.6475 82.1667C25.0615 81.5807 24.2667 81.2515 23.438 81.2515ZM60.9351 23.4435C59.9289 23.4435 58.9758 23.6497 58.0947 23.995L46.3221 12.2225C46.6836 11.3189 46.8712 10.3552 46.8752 9.38208C46.8752 7.31024 46.0522 5.32325 44.5872 3.85824C43.1222 2.39323 41.1352 1.57019 39.0633 1.57019C38.1337 1.57019 37.2541 1.7608 36.426 2.05765L39.0633 4.69338V7.81814L37.501 9.38052H34.3762L31.7389 6.74322C31.424 7.58721 31.259 8.47973 31.2514 9.38052C31.2514 11.4524 32.0745 13.4393 33.5395 14.9044C35.0045 16.3694 36.9915 17.1924 39.0633 17.1924C40.0695 17.1924 41.0226 16.9862 41.9037 16.6393L53.6763 28.4118C53.3155 29.3156 53.1284 30.2792 53.1247 31.2522C53.1247 33.3241 53.9478 35.3111 55.4128 36.7761C56.8778 38.2411 58.8648 39.0641 60.9366 39.0641C61.8368 39.0557 62.7287 38.8907 63.5724 38.5767L60.9366 35.9394V32.8146L62.499 31.2522H65.6238L68.2595 33.8895C68.5749 33.0457 68.7404 32.1531 68.7485 31.2522C68.7477 29.1807 67.9241 27.1943 66.4588 25.7299C64.9935 24.2655 63.0066 23.4431 60.9351 23.4435Z" fill="#FFBCAB"/>
<path d="M39.0619 35.9425V32.8177L37.4995 31.2554H34.3748L31.7375 33.8927C31.4226 33.0487 31.2576 32.1562 31.25 31.2554C31.25 29.1835 32.073 27.1965 33.538 25.7315C35.0031 24.2665 36.99 23.4435 39.0619 23.4435C40.0681 23.4435 41.0211 23.6497 41.9023 23.995L53.6748 12.2225C53.3139 11.3188 53.1268 10.3551 53.1233 9.38208C53.1233 7.31024 53.9463 5.32325 55.4113 3.85824C56.8764 2.39323 58.8633 1.57019 60.9352 1.57019C61.8354 1.57866 62.7272 1.74361 63.5709 2.05765L60.9352 4.69338V7.81814L62.4976 9.38052H65.6223L68.258 6.74322C68.5565 7.56972 68.7471 8.44934 68.7471 9.38052C68.7471 10.4064 68.545 11.4222 68.1524 12.37C67.7598 13.3178 67.1844 14.179 66.459 14.9044C65.7336 15.6298 64.8724 16.2052 63.9247 16.5978C62.9769 16.9903 61.9611 17.1924 60.9352 17.1924C59.962 17.1885 58.9983 17.0009 58.0948 16.6393L46.3223 28.4118C46.6691 29.2946 46.8753 30.2476 46.8753 31.2522C46.8753 33.3241 46.0523 35.3111 44.5873 36.7761C43.1223 38.2411 41.1353 39.0641 39.0635 39.0641C38.1628 39.0555 37.2704 38.8906 36.4262 38.5767L39.0619 35.9425Z" fill="#E0E0E2"/>
<path d="M73.4349 78.1268H79.6844C82.2686 78.1268 84.3716 76.0239 84.3716 73.4397V70.3149C84.3718 70.0594 84.3093 69.8077 84.1896 69.582C84.07 69.3562 83.8968 69.1633 83.6852 69.02C83.4736 68.8768 83.2301 68.7876 82.9761 68.7603C82.722 68.733 82.4652 68.7684 82.228 68.8635L74.4161 71.9882C74.0615 72.1311 73.771 72.3983 73.599 72.7397L72.0366 75.8645C71.9172 76.1028 71.8607 76.3677 71.8726 76.634C71.8845 76.9003 71.9643 77.1591 72.1044 77.3859C72.2446 77.6126 72.4404 77.7997 72.6733 77.9294C72.9062 78.0591 73.1684 78.1271 73.4349 78.1268ZM76.13 74.6693L81.2468 72.6226V73.4397C81.2468 74.3021 80.5453 75.0021 79.6844 75.0021H75.9629L76.13 74.6693ZM20.3141 78.1268H26.5636C26.83 78.1266 27.0919 78.0584 27.3246 77.9286C27.5572 77.7988 27.7528 77.6117 27.8929 77.3851C28.033 77.1585 28.1128 76.8999 28.1249 76.6338C28.137 76.3677 28.0809 76.1028 27.9619 75.8645L26.3995 72.7397C26.2285 72.3976 25.9377 72.1301 25.5824 71.9882L17.7705 68.8635C17.5334 68.7688 17.2767 68.7336 17.0229 68.761C16.7691 68.7885 16.5258 68.8777 16.3145 69.0209C16.1031 69.1642 15.9301 69.357 15.8105 69.5826C15.6909 69.8082 15.6284 70.0596 15.6285 70.3149V73.4397C15.6293 74.6823 16.1232 75.8737 17.0017 76.7525C17.8802 77.6313 19.0715 78.1256 20.3141 78.1268ZM18.7517 72.621L23.8685 74.6677L24.0341 75.0005H20.3125C19.4517 75.0005 18.7501 74.3005 18.7501 73.4381L18.7517 72.621ZM76.5597 89.0635H79.6844C82.2686 89.0635 84.3716 86.9605 84.3716 84.3763C84.3716 81.7922 82.2686 79.6892 79.6844 79.6892H76.5597C73.9755 79.6892 71.8726 81.7922 71.8726 84.3763C71.8726 86.9605 73.9755 89.0635 76.5597 89.0635ZM76.5597 82.8139H79.6844C80.0867 82.8319 80.4666 83.0044 80.7449 83.2954C81.0232 83.5865 81.1785 83.9736 81.1785 84.3763C81.1785 84.779 81.0232 85.1662 80.7449 85.4572C80.4666 85.7482 80.0867 85.9207 79.6844 85.9387H76.5597C76.1574 85.9207 75.7776 85.7482 75.4993 85.4572C75.221 85.1662 75.0656 84.779 75.0656 84.3763C75.0656 83.9736 75.221 83.5865 75.4993 83.2954C75.7776 83.0044 76.1574 82.8319 76.5597 82.8139ZM20.3141 89.0635H23.4388C26.023 89.0635 28.126 86.9605 28.126 84.3763C28.126 81.7922 26.023 79.6892 23.4388 79.6892H20.3141C17.7299 79.6892 15.627 81.7922 15.627 84.3763C15.627 86.9605 17.7299 89.0635 20.3141 89.0635ZM20.3141 82.8139H23.4388C23.8411 82.8319 24.221 83.0044 24.4993 83.2954C24.7776 83.5865 24.9329 83.9736 24.9329 84.3763C24.9329 84.779 24.7776 85.1662 24.4993 85.4572C24.221 85.7482 23.8411 85.9207 23.4388 85.9387H20.3141C19.9118 85.9207 19.532 85.7482 19.2537 85.4572C18.9754 85.1662 18.82 84.779 18.82 84.3763C18.82 83.9736 18.9754 83.5865 19.2537 83.2954C19.532 83.0044 19.9118 82.8319 20.3141 82.8139Z" fill="#554431"/>
<path d="M90.6206 70.3149C90.6181 68.4131 89.9229 66.5773 88.6652 65.1508C87.4075 63.7243 85.6733 62.8047 83.7868 62.5639L75.9561 47.5963C75.0906 45.434 72.6345 43.7545 70.3097 43.7545H29.6879C27.363 43.7545 24.9054 45.434 24.0414 47.5963L16.2108 62.5639C14.3243 62.8047 12.5901 63.7243 11.3323 65.1508C10.0746 66.5773 9.3795 68.4131 9.37695 70.3149V95.3129C9.37695 97.8971 11.4799 100 14.0641 100H26.5631C29.1473 100 31.2502 97.8971 31.2502 95.3129V93.7505H68.7473V95.3129C68.7473 97.8971 70.8503 100 73.4344 100H85.9335C88.5176 100 90.6206 97.8971 90.6206 95.3129V70.3149ZM26.8506 48.9681C26.8804 48.911 26.9065 48.8521 26.9287 48.7916C27.3037 47.7901 28.6192 46.8792 29.6879 46.8792H70.3097C71.3784 46.8792 72.6923 47.7901 73.0689 48.7916C73.0923 48.8525 73.1173 48.9103 73.147 48.9681L80.2277 62.503H19.7699L26.8506 48.9681ZM12.5017 70.3149C12.5017 67.7307 14.6047 65.6278 17.1888 65.6278H82.8087C85.3929 65.6278 87.4958 67.7307 87.4958 70.3149V85.9387C87.4958 88.5228 85.3929 90.6258 82.8087 90.6258H65.0257L62.3338 85.2403C62.2041 84.9808 62.0048 84.7625 61.7581 84.6099C61.5114 84.4573 61.2271 84.3764 60.937 84.3763H39.0637C38.4716 84.3763 37.931 84.7106 37.6654 85.2403L34.9718 90.6258H17.1888C14.6047 90.6258 12.5017 88.5228 12.5017 85.9387V70.3149ZM28.1255 95.3129C28.1255 96.1754 27.424 96.8753 26.5631 96.8753H14.0641C13.2032 96.8753 12.5017 96.1754 12.5017 95.3129V92.1491C13.8461 93.1826 15.4931 93.7454 17.1888 93.7505H28.1255V95.3129ZM38.4669 90.6258L40.0292 87.501H59.9714L61.5338 90.6258H38.4669ZM85.9335 96.8753H73.4344C72.5736 96.8753 71.8721 96.1754 71.8721 95.3129V93.7505H82.8087C84.5742 93.7505 86.1866 93.1397 87.4958 92.1491V95.3129C87.4958 96.1738 86.7959 96.8753 85.9335 96.8753Z" fill="#554431"/>
<path d="M35.937 78.1268H64.0598C64.4742 78.1268 64.8716 77.9622 65.1646 77.6692C65.4576 77.3762 65.6222 76.9788 65.6222 76.5644C65.6222 76.15 65.4576 75.7526 65.1646 75.4596C64.8716 75.1666 64.4742 75.002 64.0598 75.002H35.937C35.5226 75.002 35.1252 75.1666 34.8322 75.4596C34.5392 75.7526 34.3746 76.15 34.3746 76.5644C34.3746 76.9788 34.5392 77.3762 34.8322 77.6692C35.1252 77.9622 35.5226 78.1268 35.937 78.1268ZM39.0618 21.8812C33.8919 21.8812 29.6875 26.0855 29.6875 31.2554C29.6875 32.3022 29.8781 33.3381 30.2687 34.4208C30.3582 34.6681 30.5087 34.8888 30.7062 35.0625C30.9036 35.2362 31.1417 35.3573 31.3984 35.4147C31.655 35.472 31.922 35.4636 32.1746 35.3904C32.4272 35.3172 32.6573 35.1815 32.8435 34.9958L35.023 32.8162H36.8541L37.501 33.4631V35.2942L35.3214 37.4737C35.1346 37.6596 34.9979 37.8899 34.9241 38.1429C34.8503 38.396 34.8417 38.6636 34.8993 38.9208C34.9569 39.1781 35.0786 39.4165 35.2533 39.614C35.4279 39.8115 35.6497 39.9615 35.8979 40.05C36.9838 40.4406 38.0181 40.6297 39.0633 40.6297C44.2332 40.6297 48.4376 36.4253 48.4376 31.2554C48.4376 30.4445 48.3267 29.6368 48.1095 28.8384L50 26.9464L51.8905 28.8384C51.6734 29.6258 51.563 30.4387 51.5623 31.2554C51.5623 36.4253 55.7667 40.6297 60.9366 40.6297C61.9803 40.6297 63.0161 40.4406 64.102 40.05C64.3494 39.9605 64.5703 39.8099 64.7441 39.6124C64.918 39.4149 65.0392 39.1767 65.0967 38.9199C65.1541 38.6632 65.146 38.396 65.0729 38.1432C64.9998 37.8905 64.8641 37.6602 64.6785 37.4737L62.5006 35.2942V33.4631L63.1474 32.8162H64.9785L67.158 34.9958C67.3437 35.1827 67.5737 35.3195 67.8266 35.3934C68.0794 35.4674 68.3469 35.476 68.604 35.4186C68.8612 35.3612 69.0995 35.2396 69.2969 35.0651C69.4943 34.8906 69.6443 34.6689 69.7328 34.4208C70.1234 33.3381 70.314 32.3007 70.314 31.2554C70.314 26.0855 66.1097 21.8812 60.9397 21.8812C60.1304 21.8812 59.3211 21.9905 58.5227 22.2108L56.6307 20.3188L58.5227 18.4267C59.3099 18.645 60.1229 18.7559 60.9397 18.7564C66.1097 18.7564 70.314 14.552 70.314 9.38213C70.314 8.33534 70.1234 7.29948 69.7328 6.21675C69.6433 5.96947 69.4928 5.74876 69.2953 5.57504C69.0979 5.40132 68.8598 5.28021 68.6031 5.22289C68.3465 5.16558 68.0795 5.17391 67.8269 5.24713C67.5743 5.32036 67.3442 5.45609 67.158 5.6418L64.9785 7.82131H63.1474L62.5006 7.17449V5.34182L64.6785 3.1623C64.8654 2.97636 65.0021 2.74612 65.0759 2.49307C65.1497 2.24002 65.1582 1.97239 65.1006 1.71516C65.0431 1.45792 64.9213 1.21945 64.7467 1.02199C64.5721 0.824535 64.3503 0.67452 64.102 0.585941C57.6447 -1.73575 51.5639 3.16699 51.5623 9.38057C51.5623 10.1914 51.6733 10.9992 51.8905 11.7976L50 13.6896L48.1095 11.7976C48.3282 10.9992 48.4376 10.1914 48.4376 9.38057C48.4376 3.16699 42.3568 -1.73575 35.8979 0.585941C35.6505 0.675536 35.4297 0.82605 35.2558 1.02357C35.082 1.2211 34.9607 1.45926 34.9033 1.71604C34.8458 1.97283 34.854 2.23996 34.9271 2.49274C35.0002 2.74552 35.1358 2.9758 35.3214 3.1623L37.501 5.34182V7.17293L36.8541 7.81975H35.023L32.8435 5.64023C32.6575 5.45413 32.4274 5.31804 32.1747 5.24457C31.922 5.17111 31.6549 5.16266 31.3981 5.22001C31.1412 5.27736 30.9031 5.39865 30.7056 5.57262C30.5082 5.7466 30.3579 5.96762 30.2687 6.21519C29.8908 7.22804 29.694 8.29951 29.6875 9.38057C29.6875 14.5505 33.8919 18.7548 39.0618 18.7548C39.8711 18.7548 40.6804 18.6455 41.4788 18.4252L43.3708 20.3172L41.4788 22.2093C40.6914 21.9923 39.8785 21.8819 39.0618 21.8812ZM56.9901 25.0997C57.4291 25.5387 58.0884 25.6762 58.6665 25.4496C59.4164 25.1559 60.1804 25.0059 60.9366 25.0059C62.475 25.0079 63.9588 25.5765 65.1046 26.603C66.2505 27.6296 66.9781 29.0422 67.1486 30.5711L66.7284 30.1524C66.4354 29.8594 66.0381 29.6947 65.6238 29.6946H62.499C62.085 29.6946 61.6866 29.8602 61.3944 30.1524L59.832 31.7148C59.6867 31.8597 59.5715 32.0318 59.4929 32.2214C59.4144 32.4109 59.374 32.6142 59.3742 32.8194V35.9441C59.3742 36.3597 59.5383 36.7566 59.832 37.0487L60.2523 37.4706C58.7231 37.3 57.3103 36.5722 56.2837 35.426C55.2572 34.2798 54.6888 32.7957 54.6871 31.257C54.6871 30.5024 54.8371 29.7368 55.1308 28.9868C55.2425 28.704 55.2689 28.3947 55.2067 28.097C55.1445 27.7993 54.9965 27.5264 54.7808 27.312L52.2092 24.7403L54.4184 22.5311L56.9901 25.0997ZM43.0083 15.5363C42.7933 15.3211 42.5201 15.1734 42.2223 15.1112C41.9245 15.049 41.6151 15.0752 41.3319 15.1864C40.582 15.4801 39.818 15.6301 39.0618 15.6301C37.5234 15.628 36.0396 15.0595 34.8937 14.0329C33.7479 13.0064 33.0203 11.5938 32.8498 10.0649L33.27 10.4836C33.4149 10.6289 33.5871 10.7441 33.7767 10.8227C33.9662 10.9013 34.1694 10.9416 34.3746 10.9414H37.4994C37.9134 10.9414 38.3103 10.7758 38.604 10.4836L40.1664 8.92123C40.4585 8.6275 40.6241 8.23222 40.6241 7.81663V4.69187C40.6241 4.27754 40.4594 3.8802 40.1664 3.58727L39.7461 3.16543C41.2752 3.33629 42.6878 4.06425 43.7143 5.21035C44.7408 6.35645 45.3093 7.84042 45.3113 9.379C45.3113 10.1336 45.1613 10.8992 44.8676 11.6491C44.7563 11.932 44.7301 12.2413 44.7923 12.5389C44.8545 12.8364 45.0023 13.1093 45.2175 13.324L47.7892 15.8957L45.58 18.1049L43.0083 15.5363ZM43.0083 25.0997L54.7808 13.3271C54.9958 13.1123 55.1433 12.8394 55.2055 12.5419C55.2677 12.2444 55.2417 11.9352 55.1308 11.6523C54.8423 10.93 54.6918 10.1599 54.6871 9.38213C54.6888 7.84345 55.2572 6.35929 56.2837 5.21312C57.3103 4.06695 58.7231 3.33909 60.2523 3.16855L59.832 3.59039C59.6867 3.73529 59.5715 3.90746 59.4929 4.09702C59.4144 4.28658 59.374 4.4898 59.3742 4.695V7.81975C59.3742 8.23534 59.5383 8.63063 59.832 8.92435L61.3944 10.4867C61.5393 10.632 61.7115 10.7473 61.901 10.8258C62.0906 10.9044 62.2938 10.9447 62.499 10.9445H65.6238C66.0378 10.9445 66.4346 10.7789 66.7284 10.4867L67.1486 10.068C66.9781 11.5969 66.2505 13.0095 65.1046 14.0361C63.9588 15.0626 62.475 15.6312 60.9366 15.6332C60.1804 15.6332 59.4164 15.4832 58.6665 15.1895C58.3835 15.0771 58.0737 15.0503 57.7757 15.1125C57.4776 15.1747 57.2044 15.3232 56.9901 15.5395L45.2175 27.312C45.0026 27.5269 44.8551 27.7998 44.7929 28.0972C44.7307 28.3947 44.7567 28.7039 44.8676 28.9868C45.1629 29.7368 45.3113 30.5024 45.3113 31.257C45.3093 32.7956 44.7408 34.2795 43.7143 35.4256C42.6878 36.5717 41.2752 37.2997 39.7461 37.4706L40.1664 37.0487C40.4585 36.755 40.6241 36.3597 40.6241 35.9441V32.8194C40.6241 32.4038 40.4585 32.0085 40.1664 31.7148L38.604 30.1524C38.3111 29.8594 37.9137 29.6947 37.4994 29.6946H34.3746C33.9606 29.6946 33.5622 29.8602 33.27 30.1524L32.8498 30.5711C33.0203 29.0422 33.7479 27.6296 34.8937 26.603C36.0396 25.5765 37.5234 25.0079 39.0618 25.0059C39.818 25.0059 40.582 25.1559 41.3319 25.4496C41.91 25.6762 42.5693 25.5387 43.0083 25.0997Z" fill="#554431"/>
</g>
<defs>
<clipPath id="clip0_1041_4163">
<rect width="100" height="100" fill="white"/>
</clipPath>
</defs>
</svg>
