<svg width="22" height="24" viewBox="0 0 22 24" fill="none" xmlns="http://www.w3.org/2000/svg">
<path d="M6.00891 15.6061H18.2958C18.3829 15.6061 18.4664 15.6407 18.528 15.7023C18.5895 15.7638 18.6241 15.8474 18.6241 15.9345C18.6241 16.0215 18.5895 16.1051 18.528 16.1666C18.4664 16.2282 18.3829 16.2628 18.2958 16.2628H6.00891C5.96579 16.2628 5.92309 16.2543 5.88325 16.2378C5.84341 16.2213 5.80721 16.1971 5.77672 16.1666C5.74623 16.1361 5.72204 16.0999 5.70554 16.0601C5.68904 16.0203 5.68055 15.9776 5.68055 15.9345C5.68055 15.8913 5.68904 15.8486 5.70554 15.8088C5.72204 15.769 5.74623 15.7328 5.77672 15.7023C5.80721 15.6718 5.84341 15.6476 5.88325 15.6311C5.92309 15.6146 5.96579 15.6061 6.00891 15.6061ZM18.2958 18.067H6.00891C5.92182 18.067 5.8383 18.1016 5.77672 18.1632C5.71514 18.2248 5.68055 18.3083 5.68055 18.3954C5.68055 18.4825 5.71514 18.566 5.77672 18.6276C5.8383 18.6892 5.92182 18.7238 6.00891 18.7238H18.2958C18.3829 18.7238 18.4664 18.6892 18.528 18.6276C18.5895 18.566 18.6241 18.4825 18.6241 18.3954C18.6241 18.3083 18.5895 18.2248 18.528 18.1632C18.4664 18.1016 18.3829 18.067 18.2958 18.067ZM3.85359 8.85352H2.85291V9.78361H3.85345C3.97679 9.78361 4.09508 9.73461 4.18229 9.6474C4.2695 9.56019 4.3185 9.4419 4.3185 9.31856C4.3185 9.19522 4.2695 9.07694 4.18229 8.98973C4.09508 8.90251 3.97679 8.85352 3.85345 8.85352H3.85359ZM18.2958 20.528H6.00891C5.96582 20.528 5.92315 20.5365 5.88334 20.5529C5.84353 20.5694 5.80736 20.5936 5.77689 20.6241C5.74642 20.6545 5.72225 20.6907 5.70576 20.7305C5.68927 20.7703 5.68078 20.813 5.68078 20.8561C5.68078 20.8992 5.68927 20.9419 5.70576 20.9817C5.72225 21.0215 5.74642 21.0576 5.77689 21.0881C5.80736 21.1186 5.84353 21.1428 5.88334 21.1592C5.92315 21.1757 5.96582 21.1842 6.00891 21.1842H18.2958C18.3828 21.1842 18.4663 21.1496 18.5278 21.0881C18.5893 21.0266 18.6239 20.9431 18.6239 20.8561C18.6239 20.7691 18.5893 20.6856 18.5278 20.6241C18.4663 20.5625 18.3828 20.528 18.2958 20.528ZM7.44244 10.638V9.58594C7.44204 9.39165 7.3646 9.20546 7.2271 9.06819C7.0896 8.93093 6.90327 8.85381 6.70898 8.85375H5.97548V11.3717H6.70898C6.90348 11.3715 7.08994 11.2941 7.22745 11.1566C7.36496 11.019 7.44228 10.8325 7.44244 10.638ZM21.0769 7.04625V21.9867C21.0761 22.5207 20.8635 23.0325 20.4858 23.4099C20.1081 23.7874 19.5961 23.9996 19.0622 24H5.24203C4.70813 23.9996 4.1962 23.7873 3.81859 23.4099C3.44097 23.0324 3.22851 22.5206 3.22781 21.9867V13.507H0.700312C0.514658 13.5068 0.336682 13.4329 0.205404 13.3016C0.0741268 13.1703 0.000260411 12.9924 0 12.8067V7.41844C0.000173754 7.23276 0.0740122 7.05473 0.205309 6.92343C0.336605 6.79214 0.514631 6.7183 0.700312 6.71813H3.22781V2.01422C3.2284 1.48019 3.44079 0.968208 3.81841 0.590595C4.19602 0.212982 4.70801 0.000583153 5.24203 0L14.0306 0C14.1176 0.00017801 14.201 0.0347161 14.2627 0.0960937L20.9808 6.81422C21.0422 6.87586 21.0767 6.95926 21.0769 7.04625ZM3.85345 10.44C4.00073 10.44 4.14656 10.411 4.28263 10.3546C4.41869 10.2983 4.54232 10.2157 4.64646 10.1115C4.7506 10.0074 4.83321 9.88375 4.88957 9.74769C4.94593 9.61162 4.97494 9.46579 4.97494 9.31852C4.97494 9.17124 4.94593 9.02541 4.88957 8.88934C4.83321 8.75328 4.7506 8.62965 4.64646 8.52551C4.54232 8.42137 4.41869 8.33876 4.28263 8.2824C4.14656 8.22604 4.00073 8.19703 3.85345 8.19703H2.52469C2.43766 8.19703 2.3542 8.2316 2.29267 8.29314C2.23113 8.35467 2.19656 8.43813 2.19656 8.52516V11.6996C2.19656 11.7866 2.23113 11.8701 2.29267 11.9316C2.3542 11.9931 2.43766 12.0277 2.52469 12.0277C2.61171 12.0277 2.69517 11.9931 2.75671 11.9316C2.81824 11.8701 2.85281 11.7866 2.85281 11.6996V10.44L3.85345 10.44ZM20.4206 7.37484H14.9672C14.6318 7.37442 14.3102 7.24099 14.0731 7.00382C13.8359 6.76665 13.7025 6.4451 13.702 6.10969V0.65625H5.24203C4.88202 0.656721 4.53689 0.799944 4.28232 1.05451C4.02776 1.30908 3.88453 1.65421 3.88406 2.01422V6.71813H12.7177C12.9033 6.7183 13.0814 6.79214 13.2127 6.92343C13.344 7.05473 13.4178 7.23276 13.418 7.41844V12.8067C13.4177 12.9924 13.3438 13.1703 13.2126 13.3016C13.0813 13.4329 12.9033 13.5068 12.7177 13.507H3.88406V21.9867C3.88468 22.3466 4.02798 22.6915 4.28254 22.9459C4.53711 23.2003 4.88215 23.3434 5.24203 23.3438H19.0622C19.4221 23.3435 19.7673 23.2005 20.022 22.9461C20.2766 22.6917 20.42 22.3467 20.4206 21.9867V7.37484ZM5.64727 12.0281H6.70898C7.07747 12.0277 7.43074 11.8811 7.69129 11.6206C7.95184 11.36 8.09841 11.0067 8.09883 10.6382V9.58594C8.09826 9.21762 7.95161 8.86456 7.69105 8.60423C7.43049 8.3439 7.07731 8.19756 6.70898 8.19731H5.64727C5.56024 8.19731 5.47678 8.23188 5.41525 8.29342C5.35371 8.35495 5.31914 8.43841 5.31914 8.52544V11.6999C5.31912 11.743 5.3276 11.7856 5.34408 11.8255C5.36056 11.8653 5.38473 11.9015 5.4152 11.932C5.44567 11.9625 5.48185 11.9866 5.52167 12.0031C5.56148 12.0196 5.60416 12.0281 5.64727 12.0281ZM9.09938 9.78361V8.85352H10.8932C10.9802 8.85352 11.0637 8.81895 11.1252 8.75741C11.1867 8.69588 11.2213 8.61241 11.2213 8.52539C11.2213 8.43837 11.1867 8.35491 11.1252 8.29337C11.0637 8.23184 10.9802 8.19727 10.8932 8.19727H8.77125C8.68423 8.19727 8.60077 8.23184 8.53923 8.29337C8.4777 8.35491 8.44313 8.43837 8.44313 8.52539V11.6998C8.44313 11.7429 8.45161 11.7856 8.4681 11.8254C8.48459 11.8652 8.50876 11.9014 8.53923 11.9318C8.5697 11.9623 8.60587 11.9865 8.64568 12.003C8.68549 12.0195 8.72816 12.0279 8.77125 12.0279C8.81434 12.0279 8.85701 12.0195 8.89682 12.003C8.93663 11.9865 8.9728 11.9623 9.00327 11.9318C9.03374 11.9014 9.05791 11.8652 9.0744 11.8254C9.09089 11.7856 9.09938 11.7429 9.09938 11.6998V10.44H10.5783C10.6653 10.44 10.7488 10.4055 10.8103 10.3439C10.8718 10.2824 10.9064 10.1989 10.9064 10.1119C10.9064 10.0249 10.8718 9.94144 10.8103 9.8799C10.7488 9.81837 10.6653 9.7838 10.5783 9.7838L9.09938 9.78361Z" fill="#F94852"/>
</svg>
